<svg width="22" height="22" viewBox="0 0 22 22" fill="none" xmlns="http://www.w3.org/2000/svg">
<g clip-path="url(#clip0_1779_8857)">
<path fill-rule="evenodd" clip-rule="evenodd" d="M11 20.7059C5.64753 20.7059 1.29412 16.3525 1.29412 11C1.29412 5.64753 5.64753 1.29412 11 1.29412C16.3525 1.29412 20.7059 5.64753 20.7059 11C20.7059 16.3525 16.3525 20.7059 11 20.7059ZM11 0C4.93447 0 0 4.93447 0 11C0 17.0655 4.93447 22 11 22C17.0655 22 22 17.0655 22 11C22 4.93447 17.0655 0 11 0ZM9.78936 13.2685L6.68088 10.16L5.76594 11.0749L9.78936 15.0983L13.2272 11.6605L16.665 8.2227L15.7501 7.30775L9.78936 13.2685Z" fill="white"/>
</g>
<defs>
<clipPath id="clip0_1779_8857">
<rect width="22" height="22" fill="white"/>
</clipPath>
</defs>
</svg>
