<svg width="22" height="23" viewBox="0 0 22 23" fill="none" xmlns="http://www.w3.org/2000/svg">
<path d="M10.6131 0C10.5025 0 10.5025 0 10.392 0C10.392 0 10.392 0 10.2814 0C10.0603 0 9.94977 0 9.72867 0L9.94977 2.21106C10.392 2.21106 10.9448 2.21106 11.387 2.21106C15.8091 2.54272 19.4573 6.08042 19.6784 10.6131C19.8995 15.4774 16.1407 19.6784 11.2764 19.8995C11.2764 19.8995 11.1659 19.8995 11.0553 19.8995C10.7236 19.8995 10.2814 19.8995 9.94977 19.8995L9.83922 22.1106C10.2814 22.1106 10.7236 22.1106 11.2764 22.1106C11.387 22.1106 11.6081 22.1106 11.7186 22.1106C17.6885 21.6684 22.2212 16.583 22.0001 10.6131C21.7789 4.97489 17.2463 0.552765 11.7186 0.110553C11.4975 0.110553 11.387 0.110553 11.1659 0.110553C10.9448 -1.07079e-07 10.8342 0 10.6131 0ZM6.74374 0.773871C6.19097 1.10553 5.63821 1.32664 5.08544 1.6583L6.30152 3.5377C6.63318 3.31659 7.0754 3.09549 7.51761 2.87438L6.74374 0.773871ZM2.65327 3.7588C2.21106 4.20102 1.8794 4.75378 1.54774 5.19599L3.42714 6.30152C3.64825 5.96986 3.97991 5.63821 4.31157 5.19599L2.65327 3.7588ZM14.7036 7.07539L9.61812 12.8242L6.63318 10.5025L5.4171 12.3819L10.0603 15.9196L16.4724 8.62314L14.7036 7.07539ZM0.331659 7.73871C0.110553 8.29148 0 8.9548 0 9.50756L2.21106 9.83922C2.32161 9.39701 2.32161 8.84424 2.54272 8.40203L0.331659 7.73871ZM2.21106 12.1608L0 12.3819C0 12.4925 0 12.603 0 12.7136C0.110553 13.1558 0.221106 13.7086 0.331659 14.1508L2.43217 13.4875C2.32161 13.1558 2.21106 12.7136 2.21106 12.2714V12.1608ZM3.42714 15.6985L1.54774 16.9146C1.8794 17.4674 2.21106 17.9096 2.65327 18.3518L4.31157 16.9146C3.97991 16.4724 3.64825 16.1407 3.42714 15.6985ZM6.30152 18.5729L5.08544 20.4523C5.63821 20.784 6.19097 21.0051 6.74374 21.3367L7.62816 19.3468C7.0754 19.0151 6.63318 18.794 6.30152 18.5729Z" fill="white"/>
</svg>
