<svg width="287" height="7" viewBox="0 0 287 7" fill="none" xmlns="http://www.w3.org/2000/svg">
<mask id="mask0_1941_9194" style="mask-type:alpha" maskUnits="userSpaceOnUse" x="0" y="0" width="287" height="7">
<rect width="287" height="7" transform="matrix(-1 0 0 1 287 0)" fill="#C4C4C4"/>
</mask>
<g mask="url(#mask0_1941_9194)">
<path d="M243.887 -1.48026L243.185 -1.57252L244.55 -1.70481L243.896 -1.80164C243.24 -1.80076 242.39 -1.65566 241.927 -1.73276C241.871 -1.8074 242.585 -1.83136 242.767 -1.89083C242.929 -1.95179 243.06 -2.01235 243.161 -2.07179C242.804 -2.07115 242.411 -2.05677 242.006 -2.0295C241.461 -1.98497 240.927 -1.96332 240.462 -1.96694C239.511 -1.95492 238.592 -1.96692 237.558 -1.96427L237.902 -2.14392L236.57 -2.10189C236.429 -2.08821 236.261 -2.11021 236.122 -2.09328C234.967 -1.95003 234.479 -2.02809 233.925 -2.09282C233.811 -2.10957 233.674 -2.12207 233.517 -2.13001C231.977 -2.09569 230.588 -1.8949 229.201 -1.79182C228.94 -1.7655 228.69 -1.73172 228.468 -1.69286C227.985 -1.61733 227.449 -1.55567 226.907 -1.51351C226.365 -1.47135 225.836 -1.45004 225.367 -1.45153C224.33 -1.45319 223.158 -1.40324 221.965 -1.30649C221.61 -1.27462 221.255 -1.2536 220.923 -1.24476C220.59 -1.23592 220.287 -1.23946 220.034 -1.25515L219.227 -1.1526C218.877 -1.19421 218.434 -1.21705 217.924 -1.21971C217.414 -1.22237 216.848 -1.20481 216.26 -1.1681C215.633 -1.12827 214.997 -1.10142 214.346 -1.05931C213.003 -0.9788 211.696 -0.929565 210.466 -0.91313C208.633 -0.864426 206.843 -0.826769 204.994 -0.766048C203.838 -0.736739 202.711 -0.720619 201.621 -0.717771C200.315 -0.706308 198.902 -0.650809 197.45 -0.553955C197.519 -0.463084 198.156 -0.489929 198.583 -0.493005C199.961 -0.508109 201.371 -0.547246 202.789 -0.576648C203.427 -0.588125 204.048 -0.592471 204.648 -0.589657C205.651 -0.593424 206.708 -0.617637 207.802 -0.661882C209.529 -0.710567 211.201 -0.733969 212.801 -0.73185C212.926 -0.728251 213.041 -0.721873 213.144 -0.712822C213.165 -0.704983 213.169 -0.695098 213.156 -0.684117C213.143 -0.673135 213.112 -0.66142 213.067 -0.6501C213.023 -0.638778 212.965 -0.62823 212.901 -0.619461C212.836 -0.61069 212.767 -0.603991 212.699 -0.600011C212.063 -0.538427 211.381 -0.472285 210.782 -0.462981C210.758 -0.462285 210.734 -0.460698 210.709 -0.458331C210.685 -0.455964 210.661 -0.452877 210.64 -0.449296C209.299 -0.319286 208.196 -0.341287 207.151 -0.320135C205.416 -0.262968 203.744 -0.236265 202.159 -0.240431C201.919 -0.240147 201.661 -0.232715 201.393 -0.218404C199.733 -0.160393 198.181 -0.153904 196.81 -0.199233C196.245 -0.210717 195.72 -0.236497 195.114 -0.236928C194.74 -0.238703 194.415 -0.255154 194.158 -0.285298C193.9 -0.315442 193.716 -0.358655 193.617 -0.412337C193.361 -0.384075 193.101 -0.358885 192.84 -0.337072C192.684 -0.3246 192.535 -0.321287 192.422 -0.327814C192.309 -0.334341 192.242 -0.350218 192.232 -0.372236C192.186 -0.433899 192.541 -0.464866 192.85 -0.491272C192.664 -0.504496 192.454 -0.512275 192.226 -0.514423C190.941 -0.528513 189.562 -0.511883 188.12 -0.464899C187.001 -0.408661 186.107 -0.454436 184.93 -0.375127C184.788 -0.361442 184.672 -0.381529 184.542 -0.386351C184.203 -0.411748 183.781 -0.417457 183.312 -0.402977C182.844 -0.388497 182.342 -0.354267 181.852 -0.303253C181.241 -0.442624 179.922 -0.283405 178.947 -0.269096C178.647 -0.198218 178.991 -0.210679 179.006 -0.191206C179.021 -0.171734 179.006 -0.191211 179.124 -0.202615C180.097 -0.102241 181.43 -0.0803538 182.935 -0.14003C183.214 -0.139783 183.479 -0.135211 183.729 -0.126356C184.107 -0.113825 184.533 -0.115077 184.989 -0.130056C185.487 -0.141057 185.945 -0.135831 186.34 -0.114634C186.567 -0.114979 186.759 -0.104359 186.898 -0.0837524C187.037 -0.0631451 187.119 -0.0332191 187.136 0.00324441C186.984 0.0313555 186.816 0.0570766 186.638 0.0793875C185.708 0.167482 184.78 0.203946 184.038 0.181606C182.746 0.143115 181.208 0.180676 179.834 0.167536C178.905 0.162213 177.916 0.177376 176.887 0.212742C176.887 0.212742 176.914 0.248441 176.917 0.251687C176.795 0.267144 176.667 0.279545 176.54 0.288181C176.54 0.288181 176.54 0.288181 176.528 0.271955C176.584 0.256372 176.661 0.241712 176.748 0.229673L177.054 0.20002C176.846 0.192304 176.652 0.169329 176.435 0.183367C175.979 0.209446 175.542 0.220456 175.152 0.215742C174.762 0.211028 174.427 0.190685 174.166 0.155936C173.704 0.111401 173.13 0.0911473 172.479 0.0964846C171.981 0.0916226 171.501 0.0811725 171.041 0.0651872C171.041 0.0651872 171.011 0.0262456 170.794 0.00554757C171 -0.0199806 171.215 -0.0408263 171.429 -0.0560327C172.36 -0.0940249 173.294 -0.128772 174.209 -0.154746C174.546 -0.157552 174.863 -0.1532 175.153 -0.141775C175.958 -0.128405 176.863 -0.147381 177.814 -0.197595C177.814 -0.197595 178.002 -0.215841 178.096 -0.224964C177.83 -0.31057 176.909 -0.224868 176.537 -0.282843C176.31 -0.281788 175.912 -0.274497 175.925 -0.28976C175.956 -0.310127 175.96 -0.329047 175.936 -0.345164C175.912 -0.361281 175.861 -0.374196 175.787 -0.382982C175.713 -0.391767 175.617 -0.396209 175.507 -0.395983C175.396 -0.395757 175.274 -0.390869 175.149 -0.381675C174.101 -0.331938 173.114 -0.318107 172.249 -0.341028C171.921 -0.340586 171.553 -0.325845 171.227 -0.322156C171.028 -0.317714 170.846 -0.320185 170.692 -0.329432C169.905 -0.397531 168.846 -0.402504 167.675 -0.343604C167.108 -0.322429 166.579 -0.319596 166.115 -0.335254C165.784 -0.338057 165.644 -0.289639 165.409 -0.266831L164.409 -0.21875L165.693 -0.158504C165.419 -0.020438 165.2 0.025087 164.752 0.0336885C164.098 0.0466777 163.462 0.0525463 162.846 0.051257C162.39 0.050122 162.014 0.0203882 161.397 0.0731996C161.288 0.0818137 161.183 0.0846024 161.1 0.0810961C160.378 0.0342113 159.508 0.0234509 158.55 0.0495503C158.054 -0.0382459 157.209 0.0471149 156.428 0.115893C156.175 0.049759 156.632 0.019401 156.905 -0.020951C156.251 -0.0168205 155.593 -0.0191795 154.918 -0.00952281C154.715 -0.0130382 154.483 -0.00702423 154.24 0.00804557C153.997 0.023115 153.75 0.0468269 153.519 0.077329C153.406 0.0970378 153.269 0.111871 153.138 0.118748C153.007 0.125626 152.891 0.124021 152.814 0.114267C152.464 0.0855008 151.903 0.111996 151.613 0.0634059C151.511 0.052231 151.363 0.0506702 151.199 0.0589977C151.034 0.0673259 150.861 0.085002 150.713 0.108858C150.876 0.116301 151.02 0.128023 151.144 0.143763C151.587 0.194895 151.424 0.280332 150.861 0.404542C149.997 0.397711 149.115 0.399651 148.314 0.376241C147.867 0.355227 147.32 0.361795 146.734 0.395211C146.148 0.428626 145.546 0.487562 144.996 0.565392C144.797 0.595321 144.57 0.616048 144.36 0.623462C144.151 0.630876 143.974 0.62443 143.864 0.605403C143.796 0.583397 143.775 0.555547 143.803 0.524267L144.368 0.469529C144.368 0.469529 144.346 0.44032 144.341 0.433829L143.529 0.428921C143.099 0.42875 142.651 0.437355 142.245 0.434904C141.648 0.418603 140.968 0.427689 140.244 0.461597C139.577 0.496367 138.921 0.522648 138.283 0.54021C137.665 0.558287 137.217 0.500661 136.629 0.491457C136.185 0.484521 135.695 0.491934 135.181 0.513407C134.291 0.551492 133.475 0.551563 132.806 0.513612C132.026 0.718085 131.647 0.75133 130.923 0.696079L130.583 0.680296L130.49 0.724152L130.23 0.714507C129.744 0.705917 129.257 0.697331 128.75 0.694266C128.044 0.713243 127.282 0.764295 126.538 0.842439C126.397 0.856124 126.204 0.902621 126.08 0.939023C125.956 0.975426 125.686 1.08524 125.487 1.15674C125.704 1.20892 125.944 1.25883 126.115 1.31882C126.133 1.32907 126.131 1.34129 126.11 1.3545C126.09 1.36772 126.051 1.38155 125.998 1.39489C125.944 1.40824 125.876 1.42072 125.801 1.43133C125.725 1.44195 125.644 1.4504 125.563 1.45602C125.404 1.46811 125.248 1.47618 125.101 1.47988C124.373 1.48626 123.677 1.48152 123.018 1.4657C122.778 1.44338 122.449 1.44126 122.083 1.45968C121.717 1.4781 121.335 1.516 120.999 1.56738C120.137 1.53653 119.135 1.54565 118.063 1.59408C116.93 1.56463 115.56 1.6242 114.501 1.55965C114.525 1.59211 114.416 1.64798 114.264 1.68018C114.022 1.72908 113.749 1.77439 113.456 1.81421L111.216 1.89195C111.132 1.93193 111.027 1.9724 110.903 2.01283C110.818 2.04477 110.67 2.07602 110.49 2.09996C110.31 2.1239 110.112 2.13865 109.939 2.14108C109.493 2.15293 109.12 2.12644 108.588 2.19188C109.407 2.25374 110.511 2.24553 111.703 2.16869C112.824 2.11026 113.901 2.08105 114.896 2.08216C115.224 2.08172 115.657 2.08513 115.759 2.12048C115.986 2.22039 116.581 2.20459 117.274 2.18616C117.819 2.16599 118.316 2.16825 118.726 2.19277C119.135 2.21729 119.445 2.26335 119.629 2.32718C119.676 2.38884 119.564 2.44147 119.086 2.47735L117.098 2.62123C116.805 2.60273 116.527 2.58084 116.265 2.55563C115.824 2.52216 115.28 2.51297 114.674 2.52878C114.068 2.54459 113.417 2.58499 112.773 2.64681C112.443 2.67874 112.114 2.71067 111.875 2.6955C111.665 2.67807 111.472 2.65721 111.297 2.63305C111.262 2.61687 111.248 2.59824 111.255 2.57788C111.128 2.58735 111.001 2.59965 110.879 2.61438C109.897 2.78613 109.137 2.78316 108.447 2.73861C108.26 2.72537 108.118 2.70432 107.928 2.68783C107.739 2.67134 107.672 2.64994 107.5 2.65617C106.128 2.7125 105.733 2.52436 104.577 2.53191C104.52 2.52456 104.485 2.51358 104.475 2.49996C104.465 2.48635 104.479 2.47056 104.518 2.45402C104.599 2.4391 104.694 2.42626 104.792 2.4167C104.891 2.40713 104.991 2.40114 105.082 2.39929C105.615 2.37514 106.085 2.38254 106.412 2.42023C106.644 2.43563 106.889 2.4479 107.147 2.45697L108.305 2.18452C107.183 2.20949 106.122 2.20933 105.147 2.18403C104.934 2.16982 104.574 2.1943 104.274 2.19895L102.07 2.22442C101.617 2.22653 101.231 2.18382 100.599 2.28338C100.599 2.28338 100.182 2.29943 100.071 2.28584C99.9592 2.27224 99.4657 2.18769 99.1714 2.13261C98.8296 2.14832 98.3565 2.19069 98.1436 2.17649C97.7718 2.14159 97.4499 2.09685 97.1837 2.04308L95.8525 2.11985C95.854 2.18804 95.9026 2.25219 95.9975 2.31132C96.1013 2.36836 96.0977 2.43682 95.9871 2.51111C95.8766 2.5854 95.6621 2.66341 95.3613 2.73877L94.0468 3.13789C93.8323 3.16461 93.6037 3.1826 93.3919 3.18942C93.1801 3.19623 92.9955 3.19153 92.8631 3.17596C92.2976 3.12975 91.664 3.09362 91.0985 3.0474C90.3689 3.1181 90.5564 3.23231 90.026 3.33248L88.3081 3.49898C88.046 3.65328 87.779 3.80108 88.576 3.85273C88.7344 3.86177 88.6276 3.92089 88.7723 3.94518C88.1527 4.06098 87.4716 4.09563 86.8435 4.16695C86.5959 4.21824 86.3888 4.27254 86.2323 4.32721C86.0605 4.40953 85.712 4.49362 85.2623 4.56133C84.8126 4.62903 84.2976 4.67491 83.8287 4.68906C83.042 4.73241 82.2365 4.79751 81.4482 4.88145C81.179 4.91064 80.9022 4.9319 80.6367 4.94382C80.3713 4.95573 80.1231 4.958 79.909 4.9505C79.1464 4.93728 78.5009 4.89183 78.0145 4.81711C77.5335 4.75369 76.8852 4.72313 76.1283 4.72819C74.8339 4.85364 74.5729 5.04266 73.7895 5.20916L75.1426 5.22782C75.1917 5.29273 75.1021 5.37457 75.6567 5.37307C76.2114 5.37157 75.93 5.43368 75.7501 5.4964C75.6868 5.52794 75.5631 5.5604 75.4 5.58826C75.237 5.61612 75.0447 5.63768 74.8555 5.64929L73.7037 5.72957C73.2953 5.76012 72.9 5.77316 72.5613 5.76727C72.2226 5.76138 71.9536 5.73678 71.7838 5.69617C71.5889 5.65761 71.3198 5.63153 70.9932 5.61952C70.5769 5.58806 70.2345 5.54128 69.9788 5.48094L68.3528 5.56885C68.2836 5.50822 68.0602 5.4657 67.7203 5.44849C67.3805 5.43129 66.9451 5.44044 66.4878 5.47441L65.3918 5.52837C64.1733 5.58724 63.906 5.56786 63.5492 5.3969L65.0105 5.09155C64.798 5.01112 64.5929 4.94042 64.3878 4.86973C64.7519 4.76913 65.2376 4.67397 65.7956 4.59394C66.3164 4.50794 66.8519 4.42464 67.4002 4.34437C67.9949 4.26235 68.6229 4.19103 69.3613 4.09857C69.4902 4.06866 69.6774 4.01567 69.9166 3.96462C70.156 3.91501 70.4059 3.86638 70.6652 3.81892C70.616 3.75401 70.5718 3.6956 70.6663 3.62025C70.2115 3.64429 69.7418 3.68634 69.2993 3.7426C68.8568 3.79887 68.4555 3.86758 68.1316 3.94254C68.0772 3.95584 68.0104 3.96832 67.9358 3.97916C67.8612 3.99 67.7805 3.99893 67.6992 4.00535C66.9004 4.05141 66.5186 4.14763 66.128 4.26562C65.865 4.32593 65.5259 4.37949 65.1579 4.41886C64.4518 4.48729 63.7605 4.57519 63.0854 4.65107C62.8788 4.67636 62.664 4.69717 62.45 4.71265C61.7443 4.76188 61.0341 4.83071 60.3554 4.91565C60.134 4.93724 59.9214 4.96581 59.7356 4.99897C59.5497 5.03213 59.3961 5.06892 59.2873 5.10626C59.4553 5.14718 59.546 5.19883 59.5539 5.2581C59.5833 5.29704 59.0877 5.37643 58.8534 5.43398C58.6191 5.49152 59.0786 5.46441 59.2345 5.47019C59.8745 5.48133 59.9932 5.50466 59.61 5.63237C59.482 5.67253 59.397 5.71272 59.3603 5.75042C59.3237 5.78813 59.3362 5.82256 59.397 5.85158C59.488 5.97166 59.7647 6.07025 59.9547 6.1877C59.6596 6.26506 59.1665 6.34769 59.1128 6.44347C59.0869 6.46472 59.0323 6.48724 58.953 6.50939C58.8737 6.53153 58.7715 6.55276 58.654 6.57154C58.3442 6.61208 58.0625 6.66056 57.8308 6.71322C57.5991 6.76589 57.4235 6.82132 57.3177 6.87523C57.2831 6.89753 57.1996 6.92118 57.0837 6.94145C56.9679 6.96173 56.8283 6.97712 56.6932 6.98453C56.5317 6.99364 56.387 6.99244 56.2891 6.98118C56.1913 6.96992 56.1477 6.94944 56.1674 6.92401C56.1635 6.87623 56.1848 6.82641 56.2313 6.77499C56.2043 6.73929 56.1773 6.70359 56.2841 6.64447C55.8017 6.66604 55.2953 6.70928 54.8198 6.76949C54.3443 6.8297 53.918 6.90457 53.5872 6.98597C53.2215 7.07018 52.8842 7.15861 52.4789 7.25711C52.5624 7.36746 52.5624 7.36746 51.6997 7.56254L47.1237 7.65768L46.1858 7.7869C45.3112 7.89953 45.1032 7.89182 44.5539 7.83358L44.1841 7.77885C43.4075 7.85411 42.5131 7.94079 42.0274 7.79975C41.8697 7.89168 41.7667 7.92256 41.8026 7.9365C42.0344 8.07216 42.4373 8.18727 42.9953 8.27726C43.1376 8.29831 43.2377 8.33041 43.4035 8.34918C43.938 8.45511 44.062 8.61881 43.75 8.80678C43.5952 8.88996 43.3703 8.97514 43.0826 9.05958C43.5037 9.17675 44.0615 9.27383 44.7411 9.34823C45.3179 9.40578 45.7928 9.48285 46.1524 9.57723C46.4752 9.6724 46.9586 9.74393 47.5749 9.78773C47.8875 9.80635 48.1156 9.8431 48.2366 9.8943C48.2725 10.0329 48.1898 10.1813 47.9903 10.3362C47.9527 10.3833 47.8459 10.4343 47.6783 10.4849C47.5107 10.5356 47.2869 10.5847 47.0243 10.6284C47.0243 10.6284 46.8978 10.6616 46.8371 10.6814C46.7864 10.8492 46.976 10.9972 47.393 11.1152C47.4613 11.1487 47.6011 11.1729 47.7974 11.1852C47.9936 11.1975 48.2389 11.1974 48.5067 11.1849C49.0726 11.1649 49.6012 11.1625 50.1485 11.1512C50.7382 11.1353 51.2576 11.1479 51.6522 11.1875C52.0467 11.2271 52.3018 11.2923 52.3905 11.3764C52.3962 11.4002 52.4135 11.4229 52.4421 11.4445C52.4587 11.4556 52.4678 11.4676 52.4691 11.4802L51.2123 11.7553L52.6341 11.8648C52.7177 11.9752 52.0352 12.0413 51.693 12.1233L51.9045 12.169C52.1767 12.1948 52.5434 12.1454 52.8753 12.1167L53.2049 12.0847L53.2442 12.1367C53.4493 12.2074 54.1974 12.1279 54.4893 12.1797C54.7812 12.2315 54.5729 12.2901 54.1356 12.3464C53.8315 12.3882 53.5051 12.4216 53.1808 12.444C52.8564 12.4664 52.5426 12.4772 52.263 12.4756C52.0961 12.4701 51.9576 12.4574 51.8559 12.4384C51.2658 12.3576 50.6138 12.288 49.9048 12.2304C49.3613 12.1786 48.6807 12.1566 47.9108 12.1658C47.6849 12.1619 47.4124 12.1742 47.1413 12.2005C46.8701 12.2268 46.6177 12.2654 46.4282 12.3095L46.0295 12.3168C46.0295 12.3168 45.8114 12.3623 45.8423 12.3698C45.9941 12.5047 45.8177 12.6696 45.3395 12.8401L45.7554 12.8555C46.3497 12.8397 45.9728 12.9424 46.0617 12.993C46.4839 12.9834 47.0325 12.9407 47.2327 13.0049L47.5323 13.0003L47.4147 13.0117L47.2724 12.9906L46.7135 13.0866C46.9784 13.1027 47.1701 13.1225 47.4041 13.1312C47.5333 13.1387 47.6361 13.152 47.7065 13.1704C47.7768 13.1887 47.8131 13.2116 47.8133 13.2378C47.8126 13.2781 47.8823 13.312 48.0156 13.3362C48.149 13.3605 48.3416 13.3744 48.5751 13.3765C48.8536 13.3773 49.0131 13.4211 49.1764 13.4366L48.4668 13.7005C48.4668 13.7005 48.8198 13.6663 48.6277 13.7128L48.6031 13.6803L48.1732 13.7464C47.8633 13.8043 47.6467 13.8183 47.4637 13.7768C47.2807 13.7353 47.3224 13.7905 47.2346 13.7746C47.2666 13.8168 47.4657 13.8463 47.6364 13.8715C47.8338 13.8914 48.0565 13.906 48.301 13.9151C47.8605 14.1007 47.8394 14.1062 48.4829 14.1553C49.1263 14.2044 48.9043 14.2782 49.4428 14.2887C49.9812 14.2992 49.369 14.4247 49.0086 14.4492C48.7414 14.4653 48.469 14.4904 48.2101 14.5227C47.9511 14.555 47.7117 14.5938 47.5084 14.6364L47.6165 14.7792C47.775 14.7674 47.9338 14.752 48.0873 14.7336C48.6089 14.6552 49.0834 14.5813 49.5474 14.6269L49.3264 14.7354L50.946 14.6725C50.9041 14.7538 50.6573 14.8465 50.2575 14.9308C50.3177 14.9772 50.3547 15.026 50.3681 15.0769C50.3952 15.1126 50.555 15.0901 50.659 15.094C51.0299 15.1 51.3343 15.1241 51.5454 15.1644C51.7565 15.2047 51.8679 15.2599 51.8697 15.325C51.9115 15.3802 51.3413 15.4947 50.9848 15.4909C50.0947 15.5019 49.1321 15.5443 48.1492 15.6159C47.5499 15.6252 47.4653 15.4801 46.4794 15.5792C46.4598 15.6462 46.5861 15.7004 46.8391 15.7337C47.0922 15.767 47.4583 15.7775 47.8822 15.7637C47.6412 15.9125 46.3065 15.9513 46.2474 16.1068C46.5798 16.0958 46.9352 16.07 47.2785 16.0318C47.6217 15.9936 47.941 15.9445 48.2046 15.8892C48.2615 15.8756 48.3329 15.8631 48.4123 15.8527C48.4917 15.8424 48.5765 15.8346 48.6587 15.8301C48.7409 15.8256 48.818 15.8246 48.8828 15.827C48.9476 15.8295 48.998 15.8353 49.0294 15.8441C48.8446 15.9004 48.6412 15.9654 48.4094 16.0262C48.1775 16.0869 48.1217 16.1133 47.9545 16.126C46.7072 16.2469 46.1142 16.4646 45.0351 16.6075C44.7527 16.6349 44.7176 16.7219 44.9627 16.712C45.196 16.7022 45.4071 16.7035 45.5726 16.7158C45.738 16.728 45.8512 16.7508 45.8995 16.7815C46.0805 16.8173 46.3059 16.8458 46.57 16.8663C45.4634 17.0897 44.1439 17.2871 42.7354 17.44C42.4686 17.4702 42.1904 17.4886 41.9415 17.4926C41.1553 17.4928 40.321 17.5105 39.4554 17.5454C39.1484 17.5549 38.8647 17.554 38.6198 17.5428C37.8165 17.5161 37.1786 17.5745 36.5958 17.7389L35.6312 17.9996C35.6632 18.0418 35.8251 18.0888 35.9498 18.1534L35.1963 18.2926L29.4465 17.972L28.2922 18.2824L26.6371 18.2652C26.5102 18.2741 26.3828 18.2865 26.2606 18.3016C25.9259 18.3933 25.6641 18.4814 25.3009 18.5688C24.9377 18.6563 24.289 18.6669 23.8366 18.77C23.3841 18.8731 22.931 18.8752 22.3711 18.9364C22.3184 19.0162 22.3728 19.088 22.5308 19.1474C22.5825 19.2155 22.867 19.2576 22.9162 19.3225C22.9107 19.3881 23.0164 19.4438 23.2237 19.4845C23.431 19.5253 23.7334 19.5498 24.1033 19.5558C25.1392 19.6955 26.3884 19.795 27.8131 19.8512C27.9383 19.8553 28.042 19.8647 28.118 19.8789C28.1939 19.8931 28.2404 19.9118 28.2546 19.9338C28.2526 19.9975 28.3476 20.0525 28.5327 20.0948C28.7177 20.1372 28.9881 20.1658 29.3241 20.1785C29.4136 20.1811 29.4811 20.1891 29.5183 20.2015C29.6457 20.2095 29.7386 20.2249 29.7878 20.2461C29.8371 20.2672 29.8411 20.2936 29.7995 20.3225C29.7578 20.3514 29.6721 20.3819 29.5503 20.411C29.4286 20.4402 29.275 20.467 29.1044 20.489C28.8571 20.5243 28.6045 20.558 28.3475 20.5902C28.3623 20.6097 28.6172 20.6128 28.58 20.6304C28.4793 20.6864 28.456 20.7388 28.5119 20.7836C28.5677 20.8284 28.7012 20.8642 28.9017 20.8883L27.5275 21.342C26.6935 21.4048 25.8752 21.5114 25.2282 21.6415C25.2273 21.6628 25.2646 21.6806 25.3362 21.6933C25.4078 21.7059 25.5113 21.7128 25.6363 21.7134C25.9718 21.7227 26.2886 21.7408 26.65 21.751C26.871 21.7587 27.0548 21.7755 27.1909 21.8006C27.327 21.8257 27.4126 21.8585 27.4427 21.8971L26.6359 22.0659C26.8944 22.107 27.0862 22.1268 27.2569 22.152C27.1602 22.2051 26.9938 22.2599 26.7707 22.3124C26.5475 22.3648 26.2737 22.4134 25.9702 22.4544C25.8888 22.4629 25.8058 22.469 25.7261 22.4726C25.6463 22.4761 25.5714 22.477 25.5058 22.475C24.881 22.4171 24.15 22.5193 23.4401 22.616C22.7303 22.7127 22.3449 22.7709 21.8208 22.8461L20.818 22.8562C20.5642 22.8918 20.3377 22.9336 20.1566 22.9784C19.9756 23.0232 19.8451 23.0696 19.7754 23.114C19.8295 23.1854 20.3051 23.1463 20.5886 23.1536C21.261 23.1981 22.1452 23.1886 23.0944 23.1268C23.3297 23.104 23.571 23.1224 23.8 23.1246C24.294 23.1335 24.7688 23.1479 25.2222 23.1679C25.5207 23.1865 25.7997 23.2095 26.0574 23.2367C26.1262 23.3276 25.0426 23.3978 25.6577 23.4427C25.4458 23.4632 25.3665 23.4918 25.2576 23.4815C24.5599 23.5405 23.8725 23.5697 23.2752 23.5656C22.1287 23.5531 20.8269 23.5945 19.4764 23.6864C18.0186 23.7817 16.6202 23.8217 15.3966 23.8031C14.9306 23.8021 14.4097 23.8216 13.8736 23.8602C13.2405 23.9137 12.6119 23.9473 12.0285 23.9589C11.8353 23.9593 11.6201 23.9684 11.4003 23.9855C11.1806 24.0025 10.9626 24.027 10.7639 24.0571C10.7811 24.0798 10.9705 24.0963 10.9283 24.1073C10.3245 24.2773 10.0796 24.4543 9.15021 24.628C8.51479 24.6896 7.78521 24.7603 7.3697 24.6786C6.95419 24.597 7.10313 24.5268 7.93 24.3178C7.75055 24.3148 7.53444 24.3245 7.31938 24.3454C7.10429 24.3662 6.90396 24.3968 6.7533 24.4318L6.03814 24.5882L5.39361 24.7378C5.45014 24.8124 5.49438 24.8708 5.54109 24.9325C5.61485 24.998 5.53389 25.0777 5.30954 25.1605C5.17419 25.2057 5.05638 25.2508 4.95715 25.2957C4.55423 25.4748 4.43756 25.6441 4.62021 25.7847C4.9702 25.9867 5.45759 26.1726 6.07671 26.3402C6.73068 26.5033 7.08858 26.709 7.62736 26.8867C7.90218 26.9676 8.23595 27.0401 8.62518 27.1035C9.36346 27.2444 10.1724 27.3785 10.9131 27.5227C11.6538 27.6669 12.4902 27.7705 13.3128 27.8893C14.5376 28.0304 15.8615 28.1522 17.2772 28.2541C18.1532 28.3434 19.0527 28.4304 19.863 28.533C20.8201 28.6487 21.9444 28.7318 23.2079 28.7801C24.3239 28.8381 25.321 28.9238 26.1801 29.0355C26.2702 29.0476 26.3413 29.063 26.3915 29.0812C26.5462 29.1952 26.9797 29.2756 27.6258 29.31C27.5865 29.3433 27.5363 29.3773 27.4754 29.4116C27.3858 29.4526 27.3671 29.4909 27.4219 29.5216C27.4767 29.5523 27.6023 29.574 27.7827 29.5839C28.2995 29.6121 28.729 29.6601 29.0521 29.7256C29.1707 29.7421 29.2443 29.766 29.2666 29.7954C29.2889 29.8248 29.2591 29.8588 29.1799 29.8944C29.1097 29.9311 29.1046 29.9648 29.1651 29.9912C29.2257 30.0177 29.3491 30.0356 29.5195 30.0426C29.957 30.0773 30.4253 30.1053 30.9216 30.1262C31.9778 30.1724 33.2062 30.1719 34.5328 30.1246C34.674 30.1109 34.8163 30.132 34.981 30.116C35.9191 30.063 36.7904 30.0548 37.4893 30.0924C38.3087 30.107 39.1654 30.1041 40.0295 30.1109C41.2778 30.1063 42.4294 30.1342 43.452 30.1938C44.621 30.1362 45.2778 30.2363 46.2645 30.2382C47.1754 30.2485 48.0388 30.2731 48.8465 30.3119C50.1486 30.3634 51.4457 30.4084 52.7291 30.4686C53.9331 30.4974 55.0417 30.5523 56.0361 30.6324C56.4172 30.6686 57.107 30.6122 57.3665 30.6881C57.6261 30.7639 58.1499 30.755 58.5731 30.7801L59.9085 30.8423C60.1382 30.8571 60.3907 30.8665 60.6623 30.8703C61.9039 30.8754 62.7638 30.9767 63.9162 30.9973L64.0339 30.9859C66.0801 31.1365 68.4218 31.2192 70.9899 31.2315C72.4901 31.2777 74.1304 31.2754 75.7223 31.3093C76.102 31.377 76.9987 31.2936 77.475 31.3554C77.9512 31.4172 78.729 31.3767 79.3429 31.3869C79.9569 31.397 80.5571 31.4225 81.2133 31.4216C81.7831 31.4219 82.2642 31.4495 82.613 31.5019C83.4089 31.5886 84.3793 31.6395 85.4805 31.6525C86.9375 31.675 88.315 31.7261 89.797 31.7149C89.7758 31.7781 89.8667 31.8318 90.0603 31.8706C90.254 31.9093 90.5434 31.9318 90.8988 31.9356C92.4833 31.9597 93.9202 32.0224 95.5258 32.041L95.9553 32.0412L100.757 32.0774C102.051 32.0845 103.297 32.096 104.617 32.104C105.111 32.0561 105.123 32.1385 105.465 32.1228C105.561 32.0822 105.673 32.0643 105.842 32.0863L105.878 32.135L111.359 32.1996C113.504 32.2468 115.761 32.261 118.11 32.242C118.667 32.2467 119.188 32.2629 119.662 32.2901C120.102 32.3 120.561 32.3044 121.036 32.3032C121.679 32.291 122.307 32.2848 122.917 32.2847C124.523 32.3033 126.207 32.2933 127.965 32.2797C129.723 32.266 131.055 32.2902 132.62 32.2884C133.68 32.2867 134.735 32.2785 135.832 32.2593C136.355 32.2503 137.001 32.2017 137.543 32.184C138.085 32.1663 138.262 32.1666 138.334 32.1944C138.57 32.2726 139.163 32.2221 139.637 32.2144C140.562 32.2014 140.694 32.1748 140.945 31.9728L139.81 31.9086C139.532 31.8878 139.182 31.8842 138.794 31.898C138.407 31.9118 137.994 31.9425 137.596 31.9873C137.439 32.0065 137.276 32.0216 137.115 32.0319C136.953 32.0421 136.797 32.0473 136.656 32.047C135.511 32.0361 134.382 32.0131 133.282 31.9943L133.121 31.9821L133.111 31.8019C133.256 31.7842 133.407 31.7696 133.558 31.7586L139.077 31.6417C140.344 31.613 141.659 31.5482 142.902 31.5218C144.145 31.4954 144.815 31.4792 145.78 31.4519C146.187 31.4364 146.602 31.416 147.022 31.3908C146.997 31.3734 146.983 31.355 146.98 31.3356C146.958 31.3064 146.928 31.2675 147.107 31.2362C147.301 31.1921 147.561 31.1545 147.835 31.1308C148.092 31.1151 148.342 31.1063 148.573 31.1046C149.692 31.0895 150.971 30.9943 152.136 30.8394L152.543 30.9428C154.292 30.8847 156.068 30.8275 157.896 30.7724C158.262 30.7573 158.646 30.7284 159.019 30.6879C159.419 30.6491 159.787 30.5681 160.208 30.5238C160.624 30.492 161.038 30.4671 161.441 30.4497C161.331 30.4231 161.188 30.4018 161.014 30.3866C160.843 30.3812 160.718 30.3646 160.658 30.3391C160.597 30.3136 160.605 30.2806 160.679 30.2448C160.809 30.1834 160.867 30.1256 160.583 30.1182C160.321 30.1042 160.134 30.0739 160.043 30.0309C159.952 29.9878 159.962 29.9338 160.071 29.8753C160.119 29.841 160.152 29.8075 160.172 29.7749L160.289 29.7635C160.677 29.6423 161.453 29.5985 162.009 29.4993C162.272 29.4705 162.543 29.454 162.782 29.4523C163.397 29.431 163.996 29.4217 164.633 29.3948C164.937 29.3825 165.255 29.3599 165.568 29.3286C166.015 29.2852 166.062 29.2807 166.322 29.1231C165.919 29.1259 165.599 29.1024 165.417 29.0565C165.235 29.0107 165.202 28.9453 165.323 28.8716C165.655 28.7104 166.007 28.5405 167.512 28.4261C167.021 28.4204 166.549 28.4092 166.097 28.3925C165.965 28.3889 165.867 28.377 165.815 28.3585C165.762 28.3401 165.759 28.3158 165.805 28.289C165.85 28.2623 165.943 28.2342 166.07 28.2087C166.197 28.1832 166.353 28.1614 166.517 28.1463C167.311 28.0551 168.139 27.9941 168.909 27.9701C169.558 27.9595 170.144 27.9654 170.901 27.9652L171.796 27.8785C171.781 27.859 171.912 27.8324 171.879 27.8216C171.652 27.7217 171.401 27.6241 171.143 27.5168C171.555 27.4588 171.912 27.3888 172.173 27.3148C172.434 27.2408 172.589 27.1658 172.619 27.0984C172.642 27.0781 172.636 27.0596 172.602 27.0441C172.569 27.0287 172.508 27.0168 172.426 27.0092C172.19 26.9962 172.008 26.9713 171.894 26.9364C171.78 26.9016 171.737 26.8577 171.768 26.8082L172.463 26.6258C174.557 26.4957 176.614 26.4027 178.594 26.3487L180.382 26.3078C180.598 26.259 180.531 26.2376 180.328 26.2364C180.125 26.2351 179.554 26.2487 179.156 26.2559C178.811 26.2655 178.506 26.2592 178.268 26.2377C178.03 26.2162 177.869 26.1801 177.799 26.1331L178.4 25.9251C178.37 25.8861 178.329 25.831 178.003 25.8347C177.78 25.8302 177.616 25.8106 177.538 25.779C177.459 25.7475 177.469 25.7058 177.568 25.6608C177.583 25.6283 177.561 25.5986 177.502 25.5732C177.02 25.5711 176.541 25.5722 176.104 25.5623C175.901 25.559 175.729 25.547 175.6 25.527C175.472 25.507 175.39 25.4795 175.359 25.4464C175.344 25.4141 175.382 25.3773 175.472 25.339C175.561 25.3006 175.699 25.2619 175.874 25.2258C176.559 25.1811 177.186 25.1806 177.616 25.2242C177.77 25.2584 178.016 25.277 178.324 25.2777C178.631 25.2784 178.984 25.2611 179.337 25.2281C179.741 25.19 180.144 25.1733 180.474 25.1809C180.804 25.1885 181.039 25.22 181.137 25.2697C181.552 25.2504 181.919 25.2356 182.282 25.2144C182.71 25.1876 183.115 25.1797 183.452 25.1916C183.992 25.1999 184.574 25.195 185.184 25.177C186.944 25.1319 188.706 25.09 190.409 25.0712C190.86 25.0659 191.25 25.0803 191.695 25.0685C192.141 25.0566 192.494 25.0887 193.051 25.0242C193.157 25.0142 193.264 25.0077 193.363 25.0054C193.462 25.003 193.551 25.0048 193.622 25.0107C194.601 25.0617 195.749 25.0689 196.998 25.0318C198.709 25.0228 200.483 24.9972 202.196 24.9913C202.699 24.9963 203.174 25.0098 203.616 25.0314C203.953 25.0445 204.305 25.0534 204.672 25.058C204.953 25.0621 205.222 25.05 205.174 25.1208C205.127 25.1916 205.548 25.1473 205.791 25.1342C206.624 25.0999 207.477 25.0534 208.338 24.9953C209.186 24.9322 210.018 24.8954 210.782 24.8873C211.334 24.8826 211.904 24.9005 212.614 24.8039C212.587 24.7682 212.56 24.7325 212.405 24.6952C212.984 24.5926 213.644 24.5044 214.332 24.4377C215.02 24.3711 215.714 24.328 216.359 24.312L217.247 24.1179C217.466 24.0951 217.69 24.0785 217.904 24.0691C218.118 24.0597 218.319 24.0577 218.494 24.0632C218.63 24.066 218.795 24.0588 218.959 24.0429C219.123 24.027 219.276 24.0034 219.389 23.9765C219.557 23.9424 219.764 23.9129 219.981 23.8918C220.199 23.8707 220.419 23.8589 220.612 23.8579C221.223 23.8368 221.875 23.7881 222.501 23.7167C222.664 23.6748 222.766 23.6316 222.794 23.5923C222.823 23.553 222.777 23.5194 222.662 23.4956C222.477 23.4535 222.373 23.3999 222.357 23.338C222.34 23.2762 222.412 23.2073 222.566 23.1356C222.645 23.0916 222.672 23.0499 222.644 23.0131C222.616 22.9763 222.535 22.9451 222.404 22.9214C221.917 22.8118 222.047 22.7504 222.844 22.5687C222.974 22.5384 223.13 22.5101 223.303 22.4855C223.475 22.461 223.661 22.4408 223.848 22.4261C224.286 22.3965 224.718 22.3745 225.137 22.3604C225.372 22.3376 225.614 22.356 225.885 22.3472C227.241 22.3029 227.439 22.2314 227.878 22.0773L228.198 21.9662C228.792 21.8762 229.441 21.8014 230.099 21.7473C230.757 21.6932 231.407 21.661 232.003 21.6532C232.24 21.6526 232.512 21.6372 232.778 21.6094C233.644 21.5244 234.521 21.4655 235.35 21.4368C235.867 21.4206 236.425 21.3787 236.955 21.3161C237.486 21.2536 237.968 21.173 238.342 21.0841C238.678 21.004 239.118 20.9321 239.601 20.8785C240.166 20.8237 240.218 20.7595 239.903 20.7099C239.587 20.6603 239.059 20.5966 238.59 20.5445C238.427 20.5268 238.326 20.498 238.298 20.4613C238.27 20.4246 238.317 20.3815 238.433 20.3368C238.507 20.2602 238.52 20.1875 238.471 20.1206C238.445 20.0927 238.463 20.0608 238.524 20.027C238.585 19.9931 238.688 19.9581 238.825 19.9244C238.962 19.8906 239.131 19.8588 239.319 19.8312C239.508 19.8036 239.713 19.7808 239.919 19.7642C240.79 19.6799 241.637 19.5977 242.525 19.5361C242.897 19.507 243.269 19.471 243.631 19.4289C244.373 19.3247 245.166 19.2384 245.965 19.1748C246.344 19.1464 246.715 19.0967 246.997 19.0365C247.886 18.8743 248.706 18.7037 249.441 18.5279C249.618 18.4733 249.85 18.4201 250.122 18.3716C250.394 18.3231 250.7 18.2803 251.021 18.2459C251.28 18.2208 251.491 18.1655 251.69 18.1288C251.835 18.0436 251.851 17.9649 251.735 17.8999C251.62 17.8349 251.377 17.7859 251.03 17.7573C250.701 17.723 250.393 17.6832 250.108 17.6411C249.765 17.607 249.358 17.5866 248.9 17.5805C248.359 17.5622 247.958 17.51 247.751 17.4306C249.234 17.2869 250.644 17.0806 251.943 17.1288L252.931 16.9983C252.891 16.9463 252.857 16.9009 252.825 16.8587C252.59 16.7819 252.517 16.6851 252.611 16.5764C252.689 16.5238 252.682 16.4759 252.591 16.4377C252.5 16.3994 252.328 16.372 252.092 16.3584C250.698 16.2183 249.085 16.1238 247.778 15.9649C247.368 15.9351 246.888 15.9215 246.358 15.9248C245.845 15.9153 245.867 15.8435 246.457 15.755C246.788 15.7087 247.125 15.6644 247.468 15.6222C248.978 15.6152 249.593 15.8272 251.317 15.7682L252.116 15.4887C252.332 15.4844 252.541 15.4827 252.743 15.4836L255.633 15.5972C255.874 15.6029 256.062 15.6223 256.174 15.6532C256.287 15.6842 256.321 15.7254 256.271 15.7722C256.252 15.8295 256.291 15.8821 256.389 15.928C256.452 15.9602 256.412 16.0029 256.277 16.0469C255.973 16.146 256.363 16.1605 256.609 16.1854C256.672 16.1878 256.745 16.1876 256.823 16.1846C256.901 16.1817 256.983 16.1761 257.064 16.1683C257.145 16.1604 257.223 16.1504 257.295 16.1389C257.366 16.1273 257.429 16.1145 257.48 16.101C257.914 16.0067 258.293 15.9072 258.72 15.8032C258.417 15.7036 258.773 15.5402 258.301 15.4501C258.248 15.4321 258.227 15.4102 258.239 15.3857C258.251 15.3612 258.295 15.3346 258.37 15.3076C258.562 15.2379 258.654 15.1699 258.635 15.1105C258.617 15.0511 258.489 15.0024 258.265 14.9694L258.238 14.9337C258.829 14.8137 258.673 14.7069 258.905 14.5799L259.474 14.4969C260.888 14.2971 260.891 14.3003 262.109 14.3077C262.355 14.2316 262.043 14.2201 261.809 14.2114L259.849 14.1261C258.568 14.0691 257.25 14.0296 255.819 14.0081C254.388 13.9865 252.793 13.9147 251.314 13.8629C251.239 13.8589 251.182 13.851 251.147 13.8398C251.112 13.8287 251.101 13.8146 251.114 13.7987C251.172 13.7816 251.249 13.7651 251.339 13.7504C251.428 13.7357 251.528 13.7232 251.63 13.7138C252.101 13.6682 252.584 13.6388 253.086 13.6007L254.021 13.5344L254.308 13.4473C254.496 13.3943 254.623 13.3297 254.872 13.2916C255.078 13.2632 255.3 13.2417 255.518 13.2292C255.735 13.2167 255.938 13.2138 256.107 13.2207C256.575 13.2381 256.998 13.2633 257.445 13.2861C257.892 13.309 258.138 13.3339 258.525 13.3452C259.313 13.3503 260.073 13.3638 260.804 13.3856C261.42 13.4372 261.989 13.4984 262.509 13.5687C262.833 13.5965 263.137 13.6298 263.69 13.5936C263.953 13.5607 264.179 13.5176 264.33 13.4718C264.48 13.426 264.544 13.3805 264.511 13.3433C264.481 13.3142 264.397 13.2912 264.267 13.2764C264.136 13.2617 263.963 13.2556 263.765 13.2589C263.209 13.2535 262.695 13.2355 262.234 13.2052C261.591 13.1503 260.809 13.1266 259.933 13.1356C259.636 13.1435 259.437 13.114 259.177 13.1044C258.917 13.0947 258.697 13.0708 258.407 13.0884C257.506 13.1339 257.075 13.0642 256.535 13.019C256.353 12.9989 256.24 12.9665 256.208 12.9253C256.177 12.884 256.229 12.8356 256.358 12.7853C256.607 12.6851 256.912 12.5844 257.267 12.4847C257.45 12.4357 257.685 12.3891 257.952 12.3487C258.22 12.3083 258.513 12.2751 258.809 12.2517C258.986 12.1904 259.08 12.13 259.084 12.0762C259.087 12.0223 258.999 11.9767 258.828 11.9433C258.391 11.8672 258.004 11.7897 257.026 11.8323C256.566 11.8485 256.133 11.8516 255.745 11.8415C254.883 11.8276 253.889 11.858 252.856 11.9299C252.589 11.9483 252.326 11.9608 252.076 11.9672C250.29 12.0113 248.589 12.0333 246.883 12.0489C245.98 12.0563 245.068 12.0541 244.125 12.0758C241.912 12.1231 239.898 12.0988 237.763 12.1142C236.644 12.1221 235.643 12.0903 234.812 12.0204C234.65 11.997 234.511 11.9697 234.396 11.9388C234.947 11.8576 235.552 11.7934 236.154 11.7522C236.755 11.711 237.332 11.6942 237.831 11.7035C238.105 11.7262 238.459 11.7304 238.853 11.7155C239.248 11.7006 239.668 11.6673 240.066 11.6193L238.908 11.5921C238.141 11.5794 237.355 11.5754 236.608 11.5572C235.423 11.5258 234.324 11.4756 233.096 11.4552C232.104 11.4365 231.217 11.3887 230.462 11.3133C229.916 11.2583 229.293 11.2193 228.606 11.1971C228.117 11.1853 228.117 11.1853 227.804 11.0728C228.052 11 228.373 10.9898 228.675 10.9884C230.486 10.9426 232.209 10.9345 233.81 10.9644C234.618 10.9671 235.334 10.998 235.925 11.0556C236.07 11.0799 236.44 11.0684 236.737 11.0605C237.669 11.0485 238.559 11.0519 239.398 11.0709C240.557 11.1024 241.848 11.095 243.221 11.0487C243.481 10.9921 243.181 10.9968 243.167 10.9773C242.103 10.941 241.061 10.8992 239.977 10.8684C239.681 10.8574 239.364 10.852 239.03 10.8522C237.784 10.8713 236.746 10.8184 236.061 10.701C236.027 10.6556 235.576 10.6609 235.377 10.6315C235.279 10.606 235.214 10.5759 235.183 10.5423C235.473 10.4584 235.801 10.458 236.054 10.4579C236.786 10.4672 237.491 10.485 238.165 10.511C238.792 10.5358 239.485 10.5424 240.226 10.5307C240.774 10.5195 241.242 10.5368 241.794 10.5321C242.093 10.5221 242.403 10.5061 242.718 10.4844C242.368 10.4259 241.892 10.39 241.324 10.379C240.893 10.3441 240.355 10.3336 240.286 10.2427C240.49 10.1777 240.716 10.1767 240.898 10.1834C241.277 10.1832 241.643 10.1873 241.994 10.1957C242.738 10.2142 243.544 10.2144 244.394 10.1965C244.842 10.1897 245.267 10.1918 245.662 10.2025C246.557 10.2168 247.414 10.2486 248.234 10.2633C249.913 10.2782 251.444 10.3319 253.056 10.3602C253.415 10.3672 253.737 10.3918 254.21 10.3494C254.683 10.307 254.705 10.3015 254.76 10.2752C254.893 10.2313 254.933 10.1887 254.872 10.1563C254.779 10.1261 254.596 10.1092 254.357 10.1088C252.915 10.0607 251.547 9.99308 250.262 9.90642C249.697 9.88907 249.202 9.85366 248.794 9.80144C248.47 9.76547 248.086 9.74166 247.654 9.73075C247.025 9.70475 246.37 9.6857 245.691 9.67367C245.375 9.66721 245.106 9.64795 244.9 9.61703C244.695 9.5861 244.556 9.54414 244.493 9.49361L245.326 9.32581C245.457 9.31799 245.587 9.31122 245.715 9.30554L252.627 9.42641L253.312 9.42974C254.062 9.41973 254.245 9.39499 254.957 9.20061C253.333 9.15487 252.056 9.02158 251.254 8.81401C251.447 8.79168 251.644 8.77252 251.842 8.75699C253.14 8.70789 254.367 8.69484 255.476 8.71835C256.134 8.72071 256.812 8.7143 257.491 8.71113C257.293 8.61544 256.531 8.64395 256.035 8.62238C254.849 8.58862 253.8 8.51889 252.922 8.41541C252.62 8.37507 252.241 8.34927 251.804 8.3392C251.366 8.33573 251 8.31131 250.739 8.26807C250.477 8.22482 250.327 8.16406 250.302 8.09107C250.261 8.02498 250.172 7.96357 250.037 7.90775C250.276 7.82855 250.656 7.75271 251.105 7.69445C251.553 7.6362 252.041 7.59953 252.475 7.59134C253.402 7.55873 254.364 7.50534 255.336 7.43254C255.82 7.39582 256.294 7.37475 256.729 7.37068C257.112 7.36756 257.547 7.34104 257.969 7.29517C258.39 7.2493 258.774 7.1866 259.063 7.11664C259.452 7.03014 259.815 6.94268 260.178 6.85523C260.541 6.76777 260.963 6.65725 261.387 6.54997C261.761 6.5332 262.125 6.52241 262.474 6.51777C262.746 6.5217 263.063 6.51 263.388 6.48406C263.713 6.45812 264.032 6.41901 264.308 6.37135C264.146 6.32433 263.963 6.28285 263.77 6.22838C264.035 6.15645 264.227 6.08311 264.335 6.0128C264.442 5.9425 264.463 5.87671 264.395 5.81945C264.356 5.76752 264.644 5.68042 264.743 5.61156C264.871 5.5522 264.895 5.4968 264.812 5.45263C264.729 5.40846 264.543 5.37758 264.278 5.36404C263.949 5.33904 263.682 5.3014 263.486 5.25265C263.422 5.24 263.389 5.22266 263.391 5.20224C263.392 5.18182 263.429 5.15896 263.497 5.13575C263.565 5.11254 263.662 5.08972 263.779 5.06938C263.896 5.04904 264.03 5.03183 264.168 5.01932C264.592 4.98385 265.012 4.96086 265.405 4.95168C266.083 4.93477 266.732 4.92415 267.352 4.91981C268.037 4.91329 268.8 4.87303 269.562 4.80312C270.245 4.73698 270.857 4.67768 271.19 4.55128C271.524 4.42488 272.058 4.4289 272.468 4.33689C272.237 4.25394 271.828 4.19631 271.28 4.16981C270.922 4.16034 270.623 4.13552 270.402 4.09691C270.182 4.0583 270.044 4.00677 269.999 3.94562L271.245 3.68904C272.239 3.56825 272.79 3.66122 273.865 3.61279L272.757 3.51807C272.735 3.50871 272.727 3.49771 272.732 3.48562C272.84 3.29405 273.011 3.25308 274.143 3.14684L274.779 3.08526L275.784 3.01218C275.945 2.97292 276.057 2.93198 276.107 2.89345C276.158 2.85492 276.146 2.82016 276.073 2.79263C275.925 2.74634 275.881 2.68719 275.942 2.62062C276.04 2.57653 276.048 2.53588 275.965 2.50572C275.882 2.47557 275.714 2.45782 275.489 2.45555C275.309 2.45204 275.296 2.40108 275.199 2.37223C275.101 2.33245 274.935 2.30193 274.712 2.28274C274.488 2.26355 274.212 2.25614 273.902 2.26102C272.988 2.265 272.13 2.25007 271.342 2.21649L271.483 2.2028C270.662 2.23228 269.894 2.23586 269.218 2.21336C268.539 2.18503 267.669 2.2032 266.948 2.18593C266.362 2.18989 265.915 2.15069 265.704 2.07665C265.499 2.00596 264.753 2.02245 264.182 2.03597C263.844 2.04471 263.518 2.04842 263.206 2.04704C262.787 2.03104 262.263 2.04612 261.722 2.08977C261.56 2.10319 261.4 2.11029 261.258 2.11039C259.882 2.12874 258.509 2.15033 257.153 2.15991C256.839 2.15439 256.472 2.16702 256.094 2.19632C255.935 2.20904 255.78 2.21431 255.651 2.21142C253.507 2.18232 251.087 2.25656 248.985 2.21641C248.731 2.20693 248.449 2.20496 248.147 2.21055C247.47 2.23413 246.882 2.21895 246.473 2.16732C246.251 2.13986 245.968 2.12473 245.641 2.12289C245.313 2.12105 244.948 2.13255 244.57 2.15664C243.94 2.18855 243.358 2.19201 242.885 2.16666C241.963 2.14323 240.993 2.13361 239.983 2.13784C239.674 2.14194 239.402 2.13284 239.188 2.11124C238.975 2.08964 238.826 2.05613 238.752 2.0133C239 1.94049 239.271 1.93163 239.529 1.93803C240.527 1.92144 241.522 1.9016 242.501 1.89379C243.378 1.87145 244.219 1.86463 245.012 1.87341C245.406 1.88331 245.897 1.86073 246.379 1.81059C246.97 1.74709 247.578 1.71554 248.081 1.72232C248.453 1.72401 248.847 1.71854 249.256 1.70599C249.517 1.69087 249.785 1.66489 250.032 1.63073C250.13 1.61589 250.237 1.60341 250.346 1.5941C250.454 1.58479 250.562 1.57884 250.663 1.57664C250.763 1.57443 250.854 1.57601 250.929 1.58129C251.005 1.58657 251.063 1.59543 251.101 1.6073C251.479 1.7065 252.325 1.65587 253.049 1.6449C254.134 1.477 254.942 1.57638 255.957 1.48155C256.037 1.47526 256.116 1.47145 256.189 1.47036C256.262 1.46928 256.327 1.47093 256.381 1.47522C258.344 1.5323 260.632 1.48473 262.694 1.50444C262.921 1.50732 263.185 1.49745 263.455 1.47593C265.222 1.33351 266.921 1.29308 268.219 1.36254C268.377 1.3688 268.557 1.36906 268.751 1.36333C269.638 1.30672 270.487 1.28416 271.227 1.29751C272.386 1.2932 273.5 1.29669 274.677 1.28361C275.489 1.26499 276.201 1.28488 276.742 1.3413C276.759 1.36401 277.119 1.33953 277.396 1.33716C277.554 1.27997 277.692 1.22831 277.856 1.17761C278.002 1.11488 278.221 1.05141 278.498 0.991491C278.775 0.931574 279.104 0.876616 279.462 0.830331C280.074 0.771028 280.135 0.684973 279.707 0.653313C278.603 0.548568 277.216 0.505696 275.646 0.527845C274.333 0.529616 272.998 0.533672 271.667 0.544213C270.891 0.553258 270.072 0.573346 269.317 0.576864C269.062 0.584592 268.8 0.595981 268.534 0.610909C268.208 0.632553 267.891 0.644346 267.601 0.645655C266.668 0.627427 265.628 0.643308 264.529 0.692534C264.127 0.70327 263.74 0.706887 263.375 0.703335C262.512 0.689973 261.577 0.699806 260.593 0.732576C259.982 0.751055 259.39 0.760718 258.822 0.761459C258.621 0.763479 258.458 0.747956 258.265 0.759712C256.564 0.882707 255.36 0.793868 253.83 0.841164C253.086 0.854353 252.375 0.854389 251.708 0.841277C250.405 0.841911 249.066 0.855396 247.697 0.881675C245.885 0.924853 244.207 0.909872 242.477 0.927698C242.136 0.931444 241.806 0.930807 241.49 0.925785C239.955 0.892606 238.288 0.899641 236.53 0.946721C236.13 0.953523 235.772 0.945205 235.476 0.922297C235.181 0.899389 234.955 0.86238 234.812 0.813587C234.752 0.7801 234.791 0.736604 234.922 0.69149C235.139 0.633876 235.384 0.577426 235.653 0.523071L245.443 0.340677C245.854 0.331152 246.255 0.326025 246.644 0.325315C247.787 0.32373 248.966 0.309541 250.173 0.282819C251.367 0.257717 252.507 0.262173 253.663 0.254616C254.004 0.252084 254.354 0.246112 254.711 0.236714C257.125 0.162337 259.479 0.116909 261.757 0.100756C262.715 0.0984623 263.75 0.0643287 264.727 0.053265C265.704 0.0421997 267.04 0.03815 268.198 0.0338378L271.786 0.0344994C272.492 0.0322985 273.179 0.0388663 273.863 0.042191C274.694 -0.195086 274.98 -0.250703 276.089 -0.354657C276.468 -0.393004 276.854 -0.415888 277.201 -0.420629C278.301 -0.401872 279.682 -0.479954 280.726 -0.469616C281.355 -0.474715 281.89 -0.448356 282.274 -0.393237C282.608 -0.349979 282.989 -0.315749 283.412 -0.291066C284.572 -0.494052 284.674 -0.625885 283.802 -0.677188C283.566 -0.689114 283.24 -0.685425 283.069 -0.710684C282.971 -0.726068 282.838 -0.734866 282.679 -0.736386C282.52 -0.737908 282.34 -0.732112 282.153 -0.719448C281.565 -0.686231 281.013 -0.678417 280.554 -0.696796C280.121 -0.72112 279.591 -0.720149 279.015 -0.693974C278.591 -0.652918 278.219 -0.71089 277.853 -0.727639C277.486 -0.744387 277.186 -0.774474 276.613 -0.72947C276.509 -0.720509 276.405 -0.715129 276.309 -0.713744C276.214 -0.712359 276.13 -0.715006 276.064 -0.72148C275.449 -0.750465 274.716 -0.747419 273.923 -0.712593C272.708 -0.678322 271.567 -0.677037 270.541 -0.708781C269.927 -0.736558 269.403 -0.785814 268.991 -0.854631C268.878 -0.877646 268.711 -0.891448 268.506 -0.894711C267.473 -0.880353 266.353 -0.826314 265.215 -0.736082C264.787 -0.699927 264.359 -0.671328 263.941 -0.650896C263.082 -0.605506 262.25 -0.580071 261.472 -0.575344C260.341 -0.574595 259.163 -0.557131 257.95 -0.523111C257.201 -0.504167 256.479 -0.497175 255.793 -0.502212C255.088 -0.504585 254.336 -0.490136 253.552 -0.459198C252.773 -0.433988 252.087 -0.448514 251.575 -0.501018C251.407 -0.52931 251.271 -0.562907 251.171 -0.601181C252.312 -0.725724 253.491 -0.78902 254.473 -0.77832C254.845 -0.78657 255.155 -0.778241 255.547 -0.826752L255.56 -0.810526C255.638 -0.799997 255.756 -0.797512 255.891 -0.803547C256.026 -0.809582 256.169 -0.823713 256.293 -0.843249C256.246 -0.904912 256.202 -0.963329 256.17 -1.00552C255.422 -0.998076 254.696 -0.998679 253.996 -1.00733C253.405 -1.01978 252.604 -0.910743 252.093 -0.951788C251.096 -0.900463 250.461 -0.971329 249.567 -0.95088C248.673 -0.930431 247.689 -0.862878 246.795 -0.84243C246.015 -0.831208 245.258 -0.828769 244.527 -0.835124C244.275 -0.844043 243.984 -0.841951 243.673 -0.828975C243.235 -0.80456 242.828 -0.800469 242.498 -0.817173C242.168 -0.833876 241.929 -0.870702 241.808 -0.923423C241.922 -0.972807 242.076 -1.03649 242.253 -1.10245C241.927 -1.15665 241.431 -1.17947 240.84 -1.16752L240.004 -1.17014C239.783 -1.16871 239.613 -1.18336 239.531 -1.21106C239.449 -1.23877 239.46 -1.2774 239.563 -1.31898C241.147 -1.52829 241.206 -1.55136 242.369 -1.41673L243.913 -1.47929L243.887 -1.48026ZM223.002 -0.905298L223.119 -0.916699L223.002 -0.905298ZM30.5753 21.3636L30.6023 21.3993L30.5728 21.3604L30.314 21.3855L30.2968 21.3627L30.5753 21.3636ZM68.1614 5.7163C68.5272 5.67736 68.8967 5.64155 69.2675 5.6091C69.3645 5.60407 69.4554 5.60293 69.5323 5.60579C69.6093 5.60864 69.67 5.6154 69.7094 5.6255C69.7389 5.66444 69.532 5.69146 69.3437 5.70971C69.1063 5.73427 68.8637 5.74987 68.6411 5.75492C68.4184 5.75996 68.2237 5.75427 68.0771 5.73841L67.8642 5.7242L68.1614 5.7163ZM256.627 15.2082C256.386 15.2148 256.158 15.2159 255.947 15.2114C255.014 15.1799 254.121 15.1341 253.164 15.105C251.957 15.0308 250.569 15.0007 249.054 15.0155C248.462 15.0228 247.962 14.9988 247.612 14.9463C247.403 14.9181 247.133 14.9016 246.818 14.8979L242.812 14.8123C242.565 14.7945 242.351 14.7696 242.175 14.7382C242.528 14.704 242.764 14.6812 242.905 14.6675C243.198 14.6636 243.45 14.6741 243.635 14.6977C243.834 14.7378 244.171 14.7537 244.578 14.7422C244.989 14.7327 245.39 14.7275 245.779 14.7268C246.513 14.7288 247.252 14.7373 247.989 14.7426C248.275 14.8541 249.121 14.8035 249.845 14.7926L250.405 14.7975C252.234 14.8554 253.981 14.935 255.638 15.0359C255.958 15.053 256.234 15.0802 256.457 15.1168C256.541 15.1453 256.568 15.1808 256.535 15.2206L256.653 15.2092L256.627 15.2082ZM174.952 25.876C174.509 25.8836 174.047 25.8992 173.573 25.9226C173.208 25.9465 172.852 25.961 172.519 25.9655C170.654 25.9905 168.71 26.0483 166.713 26.138C166.452 26.1516 166.202 26.1583 165.97 26.1578L164.337 26.135C163.822 26.1222 163.812 26.1092 164.187 25.937C164.498 25.9036 164.812 25.8731 165.128 25.8458C165.316 25.8275 165.622 25.7979 165.694 25.8258C166.13 25.9019 166.927 25.8526 167.596 25.8365C169.535 25.7949 171.535 25.7334 173.493 25.6831C173.906 25.6708 174.307 25.6645 174.691 25.6644C174.929 25.6619 175.146 25.6667 175.333 25.6788C175.388 25.6801 175.434 25.6837 175.468 25.6894C175.502 25.6951 175.523 25.7029 175.53 25.7121C175.537 25.7213 175.529 25.7318 175.508 25.7428C175.487 25.7539 175.453 25.7652 175.407 25.7762C175.247 25.8145 175.062 25.8512 174.858 25.8851L174.952 25.876ZM160.749 0.885006L158.839 0.864592C158.61 0.862402 158.416 0.839424 158.17 0.849251C156.862 0.880394 155.652 0.87172 154.589 0.823595C154.227 0.803956 153.804 0.800028 153.342 0.81203C151.929 0.847594 150.596 0.849057 149.38 0.816378C148.593 0.809819 147.857 0.787791 147.183 0.75062C147.131 0.741992 147.098 0.730277 147.088 0.716275C147.077 0.702273 147.089 0.686314 147.121 0.669485C147.13 0.658853 147.153 0.647415 147.189 0.635962C147.225 0.624509 147.273 0.613307 147.33 0.603134C147.388 0.592963 147.452 0.584063 147.52 0.577042C147.587 0.570019 147.657 0.565042 147.722 0.56246C148.575 0.512147 149.384 0.494619 150.083 0.511299C150.732 0.531258 151.431 0.537098 152.168 0.528728C152.874 0.526527 153.352 0.591604 154.224 0.541947C154.593 0.525596 154.918 0.530979 155.145 0.557196C155.602 0.600651 156.239 0.603068 156.944 0.564017C157.365 0.544253 157.768 0.535778 158.137 0.538915C159.032 0.553201 159.888 0.581785 160.717 0.609405C160.978 0.615794 161.258 0.616676 161.553 0.612029L165.705 0.557946C166.703 0.541357 167.698 0.521521 168.678 0.513702C169.479 0.496725 170.224 0.502042 170.887 0.529465C171.595 0.558288 172.366 0.56999 173.187 0.564348C174.462 0.580122 175.73 0.586155 177.118 0.584033C178.003 0.585337 178.909 0.581119 179.834 0.568127C180.302 0.551404 180.699 0.565022 180.949 0.606359C181.101 0.640391 181.459 0.612665 181.756 0.604768C183.341 0.528646 184.828 0.510609 186.112 0.551913C186.276 0.558644 186.456 0.56108 186.648 0.559181C187.885 0.557763 189.166 0.548537 190.353 0.548435C190.666 0.551644 190.96 0.560451 191.232 0.574741C191.203 0.598056 191.12 0.623326 191 0.645309C190.88 0.667293 190.733 0.684306 190.589 0.692815C189.466 0.75795 188.382 0.79236 187.382 0.794599C185.717 0.786301 183.974 0.804956 182.17 0.850363C180.77 0.896143 179.493 0.886504 178.435 0.822166C177.608 0.77416 176.532 0.792221 175.392 0.873252C174.904 0.911951 174.43 0.927426 174.036 0.917562C173.656 0.90462 173.221 0.907759 172.754 0.926791C171.772 0.96298 170.827 0.979767 169.938 0.976823C169.069 0.963501 168.258 0.927108 167.366 0.916067C166.473 0.905026 165.114 0.911352 164.013 0.892595C162.913 0.873837 161.825 0.87131 160.749 0.885006ZM239.895 -1.0133C239.795 -0.912957 239.438 -0.850497 239.054 -0.823739C237.73 -0.704928 236.422 -0.65437 235.348 -0.680549C234.768 -0.717066 233.994 -0.703009 233.18 -0.64114C232.231 -0.576827 231.345 -0.566162 230.677 -0.611024C230.513 -0.618862 230.387 -0.635433 230.312 -0.659261C230.297 -0.678734 230.27 -0.714432 230.265 -0.720923C230.335 -0.737384 230.421 -0.752636 230.517 -0.765504C230.612 -0.778371 230.714 -0.788508 230.815 -0.795134L235.199 -0.910004L235.963 -0.935282C237.359 -1.00151 238.688 -1.02789 239.895 -1.0133ZM231.272 0.574963C230.587 0.738822 230.585 0.73557 230.234 0.773028C228.543 0.928618 226.853 1.01261 225.365 1.015C225.035 1.01453 224.754 0.998713 224.547 0.968882C224.441 0.964839 224.373 0.951994 224.359 0.933147C224.345 0.9143 224.385 0.89098 224.471 0.868274L225.015 0.752836C226.003 0.702859 226.977 0.66315 227.931 0.633946C229.042 0.599461 230.026 0.59813 231.178 0.584082L231.272 0.574963ZM175.034 25.1504C174.397 25.376 174.394 25.3727 173.327 25.4309C172.583 25.4721 171.861 25.4963 171.184 25.5027C170.355 25.5099 169.506 25.5225 168.68 25.5329C168.479 25.5401 168.308 25.5341 168.201 25.5161C168.094 25.4982 168.058 25.4695 168.101 25.4357C168.21 25.399 168.379 25.3635 168.582 25.3349C168.785 25.3064 169.01 25.2865 169.22 25.2785L169.671 25.2731C170.218 25.2619 170.786 25.2451 171.315 25.2427C171.658 25.252 172.055 25.2448 172.476 25.2215C172.897 25.1983 173.329 25.1597 173.74 25.1087L175.034 25.1504ZM227.867 -0.718435C227.697 -0.679379 227.504 -0.641973 227.294 -0.607211C226.482 -0.510861 225.623 -0.456137 224.884 -0.453769C224.535 -0.4478 224.216 -0.469111 223.861 -0.438143C223.223 -0.396762 222.605 -0.374719 222.04 -0.373208C222.04 -0.373208 221.882 -0.382243 221.83 -0.384172L221.722 -0.526969C221.989 -0.560051 222.268 -0.587076 222.546 -0.606801C223.477 -0.644793 224.392 -0.670766 225.304 -0.699987C226.217 -0.729206 226.535 -0.742629 227.132 -0.75518C227.398 -0.748281 227.644 -0.735972 227.867 -0.718435ZM248.032 17.0341L246.813 17.3264C246.419 17.3518 246.05 17.3564 245.764 17.3395C245.478 17.3226 245.289 17.2852 245.227 17.2328C245.126 17.2083 245.116 17.1721 245.199 17.1316C245.281 17.0911 245.449 17.0496 245.669 17.0158C245.879 16.9757 246.12 16.9398 246.376 16.9102C246.632 16.8806 246.897 16.858 247.155 16.8439L248.032 17.0341ZM237.886 15.5789C238.683 15.5293 239.445 15.5091 240.115 15.5197C240.536 15.5486 241.108 15.5394 241.712 15.4938C242.81 15.4028 243.869 15.3777 244.665 15.4236C244.665 15.4236 244.694 15.4625 244.829 15.4738C244.964 15.4851 244.429 15.5126 244.311 15.524C243.448 15.5519 242.58 15.5733 241.83 15.5833C241.364 15.5829 240.872 15.5921 240.36 15.6108C239.657 15.6396 238.99 15.649 238.386 15.6384C238.386 15.6384 238.152 15.6298 237.888 15.5821L237.886 15.5789ZM152.769 0.355482C153.15 0.300437 153.563 0.2557 153.977 0.224629C154.391 0.193558 154.795 0.176961 155.16 0.176077C155.439 0.173205 155.665 0.187738 155.801 0.21738C155.938 0.247021 155.978 0.290078 155.915 0.339743C155.633 0.367114 155.256 0.403606 155.044 0.424134C154.31 0.422125 153.684 0.395732 152.769 0.355482ZM81.5083 4.99407C81.8137 4.94976 82.1501 4.91588 82.4793 4.89631C82.8084 4.87673 83.1169 4.87224 83.3695 4.88336C83.4995 4.88818 83.4113 4.93853 83.4334 4.96774C83.4478 4.97436 83.4477 4.9826 83.4329 4.99159C83.4181 5.00058 83.3893 5.00999 83.3495 5.01883C83.3097 5.02767 83.2604 5.03562 83.2067 5.04185C83.153 5.04808 83.0969 5.05236 83.0442 5.05423C82.7128 5.07332 82.4 5.079 82.1337 5.07077C81.8674 5.06254 81.6559 5.04065 81.5181 5.00706L81.5083 4.99407ZM76.7336 5.62752C76.7809 5.60137 76.8814 5.57412 77.0169 5.55076C77.1523 5.5274 77.3135 5.50949 77.4709 5.50032C77.7491 5.49909 78.002 5.50634 78.2198 5.5218C78.4561 5.53373 78.2861 5.60943 77.9664 5.65435C77.831 5.67238 77.6864 5.68644 77.544 5.69542C77.4016 5.70439 77.2654 5.70804 77.1462 5.70607C77.027 5.70409 76.9281 5.69655 76.8573 5.68404C76.7865 5.67153 76.7459 5.6544 76.7385 5.63401L76.7336 5.62752ZM215.472 -0.440321C216.184 -0.533745 216.733 -0.510242 217.336 -0.547791C217.939 -0.58534 218.087 -0.589291 218.007 -0.529205C217.926 -0.46912 217.512 -0.481305 217.254 -0.456216C216.904 -0.422924 216.552 -0.403808 216.237 -0.401C215.923 -0.398193 215.658 -0.411806 215.472 -0.440321ZM67.0334 15.3673C67.4107 15.3463 67.7802 15.3315 68.1366 15.3231C68.1835 15.3318 68.2129 15.3431 68.223 15.3565C68.2331 15.3699 68.2238 15.385 68.1956 15.401C68.1956 15.401 67.954 15.4488 67.8128 15.4624C67.2925 15.5094 67.2669 15.4422 67.0334 15.3673ZM13.7053 24.0716C13.4499 24.1346 13.3309 24.1775 13.1264 24.2078C13.0325 24.2183 12.9354 24.2259 12.8424 24.2301C12.7493 24.2343 12.6628 24.235 12.589 24.232C12.4992 24.2138 12.4781 24.186 12.53 24.1541C12.53 24.1541 12.7903 24.0976 12.8893 24.0949C13.1719 24.0816 13.4458 24.0737 13.7053 24.0716ZM227.597 -0.974471C228.139 -1.02693 228.656 -1.07711 229.031 -1.01589C228.172 -0.95001 228.172 -0.950006 227.597 -0.974471ZM218.83 -0.375627C219.377 -0.487821 219.698 -0.498002 219.96 -0.485111C220.016 -0.481865 220.053 -0.474628 220.065 -0.4645C220.078 -0.454373 220.065 -0.441904 220.029 -0.428979C219.993 -0.416055 219.936 -0.40338 219.866 -0.392869C219.797 -0.382358 219.718 -0.374585 219.642 -0.370727C219.357 -0.367497 219.086 -0.369137 218.83 -0.375627ZM190.7 -0.328186C190.687 -0.344412 190.673 -0.363885 190.814 -0.37757C190.851 -0.384517 190.894 -0.390492 190.94 -0.394896C190.985 -0.3993 191.031 -0.401975 191.073 -0.402656C191.073 -0.402656 191.087 -0.383183 191.097 -0.370202L190.7 -0.328186ZM171.165 26.6123L171.479 26.6272L171.338 26.6408L170.965 26.6491L171.165 26.6123ZM60.4755 5.37431C60.5931 5.36291 60.7108 5.3515 60.728 5.37422C60.7529 5.37774 60.7682 5.38281 60.7729 5.38902C60.7776 5.39523 60.7715 5.4024 60.7551 5.40992C60.7551 5.40992 60.5903 5.42588 60.5197 5.43273L60.4755 5.37431ZM78.8014 5.556C78.8789 5.5547 78.9487 5.55622 79.0069 5.56048L79.0216 5.57995L78.7863 5.60276L78.8014 5.556ZM238.507 10.1957C238.598 10.1838 238.695 10.1745 238.79 10.1683L238.908 10.1569C238.908 10.1569 238.781 10.19 238.711 10.1969C238.64 10.2037 238.583 10.1953 238.507 10.1957Z" fill="#8B1C1C"/>
</g>
</svg>
