<svg width="94" height="99" viewBox="0 0 94 99" fill="none" xmlns="http://www.w3.org/2000/svg">
<path d="M55.8091 25.0927C56.3992 25.5637 56.9497 26.0736 57.4828 26.6075C57.6976 26.8213 57.9168 27.0308 58.1392 27.2366C61.0733 29.9819 63.1628 34.1357 63.312 38.1732C63.3224 38.7719 63.3194 39.3704 63.312 39.9693C63.4054 40.0015 63.4988 40.0338 63.595 40.067C64.0264 40.26 64.1606 40.5237 64.3915 40.9272C64.9148 42.4942 64.9692 44.8265 64.6314 46.4352C64.2078 47.2743 63.4326 47.5606 62.5827 47.8587C62.1087 48.0389 61.694 48.2904 61.2597 48.5494C58.0755 50.424 54.3476 51.5431 50.6474 51.5046C50.3577 51.5017 50.0682 51.5021 49.7785 51.5029C46.0118 51.4962 42.5513 50.4968 39.0192 49.2683C35.8527 48.1672 32.6613 47.1972 29.3667 46.555C29.4459 46.5154 29.5251 46.4759 29.6066 46.4352C29.605 46.327 29.605 46.327 29.6034 46.2165C29.5928 45.4648 29.5855 44.7131 29.5803 43.9613C29.5779 43.6809 29.5746 43.4004 29.5704 43.1199C29.5646 42.7165 29.5619 42.3133 29.5598 41.9099C29.5573 41.7846 29.5548 41.6594 29.5523 41.5303C29.552 40.6593 29.552 40.6593 29.827 40.1997C30.0864 39.9693 30.0864 39.9693 30.4463 39.7298C30.5628 39.4086 30.5807 39.108 30.5831 38.7686C30.6835 33.7817 33.1791 29.692 36.6737 26.2838C42.2332 21.0299 49.6892 20.3655 55.8091 25.0927Z" fill="#C8A46B"/>
<path d="M37.9393 3.52196C38.8632 4.02723 39.6608 4.7046 40.4302 5.41698C40.6469 5.61731 40.8646 5.81646 41.0836 6.01425C42.2894 7.10594 43.4316 8.25952 44.5776 9.41308C44.9679 9.80586 45.3586 10.1982 45.7495 10.5904C45.8803 10.7225 45.8803 10.7225 46.0138 10.8573C46.4966 11.3415 46.9907 11.8041 47.5103 12.2489C47.8086 12.5066 48.0921 12.7794 48.3785 13.0502C49.2644 13.8573 50.1036 14.2664 51.3069 14.2611C51.7507 14.218 52.1639 14.1051 52.5917 13.9856C54.3354 13.515 55.7856 13.6673 57.4013 14.5165C59.0701 15.5004 60.4663 16.9742 61.8204 18.3392C62.0551 18.5758 62.2909 18.8113 62.5267 19.0468C62.6798 19.2002 62.8329 19.3537 62.9859 19.5073C63.0546 19.576 63.1234 19.6448 63.1942 19.7156C63.5394 20.0642 63.871 20.4194 64.1913 20.791C64.6888 21.3643 65.2243 21.8966 65.763 22.4311C65.8683 22.536 65.9736 22.641 66.0821 22.7491C66.4154 23.0812 66.7491 23.4128 67.0829 23.7445C67.3103 23.9708 67.5375 24.1972 67.7648 24.4236C68.3194 24.9759 68.8742 25.5278 69.4294 26.0794C69.3803 26.1442 69.3313 26.2091 69.2807 26.2759C69.2162 26.3615 69.1517 26.447 69.0852 26.5352C68.9893 26.6621 68.9893 26.6621 68.8916 26.7915C66.2856 30.3123 65.5928 34.6297 66.217 38.9094C66.3516 39.572 66.525 40.2237 66.7198 40.8713C66.8745 41.4037 66.9901 41.825 66.7905 42.364C66.5656 42.599 66.3367 42.7707 66.0708 42.9627C66.0402 42.7611 66.0402 42.7611 66.009 42.5553C65.8389 40.9867 65.8389 40.9867 65.0493 39.7015C64.7987 39.4041 64.805 39.1698 64.7743 38.7849C64.7618 38.644 64.7492 38.5031 64.7363 38.3579C64.7239 38.208 64.7116 38.0581 64.6989 37.9037C64.5802 36.6651 64.4369 35.5225 64.0317 34.3415C64.0026 34.2541 63.9736 34.1668 63.9436 34.0768C62.9129 31.0046 61.2019 28.4432 58.9939 26.0794C58.907 25.9848 58.8201 25.8902 58.7306 25.7927C56.5004 23.457 53.7333 21.9978 50.7175 20.9306C50.6273 20.8981 50.5371 20.8656 50.4442 20.8321C48.1038 20.0265 44.9683 20.1622 42.681 21.0503C42.5845 21.0876 42.4881 21.1248 42.3887 21.1632C39.4158 22.3463 36.8853 24.1753 34.6444 26.4386C34.0674 26.277 33.6174 26.0249 33.1376 25.6753C33.0658 25.6236 32.994 25.5718 32.9201 25.5186C32.0389 24.8692 31.057 24.1202 30.4463 23.2056C30.574 23.1894 30.7017 23.1732 30.8333 23.1565C32.051 22.9833 33.1343 22.7106 34.1646 22.0082C34.3952 21.6779 34.4426 21.3968 34.4495 20.9979C34.4546 20.8648 34.4546 20.8648 34.4598 20.729C34.3774 20.3154 34.2272 20.1517 33.9248 19.8529C33.5397 19.6028 33.1374 19.3885 32.7328 19.1719C31.3436 18.4023 30.1539 17.5133 28.9769 16.4478C28.9095 16.3869 28.8421 16.326 28.7726 16.2633C28.4746 15.9862 28.2981 15.8144 28.1672 15.4225C28.2687 15.4022 28.3701 15.3818 28.4746 15.3608C29.7991 15.1088 29.7991 15.1088 30.8862 14.3654C31.1746 13.896 31.1687 13.4364 31.046 12.908C30.7897 12.543 30.4515 12.3207 30.0864 12.0698C29.9502 11.9726 29.8142 11.8751 29.6783 11.7775C29.459 11.6203 29.2393 11.4637 29.0185 11.3086C28.5082 10.95 28.0307 10.5723 27.5675 10.154C27.7462 9.71195 27.9863 9.50587 28.3622 9.2185C28.967 8.73849 29.5329 8.22954 30.0939 7.6993C30.1768 7.62103 30.2596 7.54276 30.345 7.46212C30.5061 7.30989 30.6673 7.15765 30.8284 7.00541C31.1981 6.65855 31.5759 6.3211 31.955 5.98458C32.1712 5.79034 32.3843 5.5943 32.596 5.39523C34.1331 3.95395 35.7544 2.53839 37.9393 3.52196Z" fill="#94BCD1"/>
<path d="M50.5137 31.0159C51.0995 31.4002 51.6267 31.8497 52.1569 32.3059C52.2763 32.401 52.3956 32.4961 52.5186 32.5941C54.2592 34.1042 55.2506 36.4009 55.5154 38.6522C55.5315 39.0577 55.5306 39.4627 55.5291 39.8685C55.5291 39.9877 55.5291 40.107 55.5291 40.2298C55.529 40.6218 55.5281 41.0138 55.5272 41.4057C55.5269 41.6783 55.5268 41.951 55.5266 42.2236C55.5262 42.9395 55.525 43.6555 55.5237 44.3714C55.5224 45.1026 55.5219 45.8339 55.5213 46.5651C55.52 47.9986 55.518 49.4321 55.5154 50.8657C55.2895 50.9228 55.0636 50.9797 54.8376 51.0365C54.6489 51.0841 54.6489 51.0841 54.4563 51.1326C53.1941 51.4389 51.9852 51.5022 50.6927 51.4956C50.3977 51.4943 50.1028 51.4956 49.8078 51.4971C48.156 51.4986 46.5291 51.3566 44.9075 51.0303C44.8106 51.0108 44.7137 50.9914 44.6138 50.9713C43.2232 50.6752 41.8713 50.2308 40.5219 49.788C40.4113 49.7517 40.3006 49.7154 40.1866 49.6781C39.8954 49.5817 39.605 49.4835 39.315 49.3839C39.1886 49.3411 39.1886 49.3411 39.0598 49.2974C38.4972 49.0983 38.4972 49.0983 38.3629 48.8301C38.3521 48.4979 38.3487 48.1689 38.3508 47.8368C38.3509 47.734 38.3511 47.6311 38.3513 47.5252C38.3522 47.1831 38.3542 46.841 38.3563 46.4989C38.357 46.3816 38.3577 46.2643 38.3584 46.1434C38.3622 45.5206 38.3669 44.8978 38.3721 44.275C38.3773 43.6368 38.3793 42.9986 38.3804 42.3605C38.382 41.8659 38.3862 41.3713 38.391 40.8768C38.3928 40.6419 38.3937 40.4071 38.3935 40.1722C38.3933 37.1753 39.223 34.7698 41.3175 32.5735C43.9626 30.0639 47.2404 29.1365 50.5137 31.0159Z" fill="white"/>
<path d="M64.6314 10.7526C65.5866 11.5176 66.3299 12.2962 66.9104 13.3869C66.9669 13.4928 67.0233 13.5987 67.0815 13.7078C67.9947 15.5634 68.2287 17.9046 67.6301 19.9011C67.4283 20.4244 67.1847 20.9204 66.9104 21.4095C66.8313 21.4095 66.7521 21.4095 66.6705 21.4095C66.5082 21.2453 66.5082 21.2453 66.3153 21.0112C65.7619 20.3621 65.1611 19.7633 64.5579 19.1606C64.4355 19.0381 64.3132 18.9156 64.1909 18.7931C63.9358 18.5377 63.6804 18.2825 63.4248 18.0275C63.1004 17.7037 62.7769 17.379 62.4535 17.0542C62.2015 16.8012 61.9489 16.5488 61.6962 16.2966C61.5768 16.1773 61.4576 16.0578 61.3386 15.938C59.4824 14.0718 57.4547 12.4278 54.7058 12.3974C54.2555 12.3998 53.8064 12.4118 53.3563 12.429C54.2445 10.8827 55.894 9.97347 57.5568 9.43877C60.0162 8.78791 62.5633 9.27077 64.6314 10.7526Z" fill="#C36345"/>
<path d="M63.312 39.9693C63.8983 40.1318 64.0948 40.4088 64.3915 40.9272C64.9148 42.4942 64.9692 44.8265 64.6314 46.4352C64.2085 47.2729 63.4356 47.5596 62.587 47.8571C62.0964 48.0436 61.6623 48.3031 61.2106 48.5678C60.1393 49.191 58.993 49.8084 57.7945 50.1472C57.4346 50.0274 57.4346 50.0274 57.3147 49.9077C57.2582 49.4031 57.2414 48.8955 57.2172 48.3885C57.208 48.2466 57.1988 48.1046 57.1893 47.9584C57.1345 46.7829 57.1345 46.7829 57.4182 46.3431C57.694 46.0557 57.796 45.9644 58.1892 45.9373C58.3037 45.9355 58.4182 45.9336 58.5362 45.9317C58.7307 45.9281 58.7307 45.9281 58.9291 45.9245C59.0696 45.9225 59.21 45.9204 59.3547 45.9184C59.4982 45.9159 59.6416 45.9134 59.7894 45.9109C60.2489 45.903 60.7085 45.896 61.168 45.8889C61.479 45.8837 61.7899 45.8785 62.1009 45.8733C62.8644 45.8604 63.628 45.8482 64.3916 45.8365C64.3916 45.5994 64.3916 45.3624 64.3916 45.1181C64.3083 45.1265 64.2251 45.1349 64.1393 45.1435C62.9725 45.2479 61.8107 45.2601 60.6399 45.26C60.3028 45.2603 59.9657 45.2625 59.6286 45.2647C59.4131 45.2651 59.1977 45.2653 58.9822 45.2654C58.882 45.2663 58.7818 45.2672 58.6786 45.268C57.7912 45.2645 57.7912 45.2645 57.4346 44.9984C57.1478 44.5688 57.156 44.2531 57.1544 43.7565C57.1536 43.6705 57.1528 43.5844 57.152 43.4957C57.1508 43.3139 57.1502 43.132 57.1503 42.9501C57.1497 42.6723 57.1454 42.3947 57.1408 42.1169C57.1401 41.94 57.1397 41.7631 57.1394 41.5862C57.1369 41.462 57.1369 41.462 57.1342 41.3352C57.1377 40.9696 57.1791 40.7157 57.3581 40.395C57.8678 40.095 58.3744 40.1501 58.9546 40.162C59.079 40.1627 59.2035 40.1633 59.3317 40.164C59.729 40.1667 60.1261 40.1727 60.5233 40.1788C60.7927 40.1812 61.0621 40.1834 61.3315 40.1854C61.9918 40.1906 62.6519 40.1987 63.3121 40.2088C63.3121 40.1297 63.312 40.0507 63.312 39.9693Z" fill="#D6B88B"/>
<path d="M51.5571 22.7267C51.4577 23.6399 51.1986 24.4845 50.8449 25.3311C50.6429 25.8172 50.4959 26.305 50.3576 26.8129C50.1799 27.4577 49.9648 28.0114 49.6379 28.594C49.1326 28.6164 48.6938 28.5792 48.1986 28.4743C47.0508 28.2527 45.9591 28.2666 44.84 28.594C44.6402 28.5985 44.4401 28.5994 44.2403 28.594C42.7553 24.7052 42.7553 24.7052 42.2012 22.7267C45.3693 21.5107 48.3955 21.3802 51.5571 22.7267Z" fill="#D6B88A"/>
<path d="M30.3263 39.8495C30.4055 39.889 30.4847 39.9286 30.5662 39.9693C31.2836 40.0896 32.0057 40.1062 32.7314 40.1101C32.9334 40.1128 33.1354 40.1157 33.3374 40.1187C33.6515 40.1229 33.9654 40.1264 34.2795 40.128C34.5857 40.1299 34.8917 40.1347 35.1978 40.14C35.2916 40.1398 35.3855 40.1395 35.4822 40.1393C35.8911 40.1485 36.158 40.1786 36.5028 40.4056C36.7367 40.7706 36.7438 41.0064 36.7431 41.4384C36.7431 41.5844 36.7432 41.7303 36.7433 41.8807C36.7409 42.0328 36.7385 42.1849 36.736 42.3416C36.7369 42.4923 36.7377 42.6431 36.7386 42.7984C36.7271 44.4759 36.7271 44.4759 36.0838 45.1181C35.7926 45.1491 35.5141 45.1657 35.2222 45.1719C35.1354 45.1745 35.0486 45.1772 34.9591 45.1799C34.6768 45.1881 34.3945 45.1943 34.1122 45.2004C34.0171 45.2028 33.9219 45.2053 33.8239 45.2078C32.4113 45.2438 31.0163 45.2296 29.6066 45.1181C29.5948 44.4811 29.5861 43.8441 29.5803 43.207C29.5779 42.9903 29.5746 42.7737 29.5704 42.5572C29.5646 42.2453 29.5619 41.9336 29.5598 41.6218C29.5573 41.5253 29.5548 41.4289 29.5523 41.3295C29.5521 40.8518 29.5711 40.6238 29.8345 40.2102C30.0864 39.9693 30.0864 39.9693 30.3263 39.8495Z" fill="#D5B78B"/>
<path d="M58.0273 27.2889C59.6583 27.9995 60.8198 30.5284 61.6473 31.9985C61.7527 32.3058 61.7527 32.3058 61.6895 32.5645C61.2221 33.1474 60.4641 33.3182 59.7811 33.5481C59.5661 33.6217 59.3512 33.6953 59.1363 33.7689C59.0309 33.8049 58.9254 33.8408 58.8168 33.8779C58.2674 34.0672 57.7221 34.2678 57.1764 34.4677C56.863 34.5716 56.5601 34.6445 56.2351 34.7006C56.1301 34.5435 56.0252 34.3863 55.9202 34.2292C55.8542 34.1307 55.7882 34.0322 55.7202 33.9308C55.591 33.7365 55.463 33.5414 55.3369 33.3451C54.9698 32.7781 54.5785 32.2868 54.1027 31.8058C53.9561 31.5874 53.9561 31.5874 53.9706 31.3278C54.0054 31.2554 54.0402 31.183 54.076 31.1084C54.1948 31.0689 54.3135 31.0294 54.4359 30.9887C54.5195 30.8309 54.599 30.671 54.6758 30.5097C54.8659 30.2947 54.8659 30.2947 55.0895 30.0776C55.1715 29.997 55.2536 29.9164 55.3381 29.8334C55.4238 29.7504 55.5095 29.6673 55.5979 29.5818C56.1734 29.0217 56.7291 28.4567 57.2508 27.8459C57.7511 27.2745 57.7511 27.2745 58.0273 27.2889Z" fill="#D6B88B"/>
<path d="M35.724 27.2768C36.148 27.4531 36.3806 27.6851 36.6761 28.0327C37.0229 28.4381 37.3823 28.8188 37.7631 29.1927C38.5105 29.9289 39.2464 30.6642 39.9222 31.4677C39.8799 31.523 39.8377 31.5782 39.7942 31.6352C39.0474 32.6202 38.3386 33.6046 37.7631 34.7007C36.6322 34.545 35.5682 34.0725 34.5161 33.6446C34.0158 33.4435 33.5129 33.2491 33.0102 33.0543C32.9118 33.0162 32.8136 32.9781 32.7123 32.9388C32.4767 32.8475 32.2412 32.7563 32.0056 32.6651C32.9495 30.665 34.1058 28.8114 35.724 27.2768Z" fill="#D6B88B"/>
<path d="M31.7657 33.0243C31.8053 33.1429 31.8449 33.2614 31.8856 33.3836C32.1201 33.4779 32.1201 33.4779 32.4179 33.5332C34.1341 33.9588 35.7743 34.7419 37.4032 35.4191C37.3627 35.5553 37.3222 35.6914 37.2805 35.8317C36.979 36.8669 36.7318 37.8619 36.6184 38.9365C36.5636 39.2508 36.5636 39.2508 36.3237 39.4903C36.1031 39.5199 36.1031 39.5199 35.8325 39.5194C35.7312 39.5198 35.6299 39.5201 35.5255 39.5205C35.361 39.5192 35.361 39.5192 35.1931 39.5179C35.0804 39.5178 34.9677 39.5178 34.8515 39.5177C34.6127 39.5174 34.3738 39.5164 34.1349 39.515C33.7701 39.5128 33.4052 39.5125 33.0404 39.5125C32.8084 39.5119 32.5764 39.5112 32.3443 39.5104C32.2354 39.5103 32.1264 39.5102 32.0141 39.51C31.5166 39.5063 31.0513 39.4963 30.5662 39.3706C30.5908 37.1647 30.9057 35.0724 31.7657 33.0243Z" fill="#D6B88B"/>
<path d="M62.2325 33.3836C63.0155 35.4167 63.312 37.3086 63.312 39.4903C61.3329 39.4903 59.3537 39.4903 57.3146 39.4903C57.2354 38.7791 57.1563 38.0678 57.0747 37.335C56.8918 36.7598 56.8918 36.7598 56.6797 36.1951C56.5776 35.8375 56.6003 35.6518 56.7149 35.2994C56.9293 35.1549 56.9293 35.1549 57.2101 35.0567C57.3136 35.019 57.4172 34.9814 57.5238 34.9426C57.6354 34.9048 57.7469 34.8669 57.8619 34.8279C57.9751 34.7873 58.0884 34.7467 58.2051 34.7049C58.4365 34.6219 58.6682 34.5399 58.9002 34.4588C59.374 34.2922 59.8435 34.1149 60.3133 33.9374C60.4632 33.8815 60.6132 33.8257 60.7631 33.7699C61.0025 33.6797 61.2405 33.5852 61.4753 33.4837C61.7527 33.3836 61.7527 33.3836 62.2325 33.3836Z" fill="#D6B88B"/>
<path d="M41.7214 23.2057C41.8298 23.3958 41.8298 23.3958 41.9191 23.6435C41.9528 23.7354 41.9864 23.8272 42.0211 23.9219C42.0558 24.0214 42.0905 24.121 42.1262 24.2235C42.181 24.3763 42.181 24.3763 42.2369 24.5322C42.5331 25.3706 42.7906 26.2181 43.0328 27.0734C43.1381 27.4379 43.2525 27.7947 43.3782 28.1525C43.5206 28.594 43.5206 28.594 43.5206 29.073C43.3466 29.16 43.3466 29.16 43.1692 29.2488C42.2866 29.6995 41.497 30.1586 40.7445 30.813C40.5219 30.9888 40.5219 30.9888 40.282 30.9888C40.1187 30.792 39.9594 30.5919 39.8022 30.3901C39.6043 30.1882 39.4046 29.9892 39.2025 29.7914C38.8696 29.4652 38.5373 29.1383 38.2054 28.811C38.0722 28.681 38.0722 28.681 37.9362 28.5484C37.8523 28.4655 37.7685 28.3825 37.682 28.297C37.5672 28.1842 37.5672 28.1842 37.45 28.0691C37.2833 27.8756 37.2833 27.8756 37.2833 27.6361C37.2041 27.6361 37.125 27.6361 37.0434 27.6361C36.8378 27.4015 36.6375 27.1621 36.4437 26.9177C37.0148 25.2474 39.5658 24.0155 41.057 23.2071C41.3615 23.086 41.3615 23.086 41.7214 23.2057Z" fill="#D6B88B"/>
<path d="M52.2768 23.0859C53.5433 23.4934 54.628 24.2208 55.6878 25.0092C55.7657 25.0669 55.8436 25.1247 55.9239 25.1841C56.4727 25.6015 56.9566 26.0626 57.4346 26.5584C57.5137 26.6374 57.5929 26.7164 57.6745 26.7979C57.5914 26.8721 57.5084 26.9463 57.4228 27.0228C56.6823 27.692 55.9604 28.3763 55.253 29.0804C55.1739 29.1588 55.0948 29.2372 55.0133 29.318C54.9398 29.3917 54.8663 29.4653 54.7905 29.5411C54.6922 29.6395 54.6922 29.6395 54.5918 29.7399C54.4231 29.9096 54.4231 29.9096 54.3159 30.1506C54.2367 30.1506 54.1576 30.1506 54.076 30.1506C54.0352 30.2617 54.0352 30.2617 53.9935 30.3751C53.7906 30.7031 53.5971 30.7553 53.2364 30.869C53.1547 30.8014 53.0731 30.7338 52.989 30.6642C52.6041 30.3648 52.2074 30.0989 51.797 29.8363C51.7246 29.789 51.6523 29.7418 51.5777 29.6931C51.1829 29.4395 50.8008 29.2288 50.3576 29.0729C50.4256 28.5028 50.5404 27.9936 50.7306 27.4522C50.7816 27.3058 50.8326 27.1594 50.8852 27.0086C50.9392 26.856 50.9933 26.7034 51.0473 26.5509C51.099 26.4031 51.1506 26.2553 51.2038 26.103C51.5566 25.0956 51.9162 24.0906 52.2768 23.0859Z" fill="#D6B88B"/>
<path d="M70.029 33.1441C70.0685 33.1441 70.1081 33.1441 70.1489 33.1441C70.1737 34.1014 70.1596 35.0368 70.0439 35.9879C70.0345 36.0692 70.0251 36.1504 70.0154 36.2342C69.9613 36.6439 69.9034 36.8645 69.6691 37.2152C69.3993 35.8274 69.7436 34.5044 70.029 33.1441Z" fill="#EBEBE7"/>
<path d="M78.0656 28.7137C78.1052 28.7927 78.1448 28.8718 78.1856 28.9532C78.1043 29.1755 78.1043 29.1755 77.9686 29.4457C77.919 29.5451 77.8693 29.6446 77.8182 29.747C77.7637 29.853 77.7093 29.959 77.6533 30.0683C77.5989 30.1756 77.5445 30.283 77.4884 30.3937C77.044 31.2598 76.5596 32.09 76.0265 32.9046C75.9869 32.8256 75.9473 32.7465 75.9065 32.6651C76.0266 32.3783 76.0266 32.3783 76.2148 32.0206C76.2829 31.8906 76.3509 31.7607 76.421 31.6268C76.4937 31.4903 76.5663 31.3539 76.6412 31.2133C76.7461 31.0128 76.7461 31.0128 76.853 30.8082C77.2309 30.0909 77.6241 29.3939 78.0656 28.7137Z" fill="#E9EBE7"/>
<path d="M50.1177 55.0565C50.1177 55.1751 50.1177 55.2936 50.1177 55.4157C50.3948 55.4157 50.6719 55.4157 50.9574 55.4157C50.3723 55.8051 49.851 55.7885 49.1581 55.775C49.1186 55.6169 49.079 55.4588 49.0382 55.296C49.4425 55.1166 49.6625 55.0565 50.1177 55.0565Z" fill="#27493B"/>
<path d="M70.5089 41.8851H70.7488V42.3641H70.5089V41.8851Z" fill="#36574A"/>
<path d="M47.3589 6.38042L48.3767 5.36439L53.0416 10.0212L52.0238 11.0372L47.3589 6.38042Z" fill="#C36345"/>
<path d="M52.3967 2.48536L53.7076 1.8919L56.4324 7.88963L55.1215 8.48309L52.3967 2.48536Z" fill="#C36345"/>
<path d="M58.9939 0.716273L60.4331 0.69458L60.5327 7.27953L59.0935 7.30123L58.9939 0.716273Z" fill="#C36345"/>
<path d="M65.6107 1.77218L66.9498 2.29901L64.531 8.42609L63.1919 7.89926L65.6107 1.77218Z" fill="#C36345"/>
<path d="M71.081 5.48413L72.1019 6.49699L67.4516 11.1683L66.4306 10.1554L71.081 5.48413Z" fill="#C36345"/>
<path d="M75.0168 10.8724L75.5162 12.2201L69.3288 14.505L68.8294 13.1574L75.0168 10.8724Z" fill="#C36345"/>
<path d="M76.2664 17.2187V18.6555H69.6693V17.2187H76.2664Z" fill="#C36345"/>
<path d="M75.1592 23.903L74.5357 25.1981L68.5896 22.3454L69.2131 21.0503L75.1592 23.903Z" fill="#C36345"/>
<path d="M34.8993 45.8652C35.0501 45.8669 35.0501 45.8669 35.204 45.8686C35.7063 45.8908 35.9124 45.9303 36.3228 46.2459C36.7012 46.753 36.6985 47.1138 36.6911 47.7361C36.69 47.854 36.6889 47.9719 36.6878 48.0934C36.6864 48.183 36.685 48.2725 36.6836 48.3647C35.6388 48.1841 34.6273 47.894 33.6099 47.6014C32.3211 47.2316 31.0295 46.8855 29.7266 46.5686C29.7266 46.5291 29.7266 46.4896 29.7266 46.4489C29.9245 46.4094 30.1224 46.3699 30.3263 46.3291C30.0294 46.2106 30.0294 46.2106 29.7266 46.0897C29.7266 46.0502 29.7266 46.0106 29.7266 45.9699C33.309 45.8167 33.309 45.8167 34.8993 45.8652Z" fill="#D6B88B"/>
<path d="M29.6066 45.8502C30.8733 45.8502 32.1399 45.8502 33.445 45.8502C33.445 45.8897 33.445 45.9292 33.445 45.97C31.8419 46.0292 31.8419 46.0292 30.2064 46.0897C30.2855 46.1687 30.3647 46.2478 30.4463 46.3292C29.7716 46.5836 29.7716 46.5836 29.3667 46.4489C29.4459 46.4489 29.5251 46.4489 29.6066 46.4489C29.6066 46.2513 29.6066 46.0538 29.6066 45.8502Z" fill="#CEAF7E"/>
<path d="M4.36611 64.9734C4.03025 64.9734 3.76157 64.8728 3.56006 64.6716C3.35854 64.4705 3.25779 64.1967 3.25779 63.8502C3.25779 63.5261 3.35854 63.2635 3.56006 63.0623C3.76157 62.8612 4.03025 62.7606 4.36611 62.7606C4.70196 62.7606 4.96505 62.8612 5.15536 63.0623C5.35688 63.2523 5.45763 63.5149 5.45763 63.8502C5.45763 64.599 5.09379 64.9734 4.36611 64.9734ZM10.2268 70.2707H11.7381V72.2991H10.0253C9.64462 72.2991 9.29197 72.2488 8.96731 72.1482C8.7546 73.2211 8.21164 74.0648 7.33842 74.6795C6.55476 75.216 5.60317 75.4842 4.48366 75.4842C2.97231 75.4842 1.80242 74.9533 0.973978 73.8916C0.324659 73.0646 0 72.0923 0 70.9748C0 70.0919 0.20711 69.3207 0.621331 68.6614L2.63646 68.2423C2.18865 69.0022 1.96475 69.8013 1.96475 70.6395C1.96475 71.4888 2.20544 72.1761 2.68683 72.7014C3.14584 73.2043 3.74478 73.4558 4.48366 73.4558C5.25612 73.4558 5.85506 73.2602 6.28048 72.869C6.71709 72.4779 6.93539 71.9303 6.93539 71.2262V65.9624L9.05127 64.856V69.0637C9.05127 69.4996 9.14083 69.8125 9.31996 70.0025C9.49908 70.1813 9.80135 70.2707 10.2268 70.2707Z" fill="#364341"/>
<path d="M12.3302 63.3808C11.9943 63.3808 11.7256 63.2803 11.5241 63.0791C11.3226 62.8779 11.2219 62.6041 11.2219 62.2577C11.2219 61.9336 11.3226 61.671 11.5241 61.4698C11.7256 61.2686 11.9943 61.168 12.3302 61.168C12.666 61.168 12.9291 61.2686 13.1194 61.4698C13.321 61.6598 13.4217 61.9224 13.4217 62.2577C13.4217 63.0065 13.0579 63.3808 12.3302 63.3808ZM14.8995 63.3808C14.5636 63.3808 14.2949 63.2803 14.0934 63.0791C13.8919 62.8668 13.7911 62.593 13.7911 62.2577C13.7911 61.9336 13.8919 61.671 14.0934 61.4698C14.3061 61.2686 14.5748 61.168 14.8995 61.168C15.2353 61.168 15.4984 61.2686 15.6887 61.4698C15.8902 61.6598 15.991 61.9224 15.991 62.2577C15.991 63.0065 15.6272 63.3808 14.8995 63.3808ZM16.7131 70.2707H18.2244V72.2991H16.5116C15.6943 72.2991 15.017 72.0812 14.4797 71.6453C13.9423 72.0812 13.265 72.2991 12.4477 72.2991H10.7349V70.2707H12.2462C12.6716 70.2707 12.9739 70.1813 13.153 70.0025C13.3321 69.8125 13.4217 69.4996 13.4217 69.0637V65.9624L15.5376 64.856V69.0637C15.5376 69.4996 15.6272 69.8125 15.8063 70.0025C15.9854 70.1813 16.2877 70.2707 16.7131 70.2707Z" fill="#364341"/>
<path d="M27.8927 70.2707H29.3873V72.2991H27.6744C26.8683 72.2991 26.2078 72.0923 25.6929 71.6788C25.0883 72.3158 24.2935 72.6344 23.3083 72.6344C22.3007 72.6344 21.5059 72.3158 20.9237 71.6788C20.3864 72.0923 19.7202 72.2991 18.9254 72.2991H17.2125V70.2707H18.7239C19.1493 70.2707 19.4516 70.1813 19.6307 70.0025C19.8098 69.8125 19.8994 69.4996 19.8994 69.0637V68.5776C19.8994 67.27 20.2408 66.253 20.9237 65.5266C21.5171 64.8896 22.3119 64.5711 23.3083 64.5711C24.439 64.5711 25.3122 64.9846 25.928 65.8116C26.4429 66.5156 26.7004 67.4376 26.7004 68.5776V69.0637C26.7004 69.4996 26.79 69.8125 26.9691 70.0025C27.1594 70.1813 27.4673 70.2707 27.8927 70.2707ZM23.3083 70.6059C24.1591 70.6059 24.5845 69.9131 24.5845 68.5273C24.5845 67.1974 24.1591 66.5324 23.3083 66.5324C22.4463 66.5324 22.0152 67.1974 22.0152 68.5273C22.0152 69.9131 22.4463 70.6059 23.3083 70.6059Z" fill="#364341"/>
<path d="M28.3803 72.2991V70.2707H29.4383C29.9533 70.2707 30.3171 70.1589 30.5298 69.9354C30.7537 69.7119 30.8657 69.3319 30.8657 68.7955V62.6097L32.9648 61.4866V68.8122C32.9648 69.8963 32.6345 70.7624 31.974 71.4106C31.3694 72.0029 30.5634 72.2991 29.5558 72.2991H28.3803Z" fill="#364341"/>
<path d="M35.9876 72.2991V62.6097L38.1035 61.4866V72.2991H35.9876Z" fill="#364341"/>
<path d="M48.2446 72.2991C47.2258 72.2991 46.4365 71.975 45.8768 71.3268C45.3954 70.768 45.1547 70.0472 45.1547 69.1643V62.593L47.2706 61.4866V69.0637C47.2706 69.4996 47.3601 69.8125 47.5393 70.0025C47.7184 70.1813 48.0206 70.2707 48.4461 70.2707H49.9574V72.2991H48.2446Z" fill="#364341"/>
<path d="M54.9231 70.2707H56.4344V72.2991H54.7216C53.9043 72.2991 53.227 72.0812 52.6896 71.6453C52.1523 72.0812 51.475 72.2991 50.6577 72.2991H48.9449V70.2707H50.4562C50.8816 70.2707 51.1839 70.1813 51.363 70.0025C51.5421 69.8125 51.6317 69.4996 51.6317 69.0637V65.9624L53.7476 64.856V69.0637C53.7476 69.4996 53.8371 69.8125 54.0163 70.0025C54.1954 70.1813 54.4977 70.2707 54.9231 70.2707ZM50.5738 73.8246C50.9096 73.8246 51.1727 73.9196 51.363 74.1096C51.5645 74.3107 51.6653 74.5789 51.6653 74.9142C51.6653 75.663 51.3014 76.0374 50.5738 76.0374C50.2379 76.0374 49.9692 75.9368 49.7677 75.7356C49.5662 75.5345 49.4654 75.2607 49.4654 74.9142C49.4654 74.1878 49.8349 73.8246 50.5738 73.8246ZM53.1598 73.8246C53.4957 73.8246 53.7588 73.9196 53.9491 74.1096C54.1506 74.3107 54.2514 74.5789 54.2514 74.9142C54.2514 75.663 53.8875 76.0374 53.1598 76.0374C52.824 76.0374 52.5553 75.9368 52.3538 75.7356C52.1523 75.5345 52.0515 75.2607 52.0515 74.9142C52.0515 74.1878 52.421 73.8246 53.1598 73.8246Z" fill="#364341"/>
<path d="M61.4007 70.2707H62.9121V72.2991H61.1992C60.382 72.2991 59.7047 72.0812 59.1673 71.6453C58.6299 72.0812 57.9526 72.2991 57.1354 72.2991H55.4225V70.2707H56.9339C57.3593 70.2707 57.6615 70.1813 57.8407 70.0025C58.0198 69.8125 58.1094 69.4996 58.1094 69.0637V65.9624L60.2252 64.856V69.0637C60.2252 69.4996 60.3148 69.8125 60.4939 70.0025C60.673 70.1813 60.9753 70.2707 61.4007 70.2707ZM59.2681 73.8246C59.6039 73.8246 59.867 73.9196 60.0573 74.1096C60.2588 74.3107 60.3596 74.5789 60.3596 74.9142C60.3596 75.663 59.9957 76.0374 59.2681 76.0374C58.9322 76.0374 58.6635 75.9368 58.462 75.7356C58.2605 75.5345 58.1597 75.2607 58.1597 74.9142C58.1597 74.5901 58.2605 74.3275 58.462 74.1263C58.6635 73.9252 58.9322 73.8246 59.2681 73.8246Z" fill="#364341"/>
<path d="M67.5593 70.2539C68.0967 68.6223 68.8804 67.2979 69.9103 66.2809C71.0522 65.141 72.362 64.5711 73.8398 64.5711C75.1608 64.5711 76.2188 65.0293 77.0136 65.9457C77.6853 66.7168 78.0212 67.6723 78.0212 68.8122V69.1811C78.0212 70.198 77.7021 70.9915 77.064 71.5615C76.5154 72.0532 75.8046 72.2991 74.9313 72.2991H67.6769C66.8596 72.2991 66.1823 72.0812 65.645 71.6453C65.1076 72.0812 64.4303 72.2991 63.613 72.2991H61.9002V70.2707H63.4115C63.8369 70.2707 64.1392 70.1813 64.3183 70.0025C64.4974 69.8125 64.587 69.4996 64.587 69.0637V66.8509L66.7029 65.7445V69.0637C66.7029 69.779 66.9884 70.1757 67.5593 70.2539ZM75.9053 69.0469V68.8122C75.9053 68.1417 75.715 67.5941 75.3344 67.1694C74.9537 66.7447 74.4611 66.5324 73.8566 66.5324C72.9834 66.5324 72.1661 66.8677 71.4049 67.5382C70.6548 68.2088 70.0614 69.1196 69.6248 70.2707H74.8474C75.2504 70.2707 75.5247 70.1869 75.6702 70.0192C75.8269 69.8404 75.9053 69.5163 75.9053 69.0469Z" fill="#364341"/>
<path d="M83.7159 72.2991C82.6971 72.2991 81.9079 71.975 81.3481 71.3268C80.8667 70.768 80.626 70.0472 80.626 69.1643V62.593L82.7419 61.4866V69.0637C82.7419 69.4996 82.8315 69.8125 83.0106 70.0025C83.1897 70.1813 83.492 70.2707 83.9174 70.2707H85.4287V72.2991H83.7159Z" fill="#364341"/>
<path d="M84.4162 72.2991V70.2707H86.9183C88.8886 70.2707 90.456 69.684 91.6203 68.5105C90.859 67.1806 89.9354 66.5156 88.8495 66.5156C87.9539 66.5156 86.9743 67.0018 85.9107 67.9741V66.1133C86.8511 65.0851 87.9147 64.5711 89.1014 64.5711C89.9746 64.5711 90.8254 64.8896 91.6539 65.5266C92.4823 66.1636 93.2156 67.0688 93.8537 68.2423V69.0805C93.0477 70.1086 92.0401 70.9021 90.831 71.4609C89.6331 72.0197 88.3233 72.2991 86.9015 72.2991H84.4162Z" fill="#364341"/>
<path d="M16.1211 78.8303V86.1889H14.7447V82.9727H11.2833V86.1889H9.9069V78.8303H11.2833V81.9956H14.7447V78.8303H16.1211Z" fill="#364341"/>
<path d="M20.1974 83.96C19.8338 83.9769 19.5279 84.0092 19.2798 84.0567C19.0317 84.1008 18.8329 84.1584 18.6834 84.2297C18.5338 84.3009 18.4268 84.384 18.3622 84.479C18.2976 84.574 18.2654 84.6775 18.2654 84.7895C18.2654 85.01 18.3299 85.1677 18.4591 85.2627C18.5916 85.3577 18.7632 85.4052 18.974 85.4052C19.2322 85.4052 19.4548 85.3594 19.6418 85.2678C19.8321 85.1728 20.0173 85.0303 20.1974 84.8404V83.96ZM17.3121 81.6954C17.9136 81.1458 18.6375 80.871 19.4837 80.871C19.7896 80.871 20.0632 80.9219 20.3045 81.0236C20.5458 81.122 20.7497 81.2611 20.9162 81.4409C21.0827 81.6174 21.2085 81.8294 21.2934 82.0771C21.3818 82.3247 21.426 82.5961 21.426 82.8913V86.1889H20.855C20.7361 86.1889 20.6443 86.172 20.5798 86.138C20.5152 86.1007 20.4642 86.0278 20.4268 85.9192L20.3147 85.5426C20.1821 85.6614 20.053 85.7665 19.9272 85.8581C19.8015 85.9464 19.6706 86.021 19.5347 86.0821C19.3988 86.1431 19.2526 86.1889 19.0963 86.2195C18.9434 86.2534 18.7734 86.2704 18.5865 86.2704C18.3656 86.2704 18.1617 86.2415 17.9748 86.1838C17.7879 86.1228 17.6264 86.0329 17.4905 85.9141C17.3546 85.7954 17.2492 85.6478 17.1744 85.4714C17.0997 85.295 17.0623 85.0897 17.0623 84.8556C17.0623 84.7233 17.0844 84.5927 17.1286 84.4638C17.1727 84.3315 17.2441 84.2059 17.3427 84.0872C17.4446 83.9684 17.5755 83.8565 17.7352 83.7513C17.8949 83.6461 18.0903 83.5546 18.3214 83.4765C18.5559 83.3985 18.8278 83.3357 19.1371 83.2882C19.4463 83.2373 19.7998 83.2068 20.1974 83.1966V82.8913C20.1974 82.5418 20.1227 82.284 19.9731 82.1178C19.8236 81.9481 19.6078 81.8633 19.3257 81.8633C19.1218 81.8633 18.9519 81.8871 18.8159 81.9346C18.6834 81.9821 18.5661 82.0363 18.4642 82.0974C18.3622 82.1551 18.2688 82.2077 18.1838 82.2552C18.1022 82.3027 18.0105 82.3264 17.9085 82.3264C17.8202 82.3264 17.7454 82.3044 17.6842 82.2603C17.623 82.2128 17.5738 82.1585 17.5364 82.0974L17.3121 81.6954Z" fill="#364341"/>
<path d="M25.8031 81.9855C25.7691 82.0397 25.7334 82.0788 25.696 82.1025C25.6586 82.1229 25.6111 82.133 25.5533 82.133C25.4921 82.133 25.4258 82.1161 25.3545 82.0821C25.2865 82.0482 25.2066 82.0109 25.1149 81.9702C25.0231 81.9261 24.9178 81.8871 24.7988 81.8531C24.6833 81.8192 24.5456 81.8022 24.3859 81.8022C24.1378 81.8022 23.9424 81.8548 23.7996 81.96C23.6603 82.0652 23.5906 82.2026 23.5906 82.3722C23.5906 82.4842 23.6263 82.5792 23.6977 82.6572C23.7725 82.7318 23.8693 82.798 23.9883 82.8557C24.1106 82.9133 24.2483 82.9659 24.4012 83.0134C24.5541 83.0575 24.7087 83.1067 24.8651 83.161C25.0248 83.2153 25.1811 83.2781 25.3341 83.3493C25.487 83.4172 25.623 83.5054 25.7419 83.6139C25.8643 83.7191 25.9611 83.8463 26.0325 83.9956C26.1072 84.1449 26.1446 84.3247 26.1446 84.535C26.1446 84.7861 26.0987 85.0185 26.007 85.2322C25.9186 85.4425 25.7861 85.6258 25.6094 85.7818C25.4326 85.9345 25.2134 86.0549 24.9517 86.1431C24.6935 86.2279 24.3944 86.2704 24.0545 86.2704C23.8744 86.2704 23.6977 86.2534 23.5244 86.2195C23.3544 86.1889 23.1896 86.1448 23.0299 86.0872C22.8735 86.0295 22.7274 85.9616 22.5915 85.8836C22.4589 85.8056 22.3417 85.7207 22.2397 85.6292L22.5303 85.1508C22.5677 85.0931 22.6119 85.049 22.6628 85.0185C22.7138 84.9879 22.7784 84.9727 22.8566 84.9727C22.9347 84.9727 23.0078 84.9947 23.0758 85.0388C23.1471 85.0829 23.2287 85.1304 23.3205 85.1813C23.4122 85.2322 23.5193 85.2797 23.6416 85.3238C23.7674 85.3679 23.9254 85.39 24.1157 85.39C24.2652 85.39 24.3927 85.373 24.498 85.3391C24.6068 85.3018 24.6952 85.2543 24.7631 85.1966C24.8345 85.1389 24.8855 85.0727 24.9161 84.9981C24.95 84.9201 24.967 84.8404 24.967 84.7589C24.967 84.6368 24.9297 84.5367 24.8549 84.4587C24.7835 84.3807 24.6867 84.3128 24.5643 84.2551C24.4454 84.1974 24.3077 84.1466 24.1514 84.1025C23.9985 84.055 23.8404 84.0041 23.6773 83.9498C23.5176 83.8955 23.3595 83.8327 23.2032 83.7615C23.0503 83.6869 22.9126 83.5936 22.7903 83.4816C22.6713 83.3696 22.5745 83.2322 22.4997 83.0694C22.4283 82.9065 22.3927 82.7098 22.3927 82.4791C22.3927 82.2654 22.4351 82.0618 22.5201 81.8684C22.6051 81.675 22.7291 81.5071 22.8922 81.3646C23.0588 81.2187 23.2644 81.1034 23.5091 81.0185C23.7572 80.9303 24.0426 80.8862 24.3655 80.8862C24.7257 80.8862 25.0537 80.9456 25.3494 81.0644C25.645 81.1831 25.8914 81.3392 26.0886 81.5325L25.8031 81.9855Z" fill="#364341"/>
<path d="M28.3515 84.8353C28.4942 85.0083 28.6489 85.1304 28.8154 85.2017C28.9853 85.2729 29.1637 85.3085 29.3507 85.3085C29.5444 85.3085 29.7177 85.2746 29.8706 85.2068C30.027 85.1355 30.1595 85.027 30.2683 84.8811C30.377 84.7318 30.4603 84.5435 30.5181 84.3162C30.5758 84.0855 30.6047 83.8107 30.6047 83.4918C30.6047 82.9184 30.5096 82.5045 30.3192 82.2501C30.1289 81.9922 29.8553 81.8633 29.4985 81.8633C29.2572 81.8633 29.0465 81.9193 28.8664 82.0313C28.6862 82.1398 28.5146 82.2942 28.3515 82.4943V84.8353ZM28.3515 81.6089C28.5622 81.3884 28.795 81.2136 29.0499 81.0847C29.3082 80.9524 29.6021 80.8862 29.9318 80.8862C30.2343 80.8862 30.5062 80.9456 30.7475 81.0644C30.9921 81.1831 31.1995 81.3544 31.3694 81.5783C31.5427 81.7989 31.6753 82.0669 31.767 82.3824C31.8588 82.6979 31.9047 83.0524 31.9047 83.446C31.9047 83.8701 31.852 84.2551 31.7466 84.6012C31.6413 84.9472 31.49 85.2441 31.2929 85.4917C31.0992 85.736 30.8647 85.926 30.5894 86.0617C30.3141 86.1974 30.0083 86.2653 29.6718 86.2653C29.5087 86.2653 29.3609 86.2483 29.2283 86.2144C29.0958 86.1838 28.9734 86.1397 28.8613 86.0821C28.7491 86.0244 28.6455 85.9548 28.5503 85.8734C28.4585 85.7886 28.3702 85.6953 28.2852 85.5935L28.2291 85.9447C28.2088 86.0329 28.1731 86.0956 28.1221 86.133C28.0745 86.1703 28.0082 86.1889 27.9233 86.1889H27.0923V78.6268H28.3515V81.6089Z" fill="#364341"/>
<path d="M35.6401 83.96C35.2765 83.9769 34.9706 84.0092 34.7225 84.0567C34.4744 84.1008 34.2756 84.1584 34.1261 84.2297C33.9766 84.3009 33.8695 84.384 33.8049 84.479C33.7404 84.574 33.7081 84.6775 33.7081 84.7895C33.7081 85.01 33.7726 85.1677 33.9018 85.2627C34.0343 85.3577 34.206 85.4052 34.4167 85.4052C34.675 85.4052 34.8976 85.3594 35.0845 85.2678C35.2748 85.1728 35.46 85.0303 35.6401 84.8404V83.96ZM32.7548 81.6954C33.3563 81.1458 34.0802 80.871 34.9264 80.871C35.2323 80.871 35.5059 80.9219 35.7472 81.0236C35.9885 81.122 36.1924 81.2611 36.3589 81.4409C36.5255 81.6174 36.6512 81.8294 36.7362 82.0771C36.8245 82.3247 36.8687 82.5961 36.8687 82.8913V86.1889H36.2977C36.1788 86.1889 36.087 86.172 36.0225 86.138C35.9579 86.1007 35.9069 86.0278 35.8695 85.9192L35.7574 85.5426C35.6248 85.6614 35.4957 85.7665 35.37 85.8581C35.2442 85.9464 35.1134 86.021 34.9774 86.0821C34.8415 86.1431 34.6953 86.1889 34.539 86.2195C34.3861 86.2534 34.2162 86.2704 34.0292 86.2704C33.8083 86.2704 33.6044 86.2415 33.4175 86.1838C33.2306 86.1228 33.0691 86.0329 32.9332 85.9141C32.7973 85.7954 32.6919 85.6478 32.6171 85.4714C32.5424 85.295 32.505 85.0897 32.505 84.8556C32.505 84.7233 32.5271 84.5927 32.5713 84.4638C32.6154 84.3315 32.6868 84.2059 32.7854 84.0872C32.8873 83.9684 33.0182 83.8565 33.1779 83.7513C33.3376 83.6461 33.533 83.5546 33.7641 83.4765C33.9986 83.3985 34.2705 83.3357 34.5798 83.2882C34.8891 83.2373 35.2425 83.2068 35.6401 83.1966V82.8913C35.6401 82.5418 35.5654 82.284 35.4158 82.1178C35.2663 81.9481 35.0505 81.8633 34.7684 81.8633C34.5645 81.8633 34.3946 81.8871 34.2586 81.9346C34.1261 81.9821 34.0088 82.0363 33.9069 82.0974C33.8049 82.1551 33.7115 82.2077 33.6265 82.2552C33.5449 82.3027 33.4532 82.3264 33.3512 82.3264C33.2629 82.3264 33.1881 82.3044 33.1269 82.2603C33.0658 82.2128 33.0165 82.1585 32.9791 82.0974L32.7548 81.6954Z" fill="#364341"/>
<path d="M42.6564 80.9677L39.8067 87.624C39.7693 87.7122 39.72 87.7784 39.6589 87.8225C39.6011 87.87 39.511 87.8937 39.3887 87.8937H38.4507L39.4295 85.7971L37.3139 80.9677H38.4201C38.5187 80.9677 38.5951 80.9914 38.6495 81.0389C38.7073 81.0864 38.7498 81.1407 38.7769 81.2018L39.8883 83.9091C39.9257 84.0007 39.9562 84.0923 39.98 84.1839C40.0072 84.2755 40.0327 84.3688 40.0565 84.4638C40.0871 84.3688 40.1177 84.2755 40.1483 84.1839C40.1788 84.0889 40.2128 83.9956 40.2502 83.904L41.3004 81.2018C41.3275 81.1339 41.3717 81.0779 41.4329 81.0338C41.4975 80.9897 41.5688 80.9677 41.647 80.9677H42.6564Z" fill="#364341"/>
<path d="M45.9253 83.96C45.5617 83.9769 45.2558 84.0092 45.0077 84.0567C44.7596 84.1008 44.5608 84.1584 44.4113 84.2297C44.2617 84.3009 44.1547 84.384 44.0901 84.479C44.0255 84.574 43.9933 84.6775 43.9933 84.7895C43.9933 85.01 44.0578 85.1677 44.187 85.2627C44.3195 85.3577 44.4911 85.4052 44.7019 85.4052C44.9601 85.4052 45.1827 85.3594 45.3697 85.2678C45.56 85.1728 45.7452 85.0303 45.9253 84.8404V83.96ZM43.04 81.6954C43.6415 81.1458 44.3654 80.871 45.2116 80.871C45.5175 80.871 45.7911 80.9219 46.0324 81.0236C46.2737 81.122 46.4776 81.2611 46.6441 81.4409C46.8106 81.6174 46.9364 81.8294 47.0213 82.0771C47.1097 82.3247 47.1539 82.5961 47.1539 82.8913V86.1889H46.5829C46.464 86.1889 46.3722 86.172 46.3077 86.138C46.2431 86.1007 46.1921 86.0278 46.1547 85.9192L46.0426 85.5426C45.91 85.6614 45.7809 85.7665 45.6551 85.8581C45.5294 85.9464 45.3985 86.021 45.2626 86.0821C45.1267 86.1431 44.9805 86.1889 44.8242 86.2195C44.6713 86.2534 44.5013 86.2704 44.3144 86.2704C44.0935 86.2704 43.8896 86.2415 43.7027 86.1838C43.5158 86.1228 43.3543 86.0329 43.2184 85.9141C43.0825 85.7954 42.9771 85.6478 42.9023 85.4714C42.8276 85.295 42.7902 85.0897 42.7902 84.8556C42.7902 84.7233 42.8123 84.5927 42.8564 84.4638C42.9006 84.3315 42.972 84.2059 43.0706 84.0872C43.1725 83.9684 43.3034 83.8565 43.4631 83.7513C43.6228 83.6461 43.8182 83.5546 44.0493 83.4765C44.2838 83.3985 44.5557 83.3357 44.865 83.2882C45.1742 83.2373 45.5277 83.2068 45.9253 83.1966V82.8913C45.9253 82.5418 45.8506 82.284 45.701 82.1178C45.5515 81.9481 45.3357 81.8633 45.0536 81.8633C44.8497 81.8633 44.6798 81.8871 44.5438 81.9346C44.4113 81.9821 44.294 82.0363 44.1921 82.0974C44.0901 82.1551 43.9967 82.2077 43.9117 82.2552C43.8301 82.3027 43.7384 82.3264 43.6364 82.3264C43.5481 82.3264 43.4733 82.3044 43.4121 82.2603C43.3509 82.2128 43.3017 82.1585 43.2643 82.0974L43.04 81.6954Z" fill="#364341"/>
<path d="M53.582 83.96C53.2183 83.9769 52.9124 84.0092 52.6644 84.0567C52.4163 84.1008 52.2175 84.1584 52.0679 84.2297C51.9184 84.3009 51.8113 84.384 51.7468 84.479C51.6822 84.574 51.6499 84.6775 51.6499 84.7895C51.6499 85.01 51.7145 85.1677 51.8436 85.2627C51.9762 85.3577 52.1478 85.4052 52.3585 85.4052C52.6168 85.4052 52.8394 85.3594 53.0263 85.2678C53.2166 85.1728 53.4018 85.0303 53.582 84.8404V83.96ZM50.6966 81.6954C51.2981 81.1458 52.022 80.871 52.8683 80.871C53.1741 80.871 53.4477 80.9219 53.689 81.0236C53.9303 81.122 54.1342 81.2611 54.3008 81.4409C54.4673 81.6174 54.593 81.8294 54.678 82.0771C54.7663 82.3247 54.8105 82.5961 54.8105 82.8913V86.1889H54.2396C54.1206 86.1889 54.0289 86.172 53.9643 86.138C53.8997 86.1007 53.8487 86.0278 53.8114 85.9192L53.6992 85.5426C53.5667 85.6614 53.4375 85.7665 53.3118 85.8581C53.186 85.9464 53.0552 86.021 52.9192 86.0821C52.7833 86.1431 52.6372 86.1889 52.4808 86.2195C52.3279 86.2534 52.158 86.2704 51.9711 86.2704C51.7502 86.2704 51.5462 86.2415 51.3593 86.1838C51.1724 86.1228 51.011 86.0329 50.875 85.9141C50.7391 85.7954 50.6337 85.6478 50.559 85.4714C50.4842 85.295 50.4468 85.0897 50.4468 84.8556C50.4468 84.7233 50.4689 84.5927 50.5131 84.4638C50.5573 84.3315 50.6286 84.2059 50.7272 84.0872C50.8292 83.9684 50.96 83.8565 51.1197 83.7513C51.2795 83.6461 51.4749 83.5546 51.706 83.4765C51.9405 83.3985 52.2124 83.3357 52.5216 83.2882C52.8309 83.2373 53.1843 83.2068 53.582 83.1966V82.8913C53.582 82.5418 53.5072 82.284 53.3577 82.1178C53.2081 81.9481 52.9923 81.8633 52.7102 81.8633C52.5063 81.8633 52.3364 81.8871 52.2005 81.9346C52.0679 81.9821 51.9507 82.0363 51.8487 82.0974C51.7468 82.1551 51.6533 82.2077 51.5683 82.2552C51.4868 82.3027 51.395 82.3264 51.2931 82.3264C51.2047 82.3264 51.1299 82.3044 51.0688 82.2603C51.0076 82.2128 50.9583 82.1585 50.9209 82.0974L50.6966 81.6954Z" fill="#364341"/>
<path d="M57.2709 78.6268V86.1889H56.0117V78.6268H57.2709Z" fill="#364341"/>
<path d="M58.4846 82.591H61.1253V83.6394H58.4846V82.591Z" fill="#364341"/>
<path d="M70.521 78.8303V86.1889H69.3128V81.4359C69.3128 81.2459 69.323 81.0406 69.3434 80.8201L67.1156 84.9981C67.0103 85.1983 66.8488 85.2984 66.6313 85.2984H66.4376C66.2201 85.2984 66.0587 85.1983 65.9533 84.9981L63.7001 80.8048C63.7103 80.9168 63.7188 81.027 63.7256 81.1356C63.7324 81.2442 63.7358 81.3442 63.7358 81.4359V86.1889H62.5276V78.8303H63.5625C63.6236 78.8303 63.6763 78.832 63.7205 78.8354C63.7647 78.8388 63.8038 78.8473 63.8378 78.8608C63.8751 78.8744 63.9074 78.8965 63.9346 78.927C63.9652 78.9575 63.9941 78.9982 64.0213 79.0491L66.2286 83.1356C66.2864 83.2441 66.3391 83.3561 66.3867 83.4714C66.4376 83.5868 66.4869 83.7055 66.5345 83.8277C66.5821 83.7021 66.6313 83.5817 66.6823 83.4663C66.7333 83.3476 66.7877 83.2339 66.8455 83.1254L69.0222 79.0491C69.0494 78.9982 69.0783 78.9575 69.1089 78.927C69.1395 78.8965 69.1717 78.8744 69.2057 78.8608C69.2431 78.8473 69.2839 78.8388 69.3281 78.8354C69.3723 78.832 69.4249 78.8303 69.4861 78.8303H70.521Z" fill="#364341"/>
<path d="M74.6004 83.96C74.2367 83.9769 73.9309 84.0092 73.6828 84.0567C73.4347 84.1008 73.2359 84.1584 73.0863 84.2297C72.9368 84.3009 72.8298 84.384 72.7652 84.479C72.7006 84.574 72.6683 84.6775 72.6683 84.7895C72.6683 85.01 72.7329 85.1677 72.862 85.2627C72.9946 85.3577 73.1662 85.4052 73.3769 85.4052C73.6352 85.4052 73.8578 85.3594 74.0447 85.2678C74.235 85.1728 74.4203 85.0303 74.6004 84.8404V83.96ZM71.715 81.6954C72.3166 81.1458 73.0405 80.871 73.8867 80.871C74.1926 80.871 74.4661 80.9219 74.7074 81.0236C74.9487 81.122 75.1526 81.2611 75.3192 81.4409C75.4857 81.6174 75.6114 81.8294 75.6964 82.0771C75.7848 82.3247 75.8289 82.5961 75.8289 82.8913V86.1889H75.258C75.1391 86.1889 75.0473 86.172 74.9827 86.138C74.9181 86.1007 74.8672 86.0278 74.8298 85.9192L74.7176 85.5426C74.5851 85.6614 74.4559 85.7665 74.3302 85.8581C74.2045 85.9464 74.0736 86.021 73.9377 86.0821C73.8017 86.1431 73.6556 86.1889 73.4993 86.2195C73.3463 86.2534 73.1764 86.2704 72.9895 86.2704C72.7686 86.2704 72.5647 86.2415 72.3778 86.1838C72.1908 86.1228 72.0294 86.0329 71.8935 85.9141C71.7575 85.7954 71.6522 85.6478 71.5774 85.4714C71.5026 85.295 71.4652 85.0897 71.4652 84.8556C71.4652 84.7233 71.4873 84.5927 71.5315 84.4638C71.5757 84.3315 71.6471 84.2059 71.7456 84.0872C71.8476 83.9684 71.9784 83.8565 72.1382 83.7513C72.2979 83.6461 72.4933 83.5546 72.7244 83.4765C72.9589 83.3985 73.2308 83.3357 73.54 83.2882C73.8493 83.2373 74.2028 83.2068 74.6004 83.1966V82.8913C74.6004 82.5418 74.5256 82.284 74.3761 82.1178C74.2265 81.9481 74.0107 81.8633 73.7287 81.8633C73.5247 81.8633 73.3548 81.8871 73.2189 81.9346C73.0863 81.9821 72.9691 82.0363 72.8671 82.0974C72.7652 82.1551 72.6717 82.2077 72.5868 82.2552C72.5052 82.3027 72.4134 82.3264 72.3115 82.3264C72.2231 82.3264 72.1483 82.3044 72.0872 82.2603C72.026 82.2128 71.9767 82.1585 71.9393 82.0974L71.715 81.6954Z" fill="#364341"/>
<path d="M78.6886 86.2704C78.2332 86.2704 77.8831 86.1431 77.6384 85.8887C77.3971 85.6308 77.2765 85.2763 77.2765 84.8251V81.9091H76.7412C76.6732 81.9091 76.6155 81.8871 76.5679 81.843C76.5203 81.7989 76.4965 81.7327 76.4965 81.6445V81.1458L77.3377 81.0084L77.6027 79.5835C77.6197 79.5156 77.652 79.463 77.6996 79.4257C77.7472 79.3884 77.8083 79.3697 77.8831 79.3697H78.5356V81.0135H79.9324V81.9091H78.5356V84.7386C78.5356 84.9014 78.5747 85.0286 78.6529 85.1202C78.7345 85.2118 78.8449 85.2577 78.9842 85.2577C79.0624 85.2577 79.127 85.2492 79.178 85.2322C79.2323 85.2118 79.2782 85.1915 79.3156 85.1711C79.3564 85.1508 79.3921 85.1321 79.4226 85.1152C79.4532 85.0948 79.4838 85.0846 79.5144 85.0846C79.5518 85.0846 79.5824 85.0948 79.6062 85.1152C79.63 85.1321 79.6555 85.1593 79.6826 85.1966L80.0599 85.8073C79.8764 85.9599 79.6656 86.0753 79.4277 86.1533C79.1898 86.2313 78.9435 86.2704 78.6886 86.2704Z" fill="#364341"/>
<path d="M81.9162 81.6089C82.0215 81.5037 82.132 81.407 82.2476 81.3188C82.3665 81.2272 82.4905 81.1509 82.6197 81.0898C82.7522 81.0253 82.8933 80.9762 83.0428 80.9422C83.1923 80.9049 83.3555 80.8862 83.5322 80.8862C83.8177 80.8862 84.0709 80.9354 84.2918 81.0338C84.5127 81.1288 84.6962 81.2645 84.8423 81.4409C84.9919 81.614 85.104 81.8226 85.1788 82.0669C85.2569 82.3078 85.296 82.5741 85.296 82.8658V86.1889H84.0369V82.8658C84.0369 82.5469 83.9638 82.301 83.8177 82.128C83.6715 81.9515 83.4489 81.8633 83.1498 81.8633C82.9323 81.8633 82.7284 81.9125 82.5381 82.0109C82.3478 82.1093 82.1677 82.2433 81.9977 82.4129V86.1889H80.7386V80.9677H81.5084C81.6715 80.9677 81.7785 81.044 81.8295 81.1967L81.9162 81.6089Z" fill="#364341"/>
<path d="M28.4775 89.0744V96.3668H27.6109V91.0082C27.6109 90.9369 27.6126 90.8606 27.616 90.7792C27.6228 90.6977 27.6296 90.6146 27.6364 90.5298L25.1283 95.0895C25.0501 95.2422 24.9312 95.3185 24.7715 95.3185H24.6287C24.469 95.3185 24.35 95.2422 24.2719 95.0895L21.7128 90.5095C21.7332 90.6893 21.7434 90.8555 21.7434 91.0082V96.3668H20.8767V89.0744H21.6057C21.6941 89.0744 21.7621 89.0828 21.8096 89.0998C21.8572 89.1168 21.9031 89.1643 21.9473 89.2423L24.4707 93.7308C24.5115 93.8122 24.5505 93.897 24.5879 93.9852C24.6287 94.0734 24.6661 94.1633 24.7001 94.2549C24.7341 94.1633 24.7698 94.0734 24.8071 93.9852C24.8445 93.8936 24.8853 93.8071 24.9295 93.7257L27.407 89.2423C27.4478 89.1643 27.492 89.1168 27.5395 89.0998C27.5905 89.0828 27.6602 89.0744 27.7486 89.0744H28.4775Z" fill="#364341"/>
<path d="M34.2882 91.2117V96.3668H33.7479C33.6187 96.3668 33.5372 96.3041 33.5032 96.1785L33.4318 95.6238C33.2075 95.8715 32.956 96.0717 32.6773 96.2243C32.3986 96.3736 32.0792 96.4482 31.7189 96.4482C31.4369 96.4482 31.1871 96.4025 30.9696 96.3109C30.7555 96.2159 30.5753 96.0835 30.4292 95.9139C30.2831 95.7443 30.1726 95.539 30.0978 95.2982C30.0265 95.0573 29.9908 94.791 29.9908 94.4992V91.2117H30.8982V94.4992C30.8982 94.8893 30.9866 95.1913 31.1633 95.405C31.3434 95.6188 31.617 95.7256 31.984 95.7256C32.2525 95.7256 32.5023 95.6629 32.7334 95.5373C32.9679 95.4084 33.1837 95.232 33.3808 95.0081V91.2117H34.2882Z" fill="#364341"/>
<path d="M36.5834 91.9598C36.6956 91.8343 36.8145 91.7206 36.9403 91.6188C37.066 91.5171 37.1986 91.4305 37.3379 91.3593C37.4806 91.2847 37.6302 91.2287 37.7865 91.1914C37.9462 91.1507 38.1179 91.1303 38.3014 91.1303C38.5835 91.1303 38.8316 91.1778 39.0457 91.2728C39.2632 91.3644 39.4433 91.4967 39.586 91.6697C39.7322 91.8394 39.8426 92.0446 39.9174 92.2855C39.9921 92.5264 40.0295 92.7927 40.0295 93.0845V96.3668H39.117V93.0845C39.117 92.6943 39.027 92.3924 38.8468 92.1786C38.6701 91.9615 38.3999 91.8529 38.0363 91.8529C37.7678 91.8529 37.5163 91.9174 37.2818 92.0463C37.0507 92.1752 36.8366 92.3499 36.6395 92.5705V96.3668H35.727V91.2117H36.2725C36.4016 91.2117 36.4815 91.2745 36.5121 91.4L36.5834 91.9598Z" fill="#364341"/>
<path d="M42.3706 91.2117V96.3668H41.4632V91.2117H42.3706ZM42.5643 89.5934C42.5643 89.6816 42.5456 89.7648 42.5082 89.8428C42.4743 89.9174 42.4267 89.9853 42.3655 90.0464C42.3077 90.104 42.2381 90.1498 42.1565 90.1838C42.0783 90.2177 41.9951 90.2346 41.9067 90.2346C41.8183 90.2346 41.7351 90.2177 41.6569 90.1838C41.5822 90.1498 41.5159 90.104 41.4581 90.0464C41.4003 89.9853 41.3545 89.9174 41.3205 89.8428C41.2865 89.7648 41.2695 89.6816 41.2695 89.5934C41.2695 89.5052 41.2865 89.4221 41.3205 89.3441C41.3545 89.2627 41.4003 89.1931 41.4581 89.1354C41.5159 89.0744 41.5822 89.0269 41.6569 88.9929C41.7351 88.959 41.8183 88.9421 41.9067 88.9421C41.9951 88.9421 42.0783 88.959 42.1565 88.9929C42.2381 89.0269 42.3077 89.0744 42.3655 89.1354C42.4267 89.1931 42.4743 89.2627 42.5082 89.3441C42.5456 89.4221 42.5643 89.5052 42.5643 89.5934Z" fill="#364341"/>
<path d="M47.4555 92.1277C47.4283 92.1651 47.4011 92.1939 47.3739 92.2142C47.3467 92.2346 47.3094 92.2448 47.2618 92.2448C47.2108 92.2448 47.1547 92.2244 47.0936 92.1837C47.0324 92.1396 46.9559 92.0921 46.8642 92.0412C46.7758 91.9903 46.6653 91.9445 46.5328 91.9038C46.4036 91.8597 46.2439 91.8377 46.0536 91.8377C45.7987 91.8377 45.5744 91.8835 45.3807 91.9751C45.187 92.0633 45.0238 92.1922 44.8913 92.3618C44.7622 92.5315 44.6636 92.7367 44.5956 92.9776C44.5311 93.2185 44.4988 93.4882 44.4988 93.7867C44.4988 94.0989 44.5345 94.3771 44.6058 94.6213C44.6772 94.8622 44.7775 95.0658 44.9066 95.232C45.0391 95.3948 45.1972 95.5204 45.3807 95.6086C45.5676 95.6934 45.7766 95.7358 46.0077 95.7358C46.2286 95.7358 46.4104 95.7104 46.5532 95.6595C46.6959 95.6052 46.8132 95.5458 46.9049 95.4814C47.0001 95.4169 47.0783 95.3592 47.1394 95.3083C47.204 95.2541 47.2669 95.2269 47.328 95.2269C47.4028 95.2269 47.4606 95.2557 47.5014 95.3134L47.7563 95.6442C47.6441 95.7833 47.5167 95.902 47.3739 96.0004C47.2312 96.0988 47.0766 96.1819 46.91 96.2498C46.7469 96.3142 46.5753 96.3617 46.3952 96.3923C46.215 96.4228 46.0315 96.4381 45.8446 96.4381C45.5217 96.4381 45.221 96.3787 44.9423 96.26C44.667 96.1412 44.4274 95.9699 44.2235 95.746C44.0196 95.5187 43.8599 95.2405 43.7443 94.9114C43.6288 94.5823 43.571 94.2074 43.571 93.7867C43.571 93.4034 43.6237 93.0488 43.729 92.7231C43.8378 92.3974 43.9941 92.1176 44.198 91.8835C44.4053 91.646 44.6585 91.4611 44.9576 91.3288C45.26 91.1965 45.6067 91.1303 45.9975 91.1303C46.3612 91.1303 46.6806 91.1897 46.9559 91.3084C47.2346 91.4238 47.481 91.5883 47.6951 91.802L47.4555 92.1277Z" fill="#364341"/>
<path d="M49.6887 91.2117V96.3668H48.7813V91.2117H49.6887ZM49.8824 89.5934C49.8824 89.6816 49.8638 89.7648 49.8264 89.8428C49.7924 89.9174 49.7448 89.9853 49.6836 90.0464C49.6259 90.104 49.5562 90.1498 49.4746 90.1838C49.3965 90.2177 49.3132 90.2346 49.2248 90.2346C49.1365 90.2346 49.0532 90.2177 48.975 90.1838C48.9003 90.1498 48.834 90.104 48.7762 90.0464C48.7184 89.9853 48.6726 89.9174 48.6386 89.8428C48.6046 89.7648 48.5876 89.6816 48.5876 89.5934C48.5876 89.5052 48.6046 89.4221 48.6386 89.3441C48.6726 89.2627 48.7184 89.1931 48.7762 89.1354C48.834 89.0744 48.9003 89.0269 48.975 88.9929C49.0532 88.959 49.1365 88.9421 49.2248 88.9421C49.3132 88.9421 49.3965 88.959 49.4746 88.9929C49.5562 89.0269 49.6259 89.0744 49.6836 89.1354C49.7448 89.1931 49.7924 89.2627 49.8264 89.3441C49.8638 89.4221 49.8824 89.5052 49.8824 89.5934Z" fill="#364341"/>
<path d="M52.0922 95.1251C52.2587 95.349 52.4405 95.5068 52.6376 95.5984C52.8348 95.69 53.0557 95.7358 53.3003 95.7358C53.7829 95.7358 54.1534 95.5645 54.4117 95.2218C54.67 94.8792 54.7991 94.3906 54.7991 93.7562C54.7991 93.4203 54.7685 93.132 54.7073 92.8911C54.6496 92.6502 54.5646 92.4534 54.4524 92.3008C54.3403 92.1447 54.2027 92.031 54.0395 91.9598C53.8764 91.8886 53.6912 91.8529 53.4839 91.8529C53.1882 91.8529 52.9282 91.9208 52.7039 92.0565C52.483 92.1922 52.2791 92.3839 52.0922 92.6315V95.1251ZM52.0463 92.0107C52.2638 91.7427 52.5153 91.5272 52.8008 91.3644C53.0862 91.2015 53.4125 91.1201 53.7795 91.1201C54.0786 91.1201 54.3488 91.1778 54.5901 91.2932C54.8314 91.4051 55.037 91.573 55.2069 91.797C55.3769 92.0175 55.5077 92.2923 55.5995 92.6214C55.6912 92.9504 55.7371 93.3287 55.7371 93.7562C55.7371 94.1362 55.6861 94.4907 55.5842 94.8198C55.4822 95.1455 55.3344 95.4288 55.1406 95.6696C54.9503 95.9071 54.7158 96.0954 54.4372 96.2345C54.1619 96.3702 53.8509 96.4381 53.5043 96.4381C53.1882 96.4381 52.9163 96.3855 52.6886 96.2803C52.4643 96.1718 52.2655 96.0225 52.0922 95.8325V98.1123H51.1797V91.2117H51.7251C51.8543 91.2117 51.9341 91.2745 51.9647 91.4L52.0463 92.0107Z" fill="#364341"/>
<path d="M59.6935 94.0463C59.2754 94.0598 58.9186 94.0938 58.6229 94.1481C58.3306 94.1989 58.091 94.2668 57.9041 94.3516C57.7206 94.4364 57.5864 94.5365 57.5014 94.6519C57.4198 94.7672 57.3791 94.8961 57.3791 95.0386C57.3791 95.1743 57.4011 95.2914 57.4453 95.3898C57.4895 95.4881 57.549 95.5696 57.6237 95.634C57.7019 95.6951 57.792 95.7409 57.8939 95.7714C57.9993 95.7986 58.1114 95.8121 58.2304 95.8121C58.3901 95.8121 58.5363 95.7969 58.6688 95.7663C58.8013 95.7324 58.9254 95.6849 59.0409 95.6238C59.1599 95.5628 59.272 95.4898 59.3774 95.405C59.4861 95.3202 59.5915 95.2235 59.6935 95.115V94.0463ZM56.7622 91.9395C57.0477 91.6646 57.3553 91.4594 57.6849 91.3237C58.0146 91.188 58.3799 91.1201 58.7809 91.1201C59.0698 91.1201 59.3264 91.1676 59.5507 91.2626C59.775 91.3576 59.9636 91.4899 60.1166 91.6595C60.2695 91.8292 60.3851 92.0344 60.4632 92.2753C60.5414 92.5162 60.5805 92.7808 60.5805 93.0692V96.3668H60.1777C60.0894 96.3668 60.0214 96.3533 59.9738 96.3261C59.9263 96.2956 59.8889 96.2379 59.8617 96.1531L59.7597 95.6646C59.6238 95.7901 59.4912 95.902 59.3621 96.0004C59.233 96.0954 59.097 96.1768 58.9543 96.2447C58.8115 96.3092 58.6586 96.3584 58.4955 96.3923C58.3357 96.4296 58.1573 96.4482 57.9602 96.4482C57.7597 96.4482 57.5711 96.4211 57.3944 96.3668C57.2176 96.3092 57.063 96.2243 56.9305 96.1124C56.8013 96.0004 56.6977 95.8596 56.6195 95.69C56.5447 95.517 56.5073 95.3134 56.5073 95.0793C56.5073 94.8758 56.5634 94.6807 56.6756 94.4941C56.7877 94.3041 56.9695 94.1362 57.221 93.9903C57.4725 93.8444 57.8005 93.7257 58.2049 93.6341C58.6093 93.5391 59.1055 93.4848 59.6935 93.4712V93.0692C59.6935 92.6689 59.6068 92.3669 59.4335 92.1634C59.2601 91.9564 59.007 91.8529 58.6739 91.8529C58.4496 91.8529 58.261 91.8818 58.108 91.9395C57.9585 91.9937 57.8277 92.0565 57.7155 92.1277C57.6068 92.1956 57.5116 92.2584 57.43 92.316C57.3519 92.3703 57.2737 92.3975 57.1955 92.3975C57.1344 92.3975 57.0817 92.3822 57.0375 92.3516C56.9933 92.3177 56.9559 92.277 56.9254 92.2295L56.7622 91.9395Z" fill="#364341"/>
<path d="M62.9007 88.8708V96.3668H61.9933V88.8708H62.9007Z" fill="#364341"/>
<path d="M65.3306 91.2117V96.3668H64.4232V91.2117H65.3306ZM65.5243 89.5934C65.5243 89.6816 65.5056 89.7648 65.4682 89.8428C65.4342 89.9174 65.3867 89.9853 65.3255 90.0464C65.2677 90.104 65.198 90.1498 65.1165 90.1838C65.0383 90.2177 64.955 90.2346 64.8667 90.2346C64.7783 90.2346 64.695 90.2177 64.6169 90.1838C64.5421 90.1498 64.4758 90.104 64.4181 90.0464C64.3603 89.9853 64.3144 89.9174 64.2804 89.8428C64.2464 89.7648 64.2294 89.6816 64.2294 89.5934C64.2294 89.5052 64.2464 89.4221 64.2804 89.3441C64.3144 89.2627 64.3603 89.1931 64.4181 89.1354C64.4758 89.0744 64.5421 89.0269 64.6169 88.9929C64.695 88.959 64.7783 88.9421 64.8667 88.9421C64.955 88.9421 65.0383 88.959 65.1165 88.9929C65.198 89.0269 65.2677 89.0744 65.3255 89.1354C65.3867 89.1931 65.4342 89.2627 65.4682 89.3441C65.5056 89.4221 65.5243 89.5052 65.5243 89.5934Z" fill="#364341"/>
<path d="M68.4069 96.4482C67.9991 96.4482 67.6847 96.3346 67.4638 96.1073C67.2463 95.88 67.1376 95.5526 67.1376 95.1251V91.97H66.5156C66.4613 91.97 66.4154 91.9547 66.378 91.9242C66.3406 91.8903 66.3219 91.8394 66.3219 91.7715V91.4102L67.1682 91.3033L67.3772 89.7105C67.3874 89.6596 67.4095 89.6189 67.4434 89.5883C67.4808 89.5544 67.5284 89.5375 67.5862 89.5375H68.045V91.3135H69.5386V91.97H68.045V95.0641C68.045 95.2812 68.0977 95.4423 68.203 95.5475C68.3084 95.6527 68.4443 95.7053 68.6108 95.7053C68.706 95.7053 68.7876 95.6934 68.8555 95.6696C68.9269 95.6425 68.9881 95.6137 69.0391 95.5831C69.09 95.5526 69.1325 95.5255 69.1665 95.5017C69.2039 95.4746 69.2362 95.461 69.2634 95.461C69.3109 95.461 69.3534 95.4898 69.3908 95.5475L69.6559 95.9801C69.4996 96.126 69.3109 96.2413 69.09 96.3261C68.8691 96.4075 68.6414 96.4482 68.4069 96.4482Z" fill="#364341"/>
<path d="M74.9311 91.2117L72.0508 97.8884C72.0202 97.9563 71.9811 98.0106 71.9336 98.0513C71.8894 98.092 71.8197 98.1123 71.7245 98.1123H71.0516L71.9947 96.0666L69.8639 91.2117H70.6489C70.7271 91.2117 70.7883 91.2321 70.8324 91.2728C70.88 91.3101 70.9123 91.3525 70.9293 91.4L72.3108 94.6468C72.3652 94.7893 72.4111 94.9385 72.4484 95.0946C72.496 94.9351 72.547 94.7842 72.6014 94.6417L73.9421 91.4C73.9625 91.3457 73.9965 91.3016 74.044 91.2677C74.095 91.2304 74.1511 91.2117 74.2123 91.2117H74.9311Z" fill="#364341"/>
<path d="M21.3302 4.16699C21.4885 4.16699 21.6469 4.16699 21.81 4.16699C21.8799 4.29896 21.9498 4.43093 22.0218 4.5669C23.8047 7.88216 26.0984 10.5924 29.1737 12.7682C29.4456 12.9651 29.7065 13.1747 29.9665 13.387C29.8501 13.6894 29.7825 13.8361 29.4914 13.9913C27.9114 14.4507 26.6738 14.1604 25.1686 13.6265C25.4923 14.2265 25.8444 14.738 26.2931 15.2504C26.3864 15.3577 26.3864 15.3577 26.4817 15.4671C28.3709 17.6101 30.442 19.2932 33.0205 20.5513C33.2601 20.7328 33.2823 20.8792 33.325 21.1701C32.4595 21.8181 31.5802 21.9351 30.5212 21.9334C30.4184 21.9336 30.3157 21.9337 30.2098 21.9339C29.1324 21.9165 28.1237 21.6893 27.0877 21.4096C27.1732 21.5022 27.2587 21.5948 27.3468 21.6902C27.4629 21.8162 27.5789 21.9421 27.695 22.0681C27.7556 22.1339 27.8163 22.1997 27.8788 22.2675C28.2047 22.622 28.5236 22.9801 28.8345 23.3478C29.3253 23.911 29.8811 24.3948 30.4463 24.882C30.6114 25.0267 30.6114 25.0267 30.7799 25.1744C31.6969 25.9606 32.6689 26.6256 33.6849 27.2768C33.5237 27.739 33.3195 28.0577 33.0027 28.4293C32.4912 29.0491 32.0634 29.7048 31.6457 30.3901C30.6728 30.3462 29.8069 30.1008 28.8869 29.7914C28.8474 29.8309 28.8078 29.8704 28.767 29.9111C28.8258 29.9654 28.8845 30.0196 28.9451 30.0756C29.2103 30.3229 29.4721 30.5734 29.7341 30.8241C29.8729 30.9522 29.8729 30.9522 30.0145 31.0828C30.679 31.7255 30.679 31.7255 30.711 32.1782C30.6632 32.2994 30.6154 32.4205 30.5662 32.5454C30.5052 32.7223 30.4443 32.8993 30.3835 33.0763C30.3096 33.276 30.2355 33.4758 30.1614 33.6754C29.533 35.4261 29.296 37.1662 29.1268 39.0113C27.2269 38.7765 25.4243 38.2982 23.6092 37.6942C23.7101 38.4541 23.8139 39.2135 23.9199 39.9727C23.9505 40.1944 23.9806 40.4161 24.0098 40.638C24.1967 42.0549 24.5281 43.3813 24.9671 44.7413C25.0822 45.1043 25.1859 45.4699 25.2885 45.8365C25.3895 45.8416 25.4906 45.8467 25.5947 45.8519C26.6523 45.9149 27.6672 46.057 28.707 46.2631C28.7865 46.2787 28.8659 46.2943 28.9477 46.3104C32.7802 47.0677 36.4972 48.278 40.1934 49.5241C44.934 51.1221 50.2016 52.2293 55.1555 50.8656C55.2513 50.8412 55.3471 50.8168 55.4458 50.7917C59.6695 49.7118 63.3702 47.4261 66.6705 44.6391C66.7466 44.5765 66.8226 44.5138 66.9009 44.4492C66.9753 44.3872 67.0498 44.3251 67.1264 44.2612C67.1931 44.206 67.2598 44.1508 67.3285 44.094C67.8624 43.5847 68.0219 43.0038 68.0574 42.2817C68.0296 41.3244 67.7716 40.4199 67.5397 39.4959C66.771 36.4221 66.8884 32.9324 68.2299 30.0308C68.293 29.8907 68.356 29.7505 68.421 29.6061C69.4713 27.3494 69.4713 27.3494 70.5089 26.9176C71.0339 27.8873 71.43 28.8438 71.7084 29.9111C71.7297 29.9837 71.7511 30.0562 71.7731 30.131C72.014 31.0386 71.9958 31.9651 71.9932 32.8971C71.9931 33.0292 71.9931 33.0292 71.993 33.1639C71.9884 34.5263 71.8981 35.7953 71.4685 37.0955C71.3984 37.3219 71.3984 37.3219 71.327 37.553C70.8354 39.0345 70.0516 40.3978 69.3094 41.7654C71.7388 39.3528 74.0008 36.4154 74.5196 32.9645C75.1949 28.8996 76.8218 25.0253 80.2734 22.5321C80.7418 22.212 81.2336 21.9434 81.739 21.6865C81.8214 21.6444 81.9039 21.6023 81.9888 21.5589C82.5777 21.2745 82.5777 21.2745 82.9835 21.4096C83.1538 25.0314 81.7363 28.7705 79.3475 31.4827C79.1618 31.6789 78.9742 31.8733 78.7853 32.0664C78.7286 32.1259 78.6719 32.1855 78.6134 32.2468C77.8396 33.0591 77.047 33.8053 76.1384 34.4668C75.1198 35.2233 74.5177 36.1627 73.9349 37.2751C73.87 37.3964 73.8052 37.5178 73.7383 37.6428C73.5803 37.9387 73.4235 38.2352 73.2677 38.5324C73.712 38.3214 74.0604 38.055 74.4447 37.7466C76.0123 36.5192 77.8146 35.4702 79.7449 34.9402C79.831 34.9156 79.9171 34.8911 80.0059 34.8658C81.4757 34.5082 83.5206 34.4898 84.9026 35.1797C84.7467 36.0776 83.813 36.8183 83.1034 37.335C82.0861 38.0095 81.0091 38.4827 79.8648 38.8916C79.7373 38.9373 79.6097 38.983 79.4783 39.0301C77.9332 39.5248 76.2881 39.6412 74.6794 39.7883C73.3027 39.9166 72.2108 40.1249 71.2286 41.1667C71.1324 41.2987 71.0395 41.4333 70.9512 41.5708C70.8844 41.6745 70.8176 41.7782 70.7488 41.8851C70.6696 41.8851 70.5904 41.8851 70.5089 41.8851C70.5089 41.9641 70.5089 42.0432 70.5089 42.1246C71.6489 42.0816 72.5921 42.0063 73.6111 41.4623C74.6034 40.9392 75.151 40.7804 76.2514 41.0619C77.9817 41.6332 79.0426 42.8065 79.9093 44.3482C80.4125 45.4058 80.561 46.6832 80.2622 47.8291C79.9416 48.5278 79.4152 48.922 78.7478 49.2865C77.6732 49.6462 76.2293 49.5942 75.2098 49.0999C75.1231 49.0504 75.0363 49.0008 74.947 48.9498C74.8565 48.899 74.7661 48.8482 74.6729 48.7959C73.3964 48.0113 72.5439 46.9492 71.9033 45.612C71.719 44.6923 71.7883 43.8486 72.0682 42.9628C71.7207 42.9466 71.3739 42.9347 71.0262 42.9254C70.9282 42.9203 70.8303 42.9153 70.7293 42.9101C70.2113 42.8997 69.9868 42.9005 69.5709 43.2341C69.4846 43.3421 69.3983 43.4501 69.3094 43.5615C69.2236 43.6444 69.1378 43.7272 69.0494 43.8126C68.9694 43.8903 68.8895 43.9679 68.8071 44.0479C68.7263 44.1259 68.6454 44.2038 68.5621 44.2841C68.3557 44.5129 68.2322 44.7174 68.1099 44.9983C68.2608 45.0403 68.4117 45.0823 68.5672 45.1256C70.2381 45.6851 71.3543 46.8455 72.1882 48.3511C73.0318 50.0719 73.2011 51.6149 73.1477 53.4999C71.9315 53.3701 71.0416 52.4331 70.277 51.5401C68.9542 49.8577 68.6331 48.405 68.5897 46.3155C67.8501 45.8648 67.8501 45.8648 67.0304 45.8365C66.7197 46.0604 66.4542 46.3228 66.1833 46.5924C66.0226 46.7471 65.8619 46.9018 65.7011 47.0564C65.6217 47.1337 65.5423 47.211 65.4605 47.2907C64.5078 48.2138 63.5133 49.085 62.4724 49.9077C62.3516 50.0037 62.2309 50.0997 62.1064 50.1986C58.5963 52.9604 54.7006 54.8383 50.3092 55.7127C50.1138 55.7518 49.9185 55.7923 49.7238 55.8349C46.3492 56.5656 42.5935 56.2135 39.2025 55.775C39.0667 55.7576 38.931 55.7403 38.7911 55.7225C35.3738 55.2737 32.1075 54.3512 28.8049 53.3952C26.9938 52.8711 25.1854 52.3813 23.3393 51.9957C23.2526 51.9775 23.1658 51.9593 23.0763 51.9405C21.7399 51.6613 20.4073 51.3898 19.0512 51.2248C18.9219 51.2088 18.7927 51.1928 18.6595 51.1762C15.337 50.7774 12.0774 50.717 8.75208 51.1346C8.24302 51.198 7.73405 51.2595 7.22368 51.3114C7.05015 51.3297 7.05015 51.3297 6.87312 51.3483C6.57662 51.3446 6.57662 51.3446 6.21677 51.1051C6.23036 50.8404 6.23036 50.8404 6.33672 50.5064C6.5828 50.2906 6.8046 50.1252 7.0789 49.9526C7.15815 49.9017 7.2374 49.8507 7.31906 49.7983C10.1108 48.0518 14.3296 45.8973 17.7318 46.076C17.7653 45.9749 17.7989 45.8738 17.8335 45.7696C17.9254 45.4957 18.0187 45.2222 18.1136 44.9492C18.9526 42.5097 19.2094 40.1393 19.2911 37.5745C19.228 37.5967 19.1649 37.619 19.0998 37.6419C17.5034 38.2003 15.9102 38.6695 14.2533 39.0113C14.1622 39.0311 14.0711 39.0509 13.9773 39.0713C12.5647 39.3693 11.156 39.4074 9.71775 39.4155C9.62905 39.4164 9.54034 39.4174 9.44895 39.4184C7.60043 39.4336 5.32492 39.2982 3.8403 38.0759C3.71042 37.9462 3.71042 37.9462 3.57792 37.8139C3.58729 37.6011 3.58729 37.6011 3.69786 37.335C3.96783 37.1697 4.22088 37.0383 4.50751 36.9084C4.68332 36.8243 4.85902 36.7399 5.03463 36.6554C5.12889 36.6105 5.22315 36.5657 5.32027 36.5194C8.19226 35.1417 10.6698 33.4438 12.8856 31.1534C13.1738 30.869 13.1738 30.869 13.4956 30.6221C13.7681 30.3946 13.8852 30.2368 14.0134 29.9111C13.8888 29.9443 13.7641 29.9775 13.6357 30.0117C12.7248 30.25 11.84 30.4798 10.8947 30.5098C10.7657 30.5144 10.7657 30.5144 10.6341 30.5192C8.96136 30.5722 7.50762 30.554 6.09682 29.5519C6.09073 29.289 6.09073 29.289 6.21677 28.9532C6.54428 28.711 6.90721 28.5449 7.27381 28.3694C7.48413 28.2636 7.69435 28.1576 7.90448 28.0514C8.00672 28.0005 8.10896 27.9495 8.2143 27.897C10.1143 26.9436 11.7736 25.6382 13.2937 24.1636C13.3923 24.0688 13.3923 24.0688 13.493 23.9721C14.6815 22.8283 14.6815 22.8283 15.6927 21.5293C15.6927 21.4898 15.6927 21.4503 15.6927 21.4096C15.5157 21.4614 15.5157 21.4614 15.3352 21.5143C13.7095 21.9601 11.7094 22.3036 10.1324 21.5377C9.93516 21.4096 9.93516 21.4096 9.69526 21.1701C9.70765 20.935 9.70765 20.935 9.81521 20.6911C10.0406 20.5276 10.0406 20.5276 10.3367 20.3805C10.5 20.2967 10.5 20.2967 10.6667 20.2111C10.784 20.1522 10.9013 20.0933 11.0222 20.0325C13.4626 18.7563 15.3952 17.0701 17.1021 14.9211C17.1587 14.85 17.2154 14.7788 17.2737 14.7054C17.5766 14.3198 17.8495 13.9345 18.0916 13.5067C18.012 13.5399 17.9324 13.5731 17.8503 13.6073C17.6914 13.6723 17.6914 13.6723 17.5294 13.7387C17.3728 13.8033 17.3728 13.8033 17.2131 13.8692C16.5298 14.1171 15.8801 14.1309 15.1604 14.1353C15.0604 14.1378 14.9605 14.1403 14.8575 14.1428C14.242 14.1467 13.8321 14.0783 13.2937 13.7462C13.2937 13.5881 13.2937 13.4301 13.2937 13.2672C13.5275 13.053 13.5275 13.053 13.856 12.8332C13.977 12.7491 14.0981 12.6649 14.2228 12.5783C14.3516 12.4895 14.4804 12.4008 14.6131 12.3093C17.5686 10.1998 19.6822 7.37795 21.3302 4.16699Z" fill="#36574A"/>
<path d="M70.029 33.1441C70.0685 33.1441 70.1081 33.1441 70.1489 33.1441C70.2475 35.5177 69.75 37.7943 69.1892 40.089C69.1496 40.089 69.11 40.089 69.0693 40.089C68.9415 37.7648 69.5782 35.4074 70.029 33.1441Z" fill="#F6F5F1"/>
<path d="M78.0656 28.7137C78.1052 28.7927 78.1448 28.8718 78.1856 28.9532C78.1043 29.1755 78.1043 29.1755 77.9686 29.4457C77.919 29.5451 77.8693 29.6446 77.8182 29.747C77.7637 29.853 77.7093 29.959 77.6533 30.0683C77.5989 30.1756 77.5445 30.283 77.4884 30.3937C77.044 31.2598 76.5596 32.09 76.0265 32.9046C75.9869 32.8256 75.9473 32.7465 75.9065 32.6651C76.0266 32.3783 76.0266 32.3783 76.2148 32.0206C76.2829 31.8906 76.3509 31.7607 76.421 31.6268C76.4937 31.4903 76.5663 31.3539 76.6412 31.2133C76.7461 31.0128 76.7461 31.0128 76.853 30.8082C77.2309 30.0909 77.6241 29.3939 78.0656 28.7137Z" fill="#E9EBE7"/>
<path d="M79.385 27.2768C79.3455 27.4744 79.3059 27.672 79.2651 27.8755C79.1068 27.8755 78.9484 27.8755 78.7853 27.8755C78.627 28.1521 78.4686 28.4287 78.3055 28.7137C78.2659 28.6347 78.2263 28.5556 78.1856 28.4742C78.2661 28.2497 78.2661 28.2497 78.3955 27.9953C78.4369 27.9113 78.4783 27.8273 78.521 27.7408C78.7579 27.3722 78.9513 27.2768 79.385 27.2768Z" fill="#537063"/>
<path d="M76.5574 41.1629C78.2741 41.8495 79.3295 43.1295 80.1047 44.7589C80.4451 45.7317 80.5943 47.1052 80.1497 48.0742C79.7606 48.6907 79.1997 49.1353 78.5046 49.3679C77.2983 49.5978 76.0267 49.5665 74.947 48.9498C74.8565 48.899 74.7661 48.8482 74.6729 48.7959C73.3964 48.0113 72.5439 46.9492 71.9033 45.612C71.7237 44.7155 71.7552 43.8221 72.0682 42.9628C71.6724 42.9233 71.2766 42.8837 70.8687 42.843C70.8687 42.8035 70.8687 42.764 70.8687 42.7233C71.0394 42.701 71.0394 42.701 71.2136 42.6784C71.5988 42.6374 71.5988 42.6374 71.8283 42.3641C71.3929 42.3245 70.9575 42.285 70.5089 42.2443C70.5089 42.2048 70.5089 42.1653 70.5089 42.1246C70.6276 42.1201 70.7464 42.1156 70.8687 42.111C71.8943 42.0639 72.7003 41.9485 73.6111 41.4623C74.7083 40.884 75.3636 40.7687 76.5574 41.1629Z" fill="#344340"/>
</svg>
