<svg width="79" height="83" viewBox="0 0 79 83" fill="none" xmlns="http://www.w3.org/2000/svg">
<path d="M3.67511 54.1999C3.39241 54.1999 3.16625 54.1151 2.99663 53.9454C2.82701 53.7758 2.7422 53.5449 2.7422 53.2528C2.7422 52.9795 2.82701 52.7581 2.99663 52.5885C3.16625 52.4188 3.39241 52.334 3.67511 52.334C3.95781 52.334 4.17926 52.4188 4.33945 52.5885C4.50907 52.7487 4.59388 52.9701 4.59388 53.2528C4.59388 53.8842 4.28762 54.1999 3.67511 54.1999ZM8.60823 58.6665H9.88038V60.3769H8.43861C8.11822 60.3769 7.82138 60.3345 7.5481 60.2497C7.36906 61.1543 6.91203 61.8658 6.17701 62.384C5.51737 62.8364 4.71639 63.0625 3.77405 63.0625C2.5019 63.0625 1.51716 62.6149 0.819832 61.7197C0.273277 61.0224 0 60.2025 0 59.2602C0 58.5158 0.174332 57.8655 0.522996 57.3096L2.2192 56.9562C1.84227 57.597 1.6538 58.2708 1.6538 58.9775C1.6538 59.6937 1.8564 60.2732 2.2616 60.7161C2.64796 61.1402 3.15211 61.3522 3.77405 61.3522C4.42426 61.3522 4.92841 61.1873 5.2865 60.8575C5.65401 60.5276 5.83777 60.0659 5.83777 59.4722V55.0338L7.61878 54.1009V57.6488C7.61878 58.0163 7.69417 58.2802 7.84494 58.4404C7.99571 58.5911 8.25014 58.6665 8.60823 58.6665Z" fill="white"/>
<path d="M10.3788 52.857C10.0961 52.857 9.86989 52.7722 9.70027 52.6026C9.53065 52.433 9.44584 52.2021 9.44584 51.91C9.44584 51.6367 9.53065 51.4153 9.70027 51.2456C9.86989 51.076 10.0961 50.9912 10.3788 50.9912C10.6615 50.9912 10.8829 51.076 11.0431 51.2456C11.2127 51.4058 11.2975 51.6273 11.2975 51.91C11.2975 52.5414 10.9913 52.857 10.3788 52.857ZM12.5414 52.857C12.2587 52.857 12.0326 52.7722 11.8629 52.6026C11.6933 52.4236 11.6085 52.1927 11.6085 51.91C11.6085 51.6367 11.6933 51.4153 11.8629 51.2456C12.042 51.076 12.2681 50.9912 12.5414 50.9912C12.8241 50.9912 13.0456 51.076 13.2058 51.2456C13.3754 51.4058 13.4602 51.6273 13.4602 51.91C13.4602 52.5414 13.1539 52.857 12.5414 52.857ZM14.068 58.6665H15.3401V60.3769H13.8984C13.2105 60.3769 12.6404 60.1931 12.188 59.8256C11.7357 60.1931 11.1656 60.3769 10.4777 60.3769H9.03593V58.6665H10.3081C10.6662 58.6665 10.9206 58.5911 11.0714 58.4404C11.2221 58.2802 11.2975 58.0163 11.2975 57.6488V55.0338L13.0785 54.1009V57.6488C13.0785 58.0163 13.1539 58.2802 13.3047 58.4404C13.4555 58.5911 13.7099 58.6665 14.068 58.6665Z" fill="white"/>
<path d="M23.4783 58.6665H24.7363V60.3769H23.2945C22.616 60.3769 22.0601 60.2025 21.6266 59.8539C21.1177 60.391 20.4487 60.6596 19.6194 60.6596C18.7713 60.6596 18.1023 60.391 17.6122 59.8539C17.1599 60.2025 16.5992 60.3769 15.9302 60.3769H14.4884V58.6665H15.7606C16.1186 58.6665 16.3731 58.5911 16.5238 58.4404C16.6746 58.2802 16.75 58.0163 16.75 57.6488V57.2389C16.75 56.1364 17.0374 55.2788 17.6122 54.6663C18.1117 54.1292 18.7807 53.8606 19.6194 53.8606C20.5712 53.8606 21.3062 54.2093 21.8245 54.9066C22.258 55.5003 22.4747 56.2777 22.4747 57.2389V57.6488C22.4747 58.0163 22.5501 58.2802 22.7009 58.4404C22.861 58.5911 23.1202 58.6665 23.4783 58.6665ZM19.6194 58.9492C20.3356 58.9492 20.6937 58.365 20.6937 57.1965C20.6937 56.0751 20.3356 55.5144 19.6194 55.5144C18.8938 55.5144 18.531 56.0751 18.531 57.1965C18.531 58.365 18.8938 58.9492 19.6194 58.9492Z" fill="white"/>
<path d="M23.8887 60.3769V58.6665H24.7793C25.2127 58.6665 25.519 58.5723 25.698 58.3838C25.8865 58.1954 25.9807 57.875 25.9807 57.4226V52.2068L27.7476 51.2598V57.4368C27.7476 58.3508 27.4696 59.0812 26.9136 59.6277C26.4048 60.1272 25.7263 60.3769 24.8782 60.3769H23.8887Z" fill="white"/>
<path d="M30.292 60.3769V52.2068L32.073 51.2598V60.3769H30.292Z" fill="white"/>
<path d="M40.6092 60.3769C39.7516 60.3769 39.0873 60.1036 38.6161 59.557C38.2109 59.0859 38.0083 58.4781 38.0083 57.7336V52.1927L39.7893 51.2598V57.6488C39.7893 58.0163 39.8647 58.2802 40.0155 58.4404C40.1663 58.5911 40.4207 58.6665 40.7788 58.6665H42.0509V60.3769H40.6092Z" fill="white"/>
<path d="M46.2307 58.6665H47.5029V60.3769H46.0611C45.3732 60.3769 44.8031 60.1931 44.3507 59.8256C43.8984 60.1931 43.3283 60.3769 42.6404 60.3769H41.1986V58.6665H42.4708C42.8289 58.6665 43.0833 58.5911 43.2341 58.4404C43.3848 58.2802 43.4602 58.0163 43.4602 57.6488V55.0338L45.2412 54.1009V57.6488C45.2412 58.0163 45.3166 58.2802 45.4674 58.4404C45.6182 58.5911 45.8726 58.6665 46.2307 58.6665ZM42.5697 61.6632C42.8524 61.6632 43.0739 61.7433 43.2341 61.9035C43.4037 62.0731 43.4885 62.2992 43.4885 62.5819C43.4885 63.2133 43.1822 63.529 42.5697 63.529C42.287 63.529 42.0609 63.4442 41.8912 63.2746C41.7216 63.1049 41.6368 62.8741 41.6368 62.5819C41.6368 61.9694 41.9478 61.6632 42.5697 61.6632ZM44.7465 61.6632C45.0292 61.6632 45.2507 61.7433 45.4109 61.9035C45.5805 62.0731 45.6653 62.2992 45.6653 62.5819C45.6653 63.2133 45.359 63.529 44.7465 63.529C44.4638 63.529 44.2377 63.4442 44.068 63.2746C43.8984 63.1049 43.8136 62.8741 43.8136 62.5819C43.8136 61.9694 44.1246 61.6632 44.7465 61.6632Z" fill="white"/>
<path d="M51.6832 58.6665H52.9553V60.3769H51.5136C50.8257 60.3769 50.2555 60.1931 49.8032 59.8256C49.3509 60.1931 48.7808 60.3769 48.0929 60.3769H46.6511V58.6665H47.9233C48.2813 58.6665 48.5358 58.5911 48.6866 58.4404C48.8373 58.2802 48.9127 58.0163 48.9127 57.6488V55.0338L50.6937 54.1009V57.6488C50.6937 58.0163 50.7691 58.2802 50.9199 58.4404C51.0707 58.5911 51.3251 58.6665 51.6832 58.6665ZM49.888 61.6632C50.1707 61.6632 50.3922 61.7433 50.5524 61.9035C50.722 62.0731 50.8068 62.2992 50.8068 62.5819C50.8068 63.2133 50.5005 63.529 49.888 63.529C49.6053 63.529 49.3792 63.4442 49.2095 63.2746C49.0399 63.1049 48.9551 62.8741 48.9551 62.5819C48.9551 62.3087 49.0399 62.0872 49.2095 61.9176C49.3792 61.748 49.6053 61.6632 49.888 61.6632Z" fill="white"/>
<path d="M56.8671 58.6524C57.3194 57.2766 57.979 56.1599 58.846 55.3024C59.8072 54.3412 60.9097 53.8606 62.1536 53.8606C63.2655 53.8606 64.1561 54.247 64.8251 55.0197C65.3905 55.6699 65.6732 56.4756 65.6732 57.4368V57.7478C65.6732 58.6053 65.4046 59.2743 64.8675 59.7549C64.4058 60.1696 63.8074 60.3769 63.0724 60.3769H56.966C56.2781 60.3769 55.708 60.1931 55.2557 59.8256C54.8034 60.1931 54.2333 60.3769 53.5454 60.3769H52.1036V58.6665H53.3757C53.7338 58.6665 53.9883 58.5911 54.139 58.4404C54.2898 58.2802 54.3652 58.0163 54.3652 57.6488V55.783L56.1462 54.8501V57.6488C56.1462 58.2519 56.3865 58.5864 56.8671 58.6524ZM63.8922 57.6347V57.4368C63.8922 56.8714 63.732 56.4096 63.4116 56.0516C63.0912 55.6935 62.6766 55.5144 62.1677 55.5144C61.4327 55.5144 60.7448 55.7971 60.104 56.3625C59.4726 56.9279 58.9732 57.6959 58.6057 58.6665H63.0017C63.3409 58.6665 63.5718 58.5959 63.6943 58.4545C63.8262 58.3037 63.8922 58.0305 63.8922 57.6347Z" fill="white"/>
<path d="M70.4666 60.3769C69.6091 60.3769 68.9448 60.1036 68.4736 59.557C68.0684 59.0859 67.8658 58.4781 67.8658 57.7336V52.1927L69.6468 51.2598V57.6488C69.6468 58.0163 69.7222 58.2802 69.873 58.4404C70.0237 58.5911 70.2782 58.6665 70.6363 58.6665H71.9084V60.3769H70.4666Z" fill="white"/>
<path d="M71.0561 60.3769V58.6665H73.1622C74.8207 58.6665 76.14 58.1718 77.12 57.1824C76.4792 56.061 75.7018 55.5003 74.7878 55.5003C74.0339 55.5003 73.2094 55.9102 72.3141 56.73V55.161C73.1057 54.2941 74.0009 53.8606 74.9998 53.8606C75.7348 53.8606 76.451 54.1292 77.1483 54.6663C77.8456 55.2034 78.4629 55.9667 79 56.9562V57.6629C78.3215 58.5299 77.4734 59.199 76.4557 59.6701C75.4474 60.1413 74.3449 60.3769 73.1481 60.3769H71.0561Z" fill="white"/>
<path d="M13.5697 65.884V72.0888H12.4111V69.3768H9.49755V72.0888H8.33899V65.884H9.49755V68.553H12.4111V65.884H13.5697Z" fill="white"/>
<path d="M17.0009 70.2093C16.6948 70.2236 16.4373 70.2508 16.2285 70.2908C16.0197 70.328 15.8523 70.3766 15.7265 70.4367C15.6006 70.4968 15.5105 70.5669 15.4561 70.647C15.4018 70.7271 15.3746 70.8143 15.3746 70.9087C15.3746 71.0947 15.429 71.2277 15.5377 71.3078C15.6492 71.3879 15.7937 71.4279 15.971 71.4279C16.1885 71.4279 16.3758 71.3893 16.5332 71.3121C16.6934 71.232 16.8493 71.1118 17.0009 70.9516V70.2093ZM14.5722 68.2998C15.0785 67.8364 15.6878 67.6047 16.4001 67.6047C16.6576 67.6047 16.8879 67.6476 17.091 67.7334C17.2941 67.8164 17.4657 67.9336 17.6059 68.0853C17.7461 68.234 17.8519 68.4128 17.9235 68.6216C17.9978 68.8305 18.035 69.0593 18.035 69.3082V72.0888H17.5544C17.4543 72.0888 17.3771 72.0744 17.3227 72.0458C17.2684 72.0144 17.2254 71.9529 17.194 71.8613L17.0996 71.5438C16.988 71.6439 16.8793 71.7326 16.7735 71.8098C16.6676 71.8842 16.5575 71.9471 16.4431 71.9986C16.3286 72.0501 16.2056 72.0888 16.074 72.1145C15.9453 72.1431 15.8023 72.1574 15.6449 72.1574C15.459 72.1574 15.2874 72.1331 15.13 72.0845C14.9727 72.033 14.8368 71.9572 14.7224 71.857C14.6079 71.7569 14.5193 71.6325 14.4563 71.4837C14.3934 71.335 14.3619 71.1619 14.3619 70.9645C14.3619 70.8529 14.3805 70.7428 14.4177 70.6341C14.4549 70.5225 14.515 70.4167 14.5979 70.3166C14.6838 70.2164 14.7939 70.122 14.9283 70.0334C15.0628 69.9447 15.2273 69.8674 15.4218 69.8017C15.6192 69.7359 15.848 69.6829 16.1084 69.6429C16.3687 69.6 16.6662 69.5742 17.0009 69.5656V69.3082C17.0009 69.0135 16.938 68.7961 16.8121 68.656C16.6862 68.5129 16.5046 68.4414 16.2671 68.4414C16.0955 68.4414 15.9525 68.4614 15.838 68.5015C15.7265 68.5415 15.6278 68.5873 15.542 68.6388C15.4561 68.6874 15.3775 68.7318 15.3059 68.7718C15.2373 68.8119 15.1601 68.8319 15.0742 68.8319C14.9999 68.8319 14.9369 68.8133 14.8854 68.7761C14.8339 68.7361 14.7925 68.6903 14.761 68.6388L14.5722 68.2998Z" fill="white"/>
<path d="M21.7194 68.5444C21.6908 68.5902 21.6607 68.6231 21.6293 68.6431C21.5978 68.6602 21.5577 68.6688 21.5091 68.6688C21.4576 68.6688 21.4018 68.6545 21.3418 68.6259C21.2845 68.5973 21.2173 68.5658 21.1401 68.5315C21.0628 68.4943 20.9742 68.4614 20.874 68.4328C20.7768 68.4042 20.6609 68.3899 20.5265 68.3899C20.3176 68.3899 20.1532 68.4343 20.033 68.5229C19.9157 68.6116 19.8571 68.7275 19.8571 68.8705C19.8571 68.9649 19.8871 69.045 19.9472 69.1108C20.0101 69.1737 20.0917 69.2295 20.1918 69.2782C20.2948 69.3268 20.4106 69.3711 20.5393 69.4112C20.6681 69.4484 20.7982 69.4898 20.9298 69.5356C21.0643 69.5814 21.1959 69.6343 21.3246 69.6944C21.4533 69.7516 21.5678 69.826 21.6679 69.9175C21.7709 70.0062 21.8524 70.1135 21.9125 70.2393C21.9754 70.3652 22.0069 70.5168 22.0069 70.6942C22.0069 70.9059 21.9682 71.1018 21.891 71.282C21.8166 71.4594 21.7051 71.6139 21.5563 71.7455C21.4076 71.8742 21.223 71.9758 21.0028 72.0501C20.7854 72.1216 20.5336 72.1574 20.2476 72.1574C20.0959 72.1574 19.9472 72.1431 19.8013 72.1145C19.6583 72.0888 19.5195 72.0516 19.3851 72.0029C19.2535 71.9543 19.1305 71.8971 19.016 71.8313C18.9045 71.7655 18.8058 71.694 18.72 71.6167L18.9646 71.2134C18.996 71.1648 19.0332 71.1276 19.0761 71.1018C19.119 71.0761 19.1734 71.0632 19.2392 71.0632C19.305 71.0632 19.3665 71.0818 19.4237 71.119C19.4838 71.1562 19.5524 71.1962 19.6297 71.2391C19.7069 71.282 19.797 71.3221 19.9 71.3593C20.0058 71.3965 20.1389 71.4151 20.299 71.4151C20.4249 71.4151 20.5322 71.4008 20.6209 71.3722C20.7124 71.3407 20.7868 71.3006 20.844 71.252C20.9041 71.2034 20.947 71.1476 20.9727 71.0847C21.0013 71.0189 21.0156 70.9516 21.0156 70.883C21.0156 70.78 20.9842 70.6956 20.9212 70.6298C20.8612 70.564 20.7796 70.5068 20.6767 70.4582C20.5765 70.4095 20.4607 70.3666 20.3291 70.3294C20.2004 70.2894 20.0673 70.2465 19.93 70.2007C19.7956 70.1549 19.6626 70.102 19.531 70.0419C19.4022 69.979 19.2864 69.9003 19.1834 69.8059C19.0833 69.7115 19.0017 69.5957 18.9388 69.4584C18.8787 69.3211 18.8487 69.1551 18.8487 68.9606C18.8487 68.7804 18.8845 68.6088 18.956 68.4457C19.0275 68.2826 19.1319 68.141 19.2692 68.0209C19.4094 67.8979 19.5825 67.8006 19.7884 67.7291C19.9972 67.6547 20.2375 67.6175 20.5093 67.6175C20.8125 67.6175 21.0886 67.6676 21.3375 67.7677C21.5863 67.8678 21.7937 67.9994 21.9597 68.1625L21.7194 68.5444Z" fill="white"/>
<path d="M23.8645 70.9473C23.9846 71.0932 24.1148 71.1962 24.2549 71.2563C24.398 71.3164 24.5482 71.3464 24.7055 71.3464C24.8686 71.3464 25.0144 71.3178 25.1432 71.2606C25.2748 71.2005 25.3863 71.109 25.4779 70.986C25.5694 70.8601 25.6395 70.7013 25.6881 70.5097C25.7368 70.3151 25.7611 70.0834 25.7611 69.8145C25.7611 69.3311 25.681 68.9821 25.5208 68.7675C25.3606 68.5501 25.1303 68.4414 24.8299 68.4414C24.6268 68.4414 24.4495 68.4886 24.2978 68.583C24.1462 68.6746 24.0018 68.8047 23.8645 68.9735V70.9473ZM23.8645 68.2269C24.0418 68.0409 24.2378 67.8936 24.4523 67.7849C24.6697 67.6733 24.9172 67.6175 25.1947 67.6175C25.4493 67.6175 25.6781 67.6676 25.8812 67.7677C26.0872 67.8678 26.2617 68.0123 26.4047 68.2011C26.5506 68.3871 26.6622 68.613 26.7394 68.8791C26.8167 69.1451 26.8553 69.4441 26.8553 69.7759C26.8553 70.1335 26.8109 70.4582 26.7223 70.75C26.6336 71.0417 26.5063 71.2921 26.3404 71.5009C26.1773 71.7069 25.9799 71.8671 25.7482 71.9815C25.5165 72.0959 25.259 72.1531 24.9758 72.1531C24.8385 72.1531 24.7141 72.1388 24.6025 72.1102C24.4909 72.0845 24.388 72.0473 24.2936 71.9986C24.1992 71.95 24.1119 71.8914 24.0318 71.8227C23.9546 71.7512 23.8802 71.6725 23.8087 71.5867L23.7615 71.8828C23.7443 71.9572 23.7143 72.0101 23.6714 72.0415C23.6313 72.073 23.5755 72.0888 23.504 72.0888H22.8046V65.7123H23.8645V68.2269Z" fill="white"/>
<path d="M29.9996 70.2093C29.6935 70.2236 29.436 70.2508 29.2272 70.2908C29.0184 70.328 28.851 70.3766 28.7251 70.4367C28.5993 70.4968 28.5092 70.5669 28.4548 70.647C28.4005 70.7271 28.3733 70.8143 28.3733 70.9087C28.3733 71.0947 28.4276 71.2277 28.5363 71.3078C28.6479 71.3879 28.7924 71.4279 28.9697 71.4279C29.1871 71.4279 29.3745 71.3893 29.5319 71.3121C29.692 71.232 29.848 71.1118 29.9996 70.9516V70.2093ZM27.5709 68.2998C28.0772 67.8364 28.6865 67.6047 29.3988 67.6047C29.6563 67.6047 29.8866 67.6476 30.0897 67.7334C30.2928 67.8164 30.4644 67.9336 30.6046 68.0853C30.7448 68.234 30.8506 68.4128 30.9221 68.6216C30.9965 68.8305 31.0337 69.0593 31.0337 69.3082V72.0888H30.5531C30.453 72.0888 30.3757 72.0744 30.3214 72.0458C30.267 72.0144 30.2241 71.9529 30.1927 71.8613L30.0983 71.5438C29.9867 71.6439 29.878 71.7326 29.7721 71.8098C29.6663 71.8842 29.5562 71.9471 29.4417 71.9986C29.3273 72.0501 29.2043 72.0888 29.0727 72.1145C28.944 72.1431 28.801 72.1574 28.6436 72.1574C28.4577 72.1574 28.286 72.1331 28.1287 72.0845C27.9714 72.033 27.8355 71.9572 27.7211 71.857C27.6066 71.7569 27.5179 71.6325 27.455 71.4837C27.3921 71.335 27.3606 71.1619 27.3606 70.9645C27.3606 70.8529 27.3792 70.7428 27.4164 70.6341C27.4536 70.5225 27.5137 70.4167 27.5966 70.3166C27.6824 70.2164 27.7926 70.122 27.927 70.0334C28.0615 69.9447 28.226 69.8674 28.4205 69.8017C28.6179 69.7359 28.8467 69.6829 29.107 69.6429C29.3674 69.6 29.6649 69.5742 29.9996 69.5656V69.3082C29.9996 69.0135 29.9366 68.7961 29.8108 68.656C29.6849 68.5129 29.5032 68.4414 29.2658 68.4414C29.0942 68.4414 28.9511 68.4614 28.8367 68.5015C28.7251 68.5415 28.6265 68.5873 28.5406 68.6388C28.4548 68.6874 28.3761 68.7318 28.3046 68.7718C28.236 68.8119 28.1587 68.8319 28.0729 68.8319C27.9985 68.8319 27.9356 68.8133 27.8841 68.7761C27.8326 68.7361 27.7911 68.6903 27.7597 68.6388L27.5709 68.2998Z" fill="white"/>
<path d="M35.9054 67.6862L33.5067 73.2988C33.4752 73.3732 33.4338 73.429 33.3823 73.4662C33.3336 73.5062 33.2578 73.5262 33.1549 73.5262H32.3653L33.1892 71.7583L31.4084 67.6862H32.3396C32.4225 67.6862 32.4869 67.7062 32.5327 67.7463C32.5813 67.7863 32.6171 67.8321 32.6399 67.8836L33.5754 70.1664C33.6068 70.2436 33.6326 70.3209 33.6526 70.3981C33.6755 70.4753 33.697 70.554 33.717 70.6341C33.7427 70.554 33.7685 70.4753 33.7942 70.3981C33.82 70.318 33.8486 70.2393 33.88 70.1621L34.764 67.8836C34.7869 67.8264 34.8241 67.7792 34.8755 67.742C34.9299 67.7048 34.99 67.6862 35.0558 67.6862H35.9054Z" fill="white"/>
<path d="M38.657 70.2093C38.3509 70.2236 38.0934 70.2508 37.8846 70.2908C37.6758 70.328 37.5084 70.3766 37.3826 70.4367C37.2567 70.4968 37.1666 70.5669 37.1122 70.647C37.0579 70.7271 37.0307 70.8143 37.0307 70.9087C37.0307 71.0947 37.085 71.2277 37.1937 71.3078C37.3053 71.3879 37.4498 71.4279 37.6271 71.4279C37.8446 71.4279 38.0319 71.3893 38.1893 71.3121C38.3495 71.232 38.5054 71.1118 38.657 70.9516V70.2093ZM36.2283 68.2998C36.7346 67.8364 37.3439 67.6047 38.0562 67.6047C38.3137 67.6047 38.544 67.6476 38.7471 67.7334C38.9502 67.8164 39.1218 67.9336 39.262 68.0853C39.4022 68.234 39.508 68.4128 39.5795 68.6216C39.6539 68.8305 39.6911 69.0593 39.6911 69.3082V72.0888H39.2105C39.1104 72.0888 39.0332 72.0744 38.9788 72.0458C38.9244 72.0144 38.8815 71.9529 38.8501 71.8613L38.7557 71.5438C38.6441 71.6439 38.5354 71.7326 38.4296 71.8098C38.3237 71.8842 38.2136 71.9471 38.0991 71.9986C37.9847 72.0501 37.8617 72.0888 37.7301 72.1145C37.6014 72.1431 37.4584 72.1574 37.301 72.1574C37.1151 72.1574 36.9434 72.1331 36.7861 72.0845C36.6288 72.033 36.4929 71.9572 36.3785 71.857C36.264 71.7569 36.1754 71.6325 36.1124 71.4837C36.0495 71.335 36.018 71.1619 36.018 70.9645C36.018 70.8529 36.0366 70.7428 36.0738 70.6341C36.111 70.5225 36.1711 70.4167 36.254 70.3166C36.3398 70.2164 36.45 70.122 36.5844 70.0334C36.7189 69.9447 36.8834 69.8674 37.0779 69.8017C37.2753 69.7359 37.5041 69.6829 37.7645 69.6429C38.0248 69.6 38.3223 69.5742 38.657 69.5656V69.3082C38.657 69.0135 38.594 68.7961 38.4682 68.656C38.3423 68.5129 38.1607 68.4414 37.9232 68.4414C37.7516 68.4414 37.6085 68.4614 37.4941 68.5015C37.3826 68.5415 37.2839 68.5873 37.198 68.6388C37.1122 68.6874 37.0336 68.7318 36.962 68.7718C36.8934 68.8119 36.8161 68.8319 36.7303 68.8319C36.6559 68.8319 36.593 68.8133 36.5415 68.7761C36.49 68.7361 36.4485 68.6903 36.4171 68.6388L36.2283 68.2998Z" fill="white"/>
<path d="M45.1018 70.2093C44.7958 70.2236 44.5383 70.2508 44.3295 70.2908C44.1206 70.328 43.9533 70.3766 43.8274 70.4367C43.7015 70.4968 43.6114 70.5669 43.5571 70.647C43.5027 70.7271 43.4756 70.8143 43.4756 70.9087C43.4756 71.0947 43.5299 71.2277 43.6386 71.3078C43.7502 71.3879 43.8946 71.4279 44.072 71.4279C44.2894 71.4279 44.4768 71.3893 44.6341 71.3121C44.7943 71.232 44.9502 71.1118 45.1018 70.9516V70.2093ZM42.6731 68.2998C43.1795 67.8364 43.7888 67.6047 44.5011 67.6047C44.7586 67.6047 44.9888 67.6476 45.192 67.7334C45.3951 67.8164 45.5667 67.9336 45.7069 68.0853C45.847 68.234 45.9529 68.4128 46.0244 68.6216C46.0988 68.8305 46.136 69.0593 46.136 69.3082V72.0888H45.6554C45.5553 72.0888 45.478 72.0744 45.4237 72.0458C45.3693 72.0144 45.3264 71.9529 45.2949 71.8613L45.2005 71.5438C45.089 71.6439 44.9803 71.7326 44.8744 71.8098C44.7686 71.8842 44.6584 71.9471 44.544 71.9986C44.4296 72.0501 44.3066 72.0888 44.175 72.1145C44.0463 72.1431 43.9032 72.1574 43.7459 72.1574C43.5599 72.1574 43.3883 72.1331 43.231 72.0845C43.0736 72.033 42.9378 71.9572 42.8233 71.857C42.7089 71.7569 42.6202 71.6325 42.5573 71.4837C42.4944 71.335 42.4629 71.1619 42.4629 70.9645C42.4629 70.8529 42.4815 70.7428 42.5187 70.6341C42.5559 70.5225 42.6159 70.4167 42.6989 70.3166C42.7847 70.2164 42.8948 70.122 43.0293 70.0334C43.1637 69.9447 43.3282 69.8674 43.5228 69.8017C43.7201 69.7359 43.949 69.6829 44.2093 69.6429C44.4696 69.6 44.7671 69.5742 45.1018 69.5656V69.3082C45.1018 69.0135 45.0389 68.7961 44.913 68.656C44.7872 68.5129 44.6055 68.4414 44.3681 68.4414C44.1964 68.4414 44.0534 68.4614 43.939 68.5015C43.8274 68.5415 43.7287 68.5873 43.6429 68.6388C43.5571 68.6874 43.4784 68.7318 43.4069 68.7718C43.3382 68.8119 43.261 68.8319 43.1752 68.8319C43.1008 68.8319 43.0379 68.8133 42.9864 68.7761C42.9349 68.7361 42.8934 68.6903 42.8619 68.6388L42.6731 68.2998Z" fill="white"/>
<path d="M48.2069 65.7123V72.0888H47.147V65.7123H48.2069Z" fill="white"/>
<path d="M49.2286 69.055H51.4513V69.939H49.2286V69.055Z" fill="white"/>
<path d="M59.36 65.884V72.0888H58.343V68.081C58.343 67.9208 58.3516 67.7477 58.3688 67.5618L56.4936 71.0847C56.4049 71.2534 56.2691 71.3378 56.086 71.3378H55.9229C55.7398 71.3378 55.604 71.2534 55.5153 71.0847L53.6187 67.5489C53.6272 67.6433 53.6344 67.7363 53.6401 67.8278C53.6458 67.9193 53.6487 68.0037 53.6487 68.081V72.0888H52.6317V65.884H53.5028C53.5543 65.884 53.5986 65.8854 53.6358 65.8883C53.673 65.8911 53.7059 65.8983 53.7345 65.9097C53.766 65.9212 53.7932 65.9398 53.816 65.9655C53.8418 65.9913 53.8661 66.0256 53.889 66.0685L55.747 69.5142C55.7956 69.6057 55.84 69.7001 55.88 69.7974C55.9229 69.8946 55.9644 69.9947 56.0044 70.0977C56.0445 69.9919 56.086 69.8903 56.1289 69.7931C56.1718 69.6929 56.2176 69.5971 56.2662 69.5056L58.0984 66.0685C58.1213 66.0256 58.1456 65.9913 58.1714 65.9655C58.1971 65.9398 58.2243 65.9212 58.2529 65.9097C58.2844 65.8983 58.3187 65.8911 58.3559 65.8883C58.3931 65.8854 58.4374 65.884 58.4889 65.884H59.36Z" fill="white"/>
<path d="M62.7938 70.2093C62.4877 70.2236 62.2302 70.2508 62.0214 70.2908C61.8126 70.328 61.6452 70.3766 61.5194 70.4367C61.3935 70.4968 61.3034 70.5669 61.249 70.647C61.1947 70.7271 61.1675 70.8143 61.1675 70.9087C61.1675 71.0947 61.2219 71.2277 61.3306 71.3078C61.4421 71.3879 61.5866 71.4279 61.764 71.4279C61.9814 71.4279 62.1687 71.3893 62.3261 71.3121C62.4863 71.232 62.6422 71.1118 62.7938 70.9516V70.2093ZM60.3651 68.2998C60.8714 67.8364 61.4808 67.6047 62.1931 67.6047C62.4505 67.6047 62.6808 67.6476 62.8839 67.7334C63.087 67.8164 63.2587 67.9336 63.3988 68.0853C63.539 68.234 63.6448 68.4128 63.7164 68.6216C63.7907 68.8305 63.8279 69.0593 63.8279 69.3082V72.0888H63.3473C63.2472 72.0888 63.17 72.0744 63.1156 72.0458C63.0613 72.0144 63.0184 71.9529 62.9869 71.8613L62.8925 71.5438C62.7809 71.6439 62.6722 71.7326 62.5664 71.8098C62.4605 71.8842 62.3504 71.9471 62.236 71.9986C62.1215 72.0501 61.9985 72.0888 61.8669 72.1145C61.7382 72.1431 61.5952 72.1574 61.4378 72.1574C61.2519 72.1574 61.0803 72.1331 60.9229 72.0845C60.7656 72.033 60.6297 71.9572 60.5153 71.857C60.4009 71.7569 60.3122 71.6325 60.2492 71.4837C60.1863 71.335 60.1548 71.1619 60.1548 70.9645C60.1548 70.8529 60.1734 70.7428 60.2106 70.6341C60.2478 70.5225 60.3079 70.4167 60.3908 70.3166C60.4767 70.2164 60.5868 70.122 60.7212 70.0334C60.8557 69.9447 61.0202 69.8674 61.2147 69.8017C61.4121 69.7359 61.641 69.6829 61.9013 69.6429C62.1616 69.6 62.4591 69.5742 62.7938 69.5656V69.3082C62.7938 69.0135 62.7309 68.7961 62.605 68.656C62.4791 68.5129 62.2975 68.4414 62.06 68.4414C61.8884 68.4414 61.7454 68.4614 61.6309 68.5015C61.5194 68.5415 61.4207 68.5873 61.3349 68.6388C61.249 68.6874 61.1704 68.7318 61.0989 68.7718C61.0302 68.8119 60.953 68.8319 60.8671 68.8319C60.7928 68.8319 60.7298 68.8133 60.6783 68.7761C60.6269 68.7361 60.5854 68.6903 60.5539 68.6388L60.3651 68.2998Z" fill="white"/>
<path d="M66.235 72.1574C65.8516 72.1574 65.557 72.0501 65.351 71.8356C65.1479 71.6182 65.0464 71.3192 65.0464 70.9388V68.48H64.5958C64.5386 68.48 64.49 68.4614 64.4499 68.4242C64.4099 68.3871 64.3898 68.3313 64.3898 68.2569V67.8364L65.0979 67.7205L65.321 66.519C65.3353 66.4618 65.3625 66.4175 65.4025 66.386C65.4426 66.3546 65.4941 66.3388 65.557 66.3388H66.1062V67.7248H67.282V68.48H66.1062V70.8658C66.1062 71.0031 66.1391 71.1104 66.2049 71.1876C66.2736 71.2649 66.3666 71.3035 66.4838 71.3035C66.5496 71.3035 66.604 71.2963 66.6469 71.282C66.6927 71.2649 66.7313 71.2477 66.7628 71.2306C66.7971 71.2134 66.8271 71.1977 66.8529 71.1834C66.8786 71.1662 66.9044 71.1576 66.9301 71.1576C66.9616 71.1576 66.9873 71.1662 67.0073 71.1834C67.0274 71.1977 67.0488 71.2205 67.0717 71.252L67.3892 71.7669C67.2348 71.8957 67.0574 71.9929 66.8572 72.0587C66.6569 72.1245 66.4495 72.1574 66.235 72.1574Z" fill="white"/>
<path d="M68.9518 68.2269C69.0405 68.1382 69.1334 68.0567 69.2307 67.9823C69.3308 67.905 69.4352 67.8407 69.5439 67.7892C69.6555 67.7348 69.7742 67.6933 69.9001 67.6647C70.0259 67.6333 70.1633 67.6175 70.312 67.6175C70.5523 67.6175 70.7654 67.659 70.9514 67.742C71.1373 67.8221 71.2918 67.9365 71.4148 68.0853C71.5407 68.2311 71.6351 68.4071 71.698 68.613C71.7638 68.8162 71.7967 69.0407 71.7967 69.2867V72.0888H70.7368V69.2867C70.7368 69.0178 70.6753 68.8104 70.5523 68.6645C70.4293 68.5158 70.2419 68.4414 69.9902 68.4414C69.8071 68.4414 69.6355 68.4829 69.4753 68.5658C69.3151 68.6488 69.1635 68.7618 69.0204 68.9048V72.0888H67.9605V67.6862H68.6085C68.7458 67.6862 68.8359 67.7506 68.8788 67.8793L68.9518 68.2269Z" fill="white"/>
<path d="M23.9706 74.5217V80.6707H23.2411V76.1523C23.2411 76.0922 23.2425 76.0279 23.2454 75.9592C23.2511 75.8906 23.2568 75.8205 23.2625 75.749L21.1514 79.5937C21.0856 79.7224 20.9855 79.7868 20.851 79.7868H20.7309C20.5964 79.7868 20.4963 79.7224 20.4305 79.5937L18.2764 75.7318C18.2936 75.8834 18.3022 76.0236 18.3022 76.1523V80.6707H17.5727V74.5217H18.1863C18.2607 74.5217 18.3179 74.5289 18.3579 74.5432C18.398 74.5575 18.4366 74.5975 18.4738 74.6633L20.5978 78.448C20.6322 78.5167 20.6651 78.5882 20.6965 78.6625C20.7309 78.7369 20.7623 78.8127 20.7909 78.89C20.8195 78.8127 20.8496 78.7369 20.881 78.6625C20.9125 78.5853 20.9468 78.5124 20.984 78.4437L23.0695 74.6633C23.1038 74.5975 23.141 74.5575 23.181 74.5432C23.2239 74.5289 23.2826 74.5217 23.3569 74.5217H23.9706Z" fill="white"/>
<path d="M28.8616 76.324V80.6707H28.4068C28.2981 80.6707 28.2294 80.6178 28.2008 80.512L28.1407 80.0442C27.9519 80.2531 27.7402 80.4219 27.5057 80.5506C27.2711 80.6765 27.0022 80.7394 26.699 80.7394C26.4615 80.7394 26.2513 80.7008 26.0682 80.6235C25.888 80.5434 25.7363 80.4319 25.6133 80.2888C25.4903 80.1458 25.3974 79.9727 25.3344 79.7696C25.2744 79.5665 25.2443 79.342 25.2443 79.0959V76.324H26.0081V79.0959C26.0081 79.4249 26.0825 79.6795 26.2312 79.8597C26.3829 80.04 26.6131 80.1301 26.9221 80.1301C27.1481 80.1301 27.3583 80.0771 27.5529 79.9713C27.7503 79.8626 27.9319 79.7138 28.0978 79.525V76.324H28.8616Z" fill="white"/>
<path d="M30.7936 76.9547C30.888 76.8489 30.9881 76.7531 31.0939 76.6672C31.1998 76.5814 31.3113 76.5085 31.4286 76.4484C31.5488 76.3855 31.6747 76.3383 31.8062 76.3068C31.9407 76.2725 32.0852 76.2553 32.2396 76.2553C32.4771 76.2553 32.6859 76.2954 32.8661 76.3755C33.0492 76.4527 33.2008 76.5643 33.321 76.7101C33.444 76.8532 33.5369 77.0263 33.5999 77.2294C33.6628 77.4325 33.6943 77.657 33.6943 77.903V80.6707H32.9262V77.903C32.9262 77.5741 32.8504 77.3195 32.6988 77.1392C32.55 76.9562 32.3226 76.8646 32.0165 76.8646C31.7905 76.8646 31.5788 76.919 31.3814 77.0277C31.1869 77.1364 31.0067 77.2837 30.8408 77.4697V80.6707H30.0727V76.324H30.5318C30.6405 76.324 30.7077 76.3769 30.7335 76.4827L30.7936 76.9547Z" fill="white"/>
<path d="M35.6648 76.324V80.6707H34.9011V76.324H35.6648ZM35.8279 74.9594C35.8279 75.0338 35.8122 75.1039 35.7807 75.1697C35.7521 75.2326 35.7121 75.2898 35.6606 75.3413C35.6119 75.39 35.5533 75.4286 35.4846 75.4572C35.4188 75.4858 35.3487 75.5001 35.2744 75.5001C35.2 75.5001 35.1299 75.4858 35.0641 75.4572C35.0012 75.4286 34.9454 75.39 34.8968 75.3413C34.8481 75.2898 34.8095 75.2326 34.7809 75.1697C34.7523 75.1039 34.738 75.0338 34.738 74.9594C34.738 74.885 34.7523 74.815 34.7809 74.7492C34.8095 74.6805 34.8481 74.6219 34.8968 74.5732C34.9454 74.5217 35.0012 74.4817 35.0641 74.4531C35.1299 74.4245 35.2 74.4102 35.2744 74.4102C35.3487 74.4102 35.4188 74.4245 35.4846 74.4531C35.5533 74.4817 35.6119 74.5217 35.6606 74.5732C35.7121 74.6219 35.7521 74.6805 35.7807 74.7492C35.8122 74.815 35.8279 74.885 35.8279 74.9594Z" fill="white"/>
<path d="M39.945 77.0963C39.9221 77.1278 39.8992 77.1521 39.8763 77.1693C39.8534 77.1864 39.822 77.195 39.7819 77.195C39.739 77.195 39.6918 77.1779 39.6403 77.1435C39.5888 77.1063 39.5245 77.0663 39.4472 77.0234C39.3728 76.9805 39.2799 76.9419 39.1683 76.9075C39.0596 76.8703 38.9252 76.8518 38.765 76.8518C38.5504 76.8518 38.3616 76.8904 38.1985 76.9676C38.0355 77.042 37.8982 77.1507 37.7866 77.2937C37.6779 77.4368 37.5949 77.6098 37.5377 77.8129C37.4834 78.016 37.4562 78.2435 37.4562 78.4952C37.4562 78.7584 37.4862 78.993 37.5463 79.1989C37.6064 79.402 37.6908 79.5737 37.7995 79.7138C37.911 79.8512 38.0441 79.957 38.1985 80.0314C38.3559 80.1029 38.5318 80.1386 38.7263 80.1386C38.9123 80.1386 39.0653 80.1172 39.1855 80.0743C39.3056 80.0285 39.4043 79.9785 39.4816 79.9241C39.5616 79.8697 39.6274 79.8211 39.6789 79.7782C39.7333 79.7324 39.7862 79.7095 39.8377 79.7095C39.9006 79.7095 39.9493 79.7339 39.9836 79.7825L40.1981 80.0614C40.1037 80.1787 39.9965 80.2788 39.8763 80.3618C39.7562 80.4447 39.626 80.5148 39.4858 80.572C39.3485 80.6264 39.2041 80.6664 39.0525 80.6922C38.9008 80.7179 38.7464 80.7308 38.589 80.7308C38.3173 80.7308 38.0641 80.6807 37.8295 80.5806C37.5978 80.4805 37.3961 80.336 37.2245 80.1472C37.0528 79.9556 36.9184 79.721 36.8211 79.4435C36.7239 79.166 36.6752 78.8499 36.6752 78.4952C36.6752 78.1719 36.7196 77.873 36.8083 77.5984C36.8998 77.3238 37.0314 77.0878 37.203 76.8904C37.3775 76.6901 37.5907 76.5342 37.8424 76.4226C38.097 76.3111 38.3888 76.2553 38.7178 76.2553C39.0238 76.2553 39.2927 76.3054 39.5245 76.4055C39.759 76.5028 39.9664 76.6415 40.1467 76.8217L39.945 77.0963Z" fill="white"/>
<path d="M41.8248 76.324V80.6707H41.061V76.324H41.8248ZM41.9878 74.9594C41.9878 75.0338 41.9721 75.1039 41.9406 75.1697C41.912 75.2326 41.872 75.2898 41.8205 75.3413C41.7718 75.39 41.7132 75.4286 41.6445 75.4572C41.5788 75.4858 41.5087 75.5001 41.4343 75.5001C41.3599 75.5001 41.2898 75.4858 41.224 75.4572C41.1611 75.4286 41.1053 75.39 41.0567 75.3413C41.008 75.2898 40.9694 75.2326 40.9408 75.1697C40.9122 75.1039 40.8979 75.0338 40.8979 74.9594C40.8979 74.885 40.9122 74.815 40.9408 74.7492C40.9694 74.6805 41.008 74.6219 41.0567 74.5732C41.1053 74.5217 41.1611 74.4817 41.224 74.4531C41.2898 74.4245 41.3599 74.4102 41.4343 74.4102C41.5087 74.4102 41.5788 74.4245 41.6445 74.4531C41.7132 74.4817 41.7718 74.5217 41.8205 74.5732C41.872 74.6219 41.912 74.6805 41.9406 74.7492C41.9721 74.815 41.9878 74.885 41.9878 74.9594Z" fill="white"/>
<path d="M43.8478 79.6237C43.988 79.8125 44.1411 79.9456 44.307 80.0228C44.4729 80.1 44.6588 80.1386 44.8648 80.1386C45.271 80.1386 45.5828 79.9942 45.8002 79.7053C46.0176 79.4163 46.1264 79.0044 46.1264 78.4695C46.1264 78.1862 46.1006 77.9431 46.0491 77.74C46.0005 77.5369 45.929 77.371 45.8346 77.2422C45.7402 77.1106 45.6243 77.0148 45.487 76.9547C45.3497 76.8947 45.1938 76.8646 45.0193 76.8646C44.7704 76.8646 44.5516 76.9218 44.3628 77.0363C44.1768 77.1507 44.0052 77.3123 43.8478 77.5211V79.6237ZM43.8092 76.9976C43.9923 76.7717 44.204 76.59 44.4443 76.4527C44.6846 76.3154 44.9592 76.2467 45.2682 76.2467C45.5199 76.2467 45.7473 76.2954 45.9504 76.3926C46.1535 76.487 46.3266 76.6286 46.4696 76.8174C46.6127 77.0034 46.7228 77.2351 46.8 77.5126C46.8773 77.79 46.9159 78.109 46.9159 78.4695C46.9159 78.7898 46.873 79.0888 46.7872 79.3663C46.7013 79.6409 46.5769 79.8798 46.4138 80.0829C46.2537 80.2831 46.0563 80.4419 45.8217 80.5592C45.59 80.6736 45.3282 80.7308 45.0364 80.7308C44.7704 80.7308 44.5415 80.6865 44.3499 80.5978C44.1611 80.5062 43.9937 80.3804 43.8478 80.2202V82.1425H43.0797V76.324H43.5389C43.6476 76.324 43.7148 76.3769 43.7406 76.4827L43.8092 76.9976Z" fill="white"/>
<path d="M50.2461 78.714C49.8942 78.7255 49.5939 78.7541 49.345 78.7999C49.099 78.8428 48.8973 78.9 48.74 78.9715C48.5855 79.043 48.4725 79.1274 48.401 79.2247C48.3323 79.3219 48.298 79.4306 48.298 79.5508C48.298 79.6652 48.3166 79.7639 48.3538 79.8469C48.391 79.9298 48.441 79.9985 48.504 80.0528C48.5698 80.1043 48.6456 80.1429 48.7314 80.1687C48.8201 80.1916 48.9145 80.203 49.0146 80.203C49.149 80.203 49.272 80.1901 49.3836 80.1644C49.4952 80.1358 49.5996 80.0957 49.6969 80.0442C49.797 79.9928 49.8914 79.9312 49.9801 79.8597C50.0716 79.7882 50.1603 79.7067 50.2461 79.6151V78.714ZM47.7788 76.9376C48.0191 76.7059 48.278 76.5328 48.5555 76.4184C48.8329 76.3039 49.1405 76.2467 49.478 76.2467C49.7212 76.2467 49.9371 76.2868 50.126 76.3669C50.3148 76.447 50.4735 76.5585 50.6023 76.7016C50.731 76.8446 50.8282 77.0177 50.894 77.2208C50.9598 77.4239 50.9927 77.647 50.9927 77.8902V80.6707H50.6537C50.5794 80.6707 50.5222 80.6593 50.4821 80.6364C50.4421 80.6107 50.4106 80.562 50.3877 80.4905L50.3019 80.0786C50.1875 80.1844 50.0759 80.2788 49.9672 80.3618C49.8585 80.4419 49.7441 80.5105 49.6239 80.5677C49.5038 80.6221 49.375 80.6636 49.2377 80.6922C49.1033 80.7237 48.9531 80.7394 48.7872 80.7394C48.6184 80.7394 48.4596 80.7165 48.3109 80.6707C48.1621 80.6221 48.032 80.5506 47.9204 80.4562C47.8117 80.3618 47.7244 80.2431 47.6586 80.1C47.5957 79.9541 47.5642 79.7825 47.5642 79.5851C47.5642 79.4135 47.6114 79.249 47.7058 79.0916C47.8002 78.9314 47.9533 78.7898 48.165 78.6668C48.3767 78.5438 48.6527 78.4437 48.9931 78.3665C49.3336 78.2864 49.7512 78.2406 50.2461 78.2292V77.8902C50.2461 77.5526 50.1732 77.298 50.0273 77.1264C49.8814 76.9519 49.6683 76.8646 49.3879 76.8646C49.1991 76.8646 49.0403 76.8889 48.9116 76.9376C48.7857 76.9833 48.6756 77.0363 48.5812 77.0963C48.4897 77.1535 48.4096 77.2065 48.3409 77.2551C48.2751 77.3009 48.2093 77.3238 48.1435 77.3238C48.092 77.3238 48.0477 77.3109 48.0105 77.2851C47.9733 77.2565 47.9418 77.2222 47.9161 77.1822L47.7788 76.9376Z" fill="white"/>
<path d="M52.9457 74.3501V80.6707H52.1819V74.3501H52.9457Z" fill="white"/>
<path d="M54.9911 76.324V80.6707H54.2273V76.324H54.9911ZM55.1541 74.9594C55.1541 75.0338 55.1384 75.1039 55.1069 75.1697C55.0783 75.2326 55.0383 75.2898 54.9868 75.3413C54.9381 75.39 54.8795 75.4286 54.8108 75.4572C54.7451 75.4858 54.675 75.5001 54.6006 75.5001C54.5262 75.5001 54.4561 75.4858 54.3903 75.4572C54.3274 75.4286 54.2716 75.39 54.223 75.3413C54.1744 75.2898 54.1357 75.2326 54.1071 75.1697C54.0785 75.1039 54.0642 75.0338 54.0642 74.9594C54.0642 74.885 54.0785 74.815 54.1071 74.7492C54.1357 74.6805 54.1744 74.6219 54.223 74.5732C54.2716 74.5217 54.3274 74.4817 54.3903 74.4531C54.4561 74.4245 54.5262 74.4102 54.6006 74.4102C54.675 74.4102 54.7451 74.4245 54.8108 74.4531C54.8795 74.4817 54.9381 74.5217 54.9868 74.5732C55.0383 74.6219 55.0783 74.6805 55.1069 74.7492C55.1384 74.815 55.1541 74.885 55.1541 74.9594Z" fill="white"/>
<path d="M57.5805 80.7394C57.2373 80.7394 56.9727 80.6436 56.7867 80.4519C56.6036 80.2602 56.5121 79.9842 56.5121 79.6237V76.9633H55.9886C55.9428 76.9633 55.9042 76.9504 55.8727 76.9247C55.8413 76.8961 55.8255 76.8532 55.8255 76.796V76.4913L56.5378 76.4012L56.7138 75.0581C56.7223 75.0152 56.7409 74.9809 56.7695 74.9551C56.801 74.9265 56.8411 74.9122 56.8897 74.9122H57.2759V76.4098H58.5331V76.9633H57.2759V79.5722C57.2759 79.7553 57.3202 79.8912 57.4089 79.9799C57.4976 80.0686 57.612 80.1129 57.7522 80.1129C57.8323 80.1129 57.9009 80.1029 57.9582 80.0829C58.0182 80.06 58.0697 80.0357 58.1126 80.0099C58.1555 79.9842 58.1913 79.9613 58.2199 79.9413C58.2514 79.9184 58.2785 79.9069 58.3014 79.9069C58.3415 79.9069 58.3772 79.9312 58.4087 79.9799L58.6318 80.3446C58.5002 80.4676 58.3415 80.5649 58.1555 80.6364C57.9696 80.7051 57.7779 80.7394 57.5805 80.7394Z" fill="white"/>
<path d="M63.0721 76.324L60.6477 81.9537C60.622 82.011 60.5891 82.0567 60.549 82.091C60.5118 82.1254 60.4532 82.1425 60.3731 82.1425H59.8067L60.6005 80.4176L58.8069 76.324H59.4677C59.5335 76.324 59.585 76.3411 59.6222 76.3755C59.6622 76.4069 59.6894 76.4427 59.7037 76.4827L60.8666 79.2204C60.9123 79.3405 60.951 79.4664 60.9824 79.598C61.0225 79.4635 61.0654 79.3362 61.1112 79.2161L62.2397 76.4827C62.2569 76.437 62.2855 76.3998 62.3255 76.3712C62.3684 76.3397 62.4156 76.324 62.4671 76.324H63.0721Z" fill="white"/>
<path d="M34.1365 2.38396C34.9142 2.81 35.5856 3.38117 36.2332 3.98184C36.4156 4.15076 36.5989 4.31868 36.7832 4.48546C37.7982 5.40597 38.7596 6.37866 39.7243 7.35134C40.0528 7.68253 40.3816 8.01338 40.7107 8.34402C40.8208 8.45542 40.8208 8.45542 40.9332 8.56907C41.3396 8.9774 41.7554 9.36747 42.1928 9.74251C42.4439 9.95981 42.6826 10.1898 42.9236 10.4181C43.6693 11.0987 44.3757 11.4437 45.3885 11.4392C45.7621 11.4028 46.1099 11.3076 46.47 11.2069C47.9378 10.8101 49.1584 10.9385 50.5184 11.6546C51.9231 12.4841 53.0983 13.7269 54.2381 14.8778C54.4357 15.0773 54.6341 15.2759 54.8327 15.4744C54.9615 15.6038 55.0904 15.7332 55.2192 15.8627C55.277 15.9207 55.3349 15.9787 55.3945 16.0384C55.6851 16.3323 55.9642 16.6318 56.2338 16.9452C56.6525 17.4286 57.1033 17.8774 57.5567 18.3281C57.6454 18.4166 57.734 18.5051 57.8253 18.5962C58.1059 18.8762 58.3868 19.1559 58.6677 19.4355C58.8591 19.6264 59.0505 19.8173 59.2418 20.0082C59.7085 20.4738 60.1756 20.9392 60.6429 21.4043C60.6016 21.459 60.5603 21.5137 60.5178 21.57C60.4634 21.6422 60.4091 21.7143 60.3531 21.7886C60.2725 21.8956 60.2725 21.8956 60.1902 22.0048C57.9967 24.9735 57.4134 28.6139 57.9389 32.2225C58.0522 32.7812 58.1981 33.3308 58.3622 33.8768C58.4924 34.3257 58.5897 34.681 58.4216 35.1355C58.2324 35.3336 58.0397 35.4784 57.8158 35.6403C57.7901 35.4703 57.7901 35.4703 57.7638 35.2968C57.6206 33.9741 57.6206 33.9741 56.956 32.8905C56.7451 32.6397 56.7504 32.4421 56.7246 32.1176C56.714 31.9988 56.7034 31.8799 56.6925 31.7575C56.6821 31.6311 56.6718 31.5048 56.6611 31.3746C56.5611 30.3301 56.4405 29.3668 56.0995 28.3709C56.075 28.2972 56.0505 28.2236 56.0253 28.1477C55.1578 25.5573 53.7175 23.3975 51.8589 21.4043C51.7858 21.3245 51.7127 21.2448 51.6373 21.1626C49.7601 19.1931 47.4309 17.9627 44.8924 17.0629C44.8165 17.0355 44.7406 17.0081 44.6624 16.9798C42.6924 16.3005 40.0531 16.415 38.1278 17.1638C38.0466 17.1952 37.9654 17.2267 37.8818 17.259C35.3794 18.2566 33.2494 19.7988 31.3632 21.7072C30.8775 21.571 30.4987 21.3583 30.0948 21.0636C30.0344 21.02 29.9739 20.9764 29.9117 20.9314C29.1699 20.3839 28.3435 19.7523 27.8294 18.9812C27.9369 18.9675 28.0444 18.9538 28.1552 18.9398C29.1802 18.7937 30.092 18.5637 30.9593 17.9715C31.1534 17.693 31.1933 17.456 31.1991 17.1196C31.2034 17.0074 31.2034 17.0074 31.2078 16.8929C31.1384 16.5442 31.012 16.4061 30.7574 16.1542C30.4333 15.9433 30.0946 15.7626 29.754 15.5799C28.5847 14.931 27.5833 14.1814 26.5926 13.283C26.5358 13.2317 26.4791 13.1803 26.4206 13.1274C26.1698 12.8938 26.0212 12.7489 25.9111 12.4185C25.9965 12.4013 26.0818 12.3841 26.1698 12.3664C27.2847 12.154 27.2847 12.154 28.1997 11.5272C28.4425 11.1313 28.4375 10.7438 28.3342 10.2982C28.1185 9.99049 27.8338 9.80307 27.5265 9.59148C27.4118 9.50953 27.2974 9.42735 27.183 9.34499C26.9984 9.21246 26.8135 9.08039 26.6276 8.94966C26.198 8.6473 25.7962 8.32882 25.4062 7.97605C25.5567 7.60335 25.7587 7.42958 26.0751 7.18727C26.5842 6.78253 27.0606 6.35338 27.5328 5.90628C27.6026 5.84029 27.6723 5.77429 27.7442 5.7063C27.8798 5.57794 28.0154 5.44957 28.1511 5.3212C28.4622 5.02872 28.7803 4.74419 29.0993 4.46044C29.2813 4.29665 29.4607 4.13135 29.6389 3.9635C30.9327 2.74822 32.2974 1.55462 34.1365 2.38396Z" fill="white"/>
<path d="M56.6 8.48118C57.404 9.12622 58.0297 9.7827 58.5184 10.7024C58.5659 10.7917 58.6134 10.881 58.6623 10.973C59.431 12.5376 59.628 14.5117 59.1241 16.1951C58.9543 16.6364 58.7492 17.0547 58.5184 17.467C58.4517 17.467 58.3851 17.467 58.3164 17.467C58.1798 17.3286 58.1798 17.3286 58.0174 17.1312C57.5516 16.5839 57.0459 16.0789 56.5381 15.5708C56.4351 15.4675 56.3322 15.3642 56.2292 15.2609C56.0145 15.0455 55.7995 14.8304 55.5844 14.6153C55.3113 14.3423 55.039 14.0685 54.7668 13.7946C54.5547 13.5813 54.342 13.3685 54.1293 13.1558C54.0288 13.0552 53.9285 12.9545 53.8283 12.8535C52.2659 11.2799 50.5591 9.8937 48.2453 9.86806C47.8662 9.87004 47.4882 9.88015 47.1094 9.89469C47.857 8.59085 49.2455 7.82419 50.6451 7.37333C52.7153 6.82453 54.8592 7.23168 56.6 8.48118Z" fill="white"/>
<path d="M55.497 33.1162C55.9905 33.2533 56.1559 33.4868 56.4057 33.9239C56.8461 35.2452 56.8919 37.2118 56.6076 38.5683C56.2516 39.2746 55.601 39.5163 54.8867 39.7672C54.4737 39.9245 54.1083 40.1432 53.7281 40.3665C52.8264 40.892 51.8615 41.4126 50.8526 41.6982C50.5497 41.5972 50.5497 41.5972 50.4488 41.4963C50.4012 41.0708 50.3871 40.6428 50.3667 40.2153C50.359 40.0956 50.3513 39.9759 50.3433 39.8526C50.2971 38.8615 50.2971 38.8615 50.5359 38.4906C50.768 38.2483 50.8539 38.1713 51.1849 38.1485C51.2813 38.1469 51.3777 38.1453 51.477 38.1437C51.6407 38.1407 51.6407 38.1407 51.8077 38.1376C51.9259 38.1359 52.0442 38.1342 52.166 38.1325C52.2867 38.1304 52.4074 38.1283 52.5318 38.1261C52.9186 38.1195 53.3054 38.1136 53.6923 38.1076C53.954 38.1033 54.2157 38.0989 54.4775 38.0944C55.1202 38.0836 55.7629 38.0733 56.4057 38.0635C56.4057 37.8636 56.4057 37.6637 56.4057 37.4577C56.3356 37.4648 56.2655 37.4718 56.1933 37.4791C55.2112 37.5671 54.2332 37.5774 53.2477 37.5774C52.9639 37.5776 52.6802 37.5794 52.3965 37.5813C52.2151 37.5816 52.0338 37.5818 51.8524 37.5819C51.7681 37.5826 51.6837 37.5834 51.5968 37.5841C50.8499 37.5812 50.8499 37.5812 50.5497 37.3567C50.3083 36.9946 50.3152 36.7283 50.3139 36.3096C50.3132 36.237 50.3125 36.1645 50.3119 36.0897C50.3108 35.9364 50.3104 35.783 50.3104 35.6296C50.31 35.3954 50.3063 35.1613 50.3025 34.9271C50.3019 34.7779 50.3015 34.6288 50.3013 34.4796C50.2991 34.3749 50.2991 34.3749 50.2969 34.268C50.2998 33.9597 50.3346 33.7456 50.4853 33.4752C50.9144 33.2222 51.3407 33.2687 51.8291 33.2787C51.9339 33.2793 52.0387 33.2798 52.1466 33.2804C52.481 33.2827 52.8152 33.2878 53.1496 33.2929C53.3763 33.2949 53.6031 33.2968 53.8299 33.2984C54.3856 33.3029 54.9413 33.3096 55.497 33.3181C55.497 33.2515 55.497 33.1849 55.497 33.1162Z" fill="white"/>
<path d="M45.6018 18.5774C45.5181 19.3474 45.3001 20.0595 45.0023 20.7734C44.8323 21.1833 44.7086 21.5946 44.5921 22.0228C44.4426 22.5665 44.2615 23.0334 43.9864 23.5247C43.561 23.5436 43.1916 23.5122 42.7748 23.4237C41.8087 23.2369 40.8898 23.2486 39.9478 23.5247C39.7796 23.5285 39.6112 23.5292 39.443 23.5247C38.193 20.2457 38.193 20.2457 37.7266 18.5774C40.3933 17.5521 42.9406 17.442 45.6018 18.5774Z" fill="white"/>
<path d="M27.7297 33.0156C27.7963 33.0489 27.8629 33.0823 27.9316 33.1166C28.5355 33.2181 29.1432 33.232 29.7541 33.2353C29.9241 33.2376 30.0942 33.2401 30.2642 33.2426C30.5286 33.2462 30.7928 33.2491 31.0572 33.2505C31.3149 33.252 31.5725 33.2561 31.8302 33.2605C31.9092 33.2604 31.9881 33.2602 32.0695 33.26C32.4138 33.2677 32.6384 33.2931 32.9286 33.4845C33.1255 33.7923 33.1315 33.9911 33.1309 34.3554C33.1309 34.4784 33.131 34.6015 33.1311 34.7283C33.1291 34.8565 33.127 34.9848 33.125 35.1169C33.1257 35.244 33.1264 35.3711 33.1271 35.5021C33.1174 36.9166 33.1174 36.9166 32.576 37.4581C32.3308 37.4842 32.0964 37.4982 31.8507 37.5034C31.7776 37.5057 31.7045 37.5079 31.6293 37.5102C31.3916 37.5171 31.154 37.5223 30.9164 37.5275C30.8363 37.5295 30.7562 37.5316 30.6737 37.5337C29.4847 37.564 28.3104 37.552 27.1239 37.4581C27.1139 36.9209 27.1066 36.3838 27.1017 35.8466C27.0997 35.664 27.0969 35.4813 27.0934 35.2987C27.0885 35.0358 27.0862 34.7729 27.0844 34.51C27.0824 34.4287 27.0803 34.3473 27.0781 34.2636C27.078 33.8607 27.0939 33.6685 27.3157 33.3198C27.5277 33.1166 27.5277 33.1166 27.7297 33.0156Z" fill="white"/>
<path d="M51.0448 22.4245C52.4177 23.0237 53.3953 25.156 54.0919 26.3956C54.1806 26.6547 54.1806 26.6547 54.1274 26.8728C53.734 27.3643 53.0959 27.5084 52.521 27.7023C52.3401 27.7643 52.1592 27.8263 51.9783 27.8884C51.8896 27.9187 51.8008 27.9491 51.7094 27.9803C51.2469 28.1399 50.7879 28.3091 50.3286 28.4776C50.0648 28.5652 49.8098 28.6267 49.5363 28.674C49.4479 28.5415 49.3596 28.409 49.2712 28.2765C49.2156 28.1935 49.1601 28.1104 49.1028 28.0249C48.994 27.8611 48.8864 27.6966 48.7802 27.5311C48.4712 27.053 48.1418 26.6387 47.7414 26.2331C47.6179 26.049 47.6179 26.049 47.6302 25.8301C47.6594 25.769 47.6887 25.708 47.7189 25.6451C47.8188 25.6118 47.9188 25.5785 48.0218 25.5441C48.0922 25.4111 48.1591 25.2762 48.2237 25.1403C48.3837 24.959 48.3837 24.959 48.572 24.7759C48.641 24.7079 48.7101 24.64 48.7812 24.57C48.8534 24.5 48.9255 24.4299 48.9999 24.3578C49.4843 23.8855 49.9521 23.4092 50.3912 22.8941C50.8123 22.4123 50.8123 22.4123 51.0448 22.4245Z" fill="white"/>
<path d="M32.2783 22.4141C32.6353 22.5627 32.831 22.7584 33.0797 23.0514C33.3716 23.3932 33.6742 23.7143 33.9947 24.0295C34.6239 24.6503 35.2433 25.2703 35.8121 25.9478C35.7766 25.9944 35.741 26.041 35.7044 26.089C35.0758 26.9196 34.4792 27.7496 33.9947 28.6739C33.0428 28.5426 32.1472 28.1441 31.2616 27.7833C30.8405 27.6138 30.4172 27.4499 29.994 27.2856C29.9113 27.2535 29.8285 27.2213 29.7433 27.1882C29.545 27.1113 29.3467 27.0344 29.1484 26.9575C29.943 25.271 30.9162 23.7081 32.2783 22.4141Z" fill="white"/>
<path d="M28.9393 27.2603C28.9727 27.3602 29.006 27.4602 29.0403 27.5631C29.2376 27.6427 29.2376 27.6427 29.4883 27.6894C30.9329 28.0482 32.3135 28.7085 33.6847 29.2795C33.6506 29.3943 33.6165 29.5091 33.5813 29.6274C33.3275 30.5003 33.1195 31.3393 33.0241 32.2454C32.9779 32.5104 32.9779 32.5104 32.776 32.7123C32.5903 32.7373 32.5903 32.7373 32.3625 32.7369C32.2773 32.7372 32.192 32.7375 32.1041 32.7378C31.9656 32.7367 31.9656 32.7367 31.8243 32.7356C31.7294 32.7356 31.6346 32.7355 31.5368 32.7355C31.3357 32.7352 31.1347 32.7344 30.9336 32.7331C30.6265 32.7313 30.3194 32.731 30.0123 32.7311C29.817 32.7306 29.6217 32.73 29.4264 32.7293C29.3347 32.7292 29.243 32.7291 29.1485 32.729C28.7296 32.7258 28.338 32.7173 27.9297 32.6114C27.9504 30.7514 28.2154 28.9871 28.9393 27.2603Z" fill="white"/>
<path d="M54.5803 27.5635C55.2395 29.2778 55.489 30.8731 55.489 32.7127C53.8231 32.7127 52.1572 32.7127 50.4408 32.7127C50.3741 32.1129 50.3075 31.5132 50.2389 30.8953C50.0849 30.4103 50.0849 30.4103 49.9064 29.9342C49.8204 29.6326 49.8395 29.476 49.936 29.1789C50.1164 29.0571 50.1164 29.0571 50.3528 28.9742C50.44 28.9425 50.5271 28.9107 50.6169 28.878C50.7108 28.8461 50.8047 28.8142 50.9014 28.7814C50.9968 28.7471 51.0921 28.7129 51.1903 28.6776C51.3851 28.6077 51.5801 28.5385 51.7755 28.4701C52.1742 28.3296 52.5695 28.1802 52.9649 28.0304C53.0911 27.9833 53.2173 27.9363 53.3435 27.8892C53.5451 27.8132 53.7453 27.7335 53.943 27.6479C54.1765 27.5635 54.1765 27.5635 54.5803 27.5635Z" fill="white"/>
<path d="M37.3174 18.9813C37.4087 19.1417 37.4087 19.1417 37.4839 19.3505C37.5122 19.4279 37.5406 19.5054 37.5697 19.5852C37.5989 19.6691 37.6281 19.7531 37.6582 19.8395C37.7043 19.9684 37.7043 19.9684 37.7514 20.0998C38.0007 20.8067 38.2175 21.5214 38.4213 22.2426C38.5099 22.5499 38.6062 22.8508 38.712 23.1524C38.8319 23.5247 38.8319 23.5247 38.8319 23.9286C38.6855 24.002 38.6855 24.002 38.5361 24.0769C37.7933 24.4569 37.1286 24.844 36.4951 25.3957C36.3078 25.544 36.3078 25.544 36.1059 25.544C35.9684 25.3781 35.8343 25.2093 35.702 25.0392C35.5354 24.8689 35.3673 24.7011 35.1972 24.5344C34.917 24.2593 34.6373 23.9836 34.3579 23.7077C34.2458 23.5981 34.2458 23.5981 34.1313 23.4863C34.0607 23.4163 33.9901 23.3464 33.9174 23.2743C33.8207 23.1792 33.8207 23.1792 33.722 23.0822C33.5818 22.919 33.5818 22.919 33.5818 22.717C33.5151 22.717 33.4485 22.717 33.3798 22.717C33.2067 22.5192 33.0382 22.3173 32.875 22.1112C33.3557 20.7028 35.503 19.6642 36.7582 18.9825C37.0145 18.8804 37.0145 18.8804 37.3174 18.9813Z" fill="white"/>
<path d="M46.2014 18.8804C47.2674 19.224 48.1804 19.8373 49.0725 20.5021C49.1381 20.5508 49.2037 20.5994 49.2713 20.6496C49.7332 21.0015 50.1405 21.3903 50.5428 21.8083C50.6095 21.875 50.6761 21.9416 50.7448 22.0103C50.6749 22.0729 50.605 22.1355 50.533 22.2C49.9096 22.7642 49.302 23.3412 48.7066 23.9349C48.64 24.001 48.5734 24.0672 48.5048 24.1353C48.4429 24.1974 48.381 24.2594 48.3173 24.3234C48.2345 24.4064 48.2345 24.4064 48.15 24.491C48.008 24.6341 48.008 24.6341 47.9178 24.8373C47.8511 24.8373 47.7845 24.8373 47.7158 24.8373C47.6815 24.931 47.6815 24.931 47.6464 25.0266C47.4756 25.3031 47.3127 25.3472 47.0091 25.4431C46.9404 25.3861 46.8716 25.3291 46.8008 25.2703C46.4769 25.0179 46.143 24.7937 45.7975 24.5722C45.7366 24.5324 45.6757 24.4926 45.6129 24.4516C45.2806 24.2377 44.959 24.06 44.5859 23.9286C44.6432 23.4479 44.7398 23.0186 44.8999 22.562C44.9428 22.4386 44.9858 22.3151 45.03 22.1879C45.0755 22.0593 45.121 21.9307 45.1665 21.802C45.21 21.6774 45.2534 21.5528 45.2982 21.4244C45.5951 20.5749 45.8978 19.7275 46.2014 18.8804Z" fill="white"/>
<path d="M61.1508 27.3613C61.1841 27.3613 61.2175 27.3613 61.2518 27.3613C61.2727 28.1685 61.2608 28.9573 61.1634 29.7592C61.1555 29.8278 61.1476 29.8963 61.1394 29.9669C61.0938 30.3124 61.0451 30.4983 60.8479 30.7941C60.6208 29.6239 60.9106 28.5083 61.1508 27.3613Z" fill="white"/>
<path d="M67.9111 23.6255C67.9444 23.6921 67.9777 23.7588 68.0121 23.8274C67.9437 24.0149 67.9437 24.0149 67.8295 24.2427C67.7877 24.3266 67.7459 24.4104 67.7028 24.4968C67.657 24.5862 67.6112 24.6756 67.564 24.7676C67.5182 24.8582 67.4725 24.9488 67.4253 25.042C67.0512 25.7724 66.6434 26.4724 66.1947 27.1592C66.1614 27.0926 66.1281 27.026 66.0938 26.9573C66.1948 26.7155 66.1948 26.7155 66.3533 26.4138C66.4105 26.3043 66.4678 26.1947 66.5268 26.0818C66.588 25.9667 66.6491 25.8517 66.7122 25.7331C66.8004 25.5641 66.8004 25.5641 66.8904 25.3916C67.2085 24.7867 67.5395 24.1991 67.9111 23.6255Z" fill="white"/>
<rect x="61.5547" y="34.7319" width="0.201929" height="0.403858" fill="white"/>
<rect x="42.0703" y="4.79395" width="1.21157" height="5.55305" transform="rotate(-45 42.0703 4.79395)" fill="white"/>
<rect x="46.3047" y="1.51025" width="1.21157" height="5.55305" transform="rotate(-24.395 46.3047 1.51025)" fill="white"/>
<rect x="51.8672" y="0.0180664" width="1.21157" height="5.55305" transform="rotate(-0.865044 51.8672 0.0180664)" fill="white"/>
<rect x="57.4297" y="0.908691" width="1.21157" height="5.55305" transform="rotate(21.509 57.4297 0.908691)" fill="white"/>
<rect x="62.0312" y="4.03857" width="1.21157" height="5.55305" transform="rotate(44.8216 62.0312 4.03857)" fill="white"/>
<rect x="65.3516" y="8.58203" width="1.21157" height="5.55305" transform="rotate(69.6987 65.3516 8.58203)" fill="white"/>
<rect x="66.4062" y="13.9331" width="1.21157" height="5.55305" transform="rotate(90 66.4062 13.9331)" fill="white"/>
<rect x="65.4688" y="19.5693" width="1.21157" height="5.55305" transform="rotate(115.669 65.4688 19.5693)" fill="white"/>
<path d="M31.5807 38.0876C31.7076 38.0891 31.7076 38.0891 31.8371 38.0905C32.2599 38.1093 32.4334 38.1426 32.7788 38.4086C33.0974 38.8363 33.0951 39.1405 33.0888 39.6652C33.0879 39.7646 33.087 39.864 33.0861 39.9665C33.0849 40.042 33.0837 40.1175 33.0825 40.1952C32.2031 40.043 31.3517 39.7984 30.4953 39.5516C29.4105 39.2398 28.3233 38.9479 27.2266 38.6808C27.2266 38.6475 27.2266 38.6141 27.2266 38.5798C27.3932 38.5465 27.5597 38.5132 27.7314 38.4788C27.4815 38.3789 27.4815 38.3789 27.2266 38.2769C27.2266 38.2436 27.2266 38.2103 27.2266 38.176C30.242 38.0467 30.242 38.0467 31.5807 38.0876Z" fill="white"/>
<path d="M27.1238 38.0752C28.19 38.0752 29.2562 38.0752 30.3547 38.0752C30.3547 38.1085 30.3547 38.1418 30.3547 38.1762C29.0053 38.2261 29.0053 38.2261 27.6286 38.2771C27.6953 38.3438 27.7619 38.4104 27.8306 38.4791C27.2626 38.6936 27.2626 38.6936 26.9219 38.58C26.9885 38.58 27.0551 38.58 27.1238 38.58C27.1238 38.4134 27.1238 38.2468 27.1238 38.0752Z" fill="white"/>
<path d="M20.1537 2.92773C20.287 2.92773 20.4202 2.92773 20.5575 2.92773C20.6164 3.03901 20.6752 3.15029 20.7358 3.26494C22.2365 6.06036 24.1672 8.34564 26.7558 10.1802C26.9847 10.3463 27.2043 10.523 27.4231 10.702C27.3251 10.957 27.2682 11.0807 27.0232 11.2116C25.6933 11.5989 24.6516 11.3541 23.3845 10.9039C23.657 11.4099 23.9534 11.8412 24.3311 12.2733C24.4097 12.3637 24.4097 12.3637 24.4899 12.456C26.0801 14.263 27.8234 15.6821 29.9938 16.7429C30.1955 16.896 30.2141 17.0194 30.2501 17.2647C29.5216 17.8111 28.7814 17.9097 27.8901 17.9083C27.8036 17.9085 27.7171 17.9086 27.6279 17.9087C26.721 17.8941 25.872 17.7025 25 17.4666C25.0719 17.5447 25.1439 17.6228 25.2181 17.7033C25.3158 17.8095 25.4134 17.9157 25.5111 18.0219C25.5622 18.0774 25.6133 18.1329 25.6659 18.1901C25.9402 18.4889 26.2086 18.7909 26.4703 19.101C26.8834 19.5758 27.3513 19.9838 27.827 20.3946C27.966 20.5166 27.966 20.5166 28.1078 20.6411C28.8797 21.304 29.6979 21.8648 30.553 22.4139C30.4174 22.8036 30.2455 23.0723 29.9788 23.3857C29.5483 23.9082 29.1881 24.4612 28.8366 25.039C28.0177 25.002 27.2888 24.7951 26.5144 24.5341C26.4811 24.5675 26.4478 24.6008 26.4135 24.6351C26.4629 24.6809 26.5124 24.7266 26.5634 24.7738C26.7866 24.9823 27.007 25.1935 27.2275 25.405C27.3443 25.5129 27.3443 25.5129 27.4635 25.6231C28.0229 26.165 28.0229 26.165 28.0498 26.5467C28.0096 26.6489 27.9694 26.7511 27.9279 26.8563C27.8766 27.0055 27.8253 27.1547 27.7741 27.304C27.7119 27.4724 27.6496 27.6408 27.5872 27.8092C27.0582 29.2854 26.8587 30.7526 26.7164 32.3084C25.1171 32.1104 23.5998 31.7071 22.072 31.1978C22.157 31.8385 22.2443 32.4789 22.3335 33.119C22.3593 33.3059 22.3846 33.4929 22.4092 33.68C22.5665 34.8747 22.8455 35.9931 23.215 37.1399C23.3118 37.446 23.3991 37.7542 23.4855 38.0634C23.5706 38.0677 23.6556 38.0719 23.7432 38.0764C24.6335 38.1295 25.4878 38.2493 26.363 38.4231C26.4299 38.4362 26.4967 38.4494 26.5656 38.4629C29.7916 39.1015 32.9203 40.122 36.0315 41.1727C40.0218 42.5202 44.4557 43.4537 48.6257 42.3039C48.7063 42.2833 48.7869 42.2628 48.87 42.2416C52.4252 41.331 55.5403 39.4037 58.3183 37.0537C58.3822 37.0009 58.4462 36.948 58.5121 36.8936C58.5748 36.8413 58.6374 36.789 58.702 36.7351C58.7581 36.6885 58.8143 36.642 58.8721 36.5941C59.3215 36.1646 59.4558 35.6748 59.4857 35.066C59.4622 34.2587 59.245 33.4961 59.0499 32.717C58.4028 30.1251 58.5016 27.1826 59.6308 24.7361C59.6839 24.6179 59.737 24.4997 59.7917 24.378C60.6758 22.475 60.6758 22.475 61.5491 22.111C61.9911 22.9286 62.3245 23.7352 62.5588 24.6351C62.5767 24.6963 62.5947 24.7575 62.6132 24.8205C62.816 25.5858 62.8007 26.367 62.7986 27.1529C62.7985 27.2642 62.7985 27.2642 62.7984 27.3778C62.7945 28.5266 62.7185 29.5966 62.3568 30.693C62.2979 30.8839 62.2979 30.8839 62.2377 31.0787C61.824 32.3279 61.1642 33.4775 60.5395 34.6306C62.5844 32.5963 64.4884 30.1195 64.9251 27.2097C65.4935 23.7822 66.8629 20.5154 69.7683 18.4132C70.1625 18.1432 70.5765 17.9168 71.0019 17.7001C71.0713 17.6646 71.1407 17.6291 71.2122 17.5926C71.7078 17.3528 71.7078 17.3528 72.0494 17.4666C72.1928 20.5205 70.9996 23.6734 68.9889 25.9603C68.8326 26.1257 68.6747 26.2896 68.5157 26.4525C68.4679 26.5026 68.4202 26.5528 68.371 26.6045C67.7196 27.2895 67.0525 27.9186 66.2877 28.4765C65.4303 29.1143 64.9235 29.9064 64.4329 30.8444C64.3783 30.9467 64.3237 31.049 64.2675 31.1544C64.1345 31.404 64.0024 31.654 63.8713 31.9045C64.2453 31.7266 64.5385 31.502 64.862 31.242C66.1816 30.207 67.6986 29.3225 69.3234 28.8756C69.3959 28.8549 69.4684 28.8342 69.5431 28.8129C70.7803 28.5114 72.5015 28.4959 73.6649 29.0775C73.5336 29.8347 72.7476 30.4592 72.1504 30.8949C71.2941 31.4636 70.3876 31.8626 69.4243 32.2074C69.317 32.246 69.2096 32.2845 69.099 32.3242C67.7984 32.7414 66.4137 32.8395 65.0596 32.9635C63.9008 33.0717 62.9816 33.2474 62.1549 34.1258C62.0739 34.2371 61.9958 34.3506 61.9214 34.4665C61.8652 34.554 61.809 34.6414 61.751 34.7316C61.6844 34.7316 61.6178 34.7316 61.5491 34.7316C61.5491 34.7982 61.5491 34.8648 61.5491 34.9335C62.5087 34.8972 63.3027 34.8337 64.1604 34.375C64.9957 33.934 65.4565 33.8001 66.3828 34.0374C67.8392 34.5192 68.7322 35.5084 69.4618 36.8084C69.8853 37.7001 70.0104 38.7773 69.7588 39.7435C69.4889 40.3327 69.0459 40.665 68.4841 40.9724C67.5796 41.2757 66.3642 41.2318 65.5061 40.8151C65.433 40.7733 65.36 40.7315 65.2848 40.6885C65.2087 40.6456 65.1325 40.6028 65.0541 40.5587C63.9797 39.8971 63.2621 39.0015 62.7228 37.8741C62.5677 37.0986 62.6261 36.3872 62.8617 35.6402C62.5691 35.6266 62.2772 35.6166 61.9845 35.6087C61.9021 35.6045 61.8196 35.6002 61.7347 35.5959C61.2986 35.587 61.1097 35.5877 60.7595 35.869C60.6869 35.9601 60.6143 36.0512 60.5395 36.1451C60.4672 36.2149 60.395 36.2848 60.3206 36.3568C60.2533 36.4223 60.186 36.4878 60.1167 36.5552C60.0486 36.6209 59.9805 36.6867 59.9104 36.7544C59.7367 36.9473 59.6327 37.1197 59.5298 37.3566C59.6569 37.392 59.7839 37.4274 59.9148 37.4639C61.3212 37.9357 62.2607 38.9142 62.9626 40.1836C63.6728 41.6346 63.8152 42.9357 63.7703 44.5251C62.7466 44.4157 61.9975 43.6256 61.3539 42.8726C60.2405 41.454 59.9702 40.2291 59.9337 38.4672C59.3111 38.0872 59.3111 38.0872 58.6212 38.0634C58.3596 38.2522 58.1362 38.4734 57.9081 38.7007C57.7729 38.8312 57.6376 38.9616 57.5023 39.092C57.4354 39.1572 57.3686 39.2224 57.2997 39.2895C56.4978 40.0679 55.6607 40.8025 54.7845 41.4962C54.6829 41.5771 54.5812 41.6581 54.4765 41.7415C51.5219 44.0702 48.2427 45.6536 44.5464 46.3909C44.3818 46.4239 44.2175 46.458 44.0536 46.494C41.2131 47.1101 38.0518 46.8133 35.1974 46.4434C35.0831 46.4288 34.9688 46.4142 34.8511 46.3992C31.9747 46.0208 29.2253 45.2429 26.4454 44.4368C24.9209 43.9949 23.3988 43.5819 21.8448 43.2567C21.7718 43.2414 21.6987 43.2261 21.6235 43.2103C20.4985 42.9748 19.3769 42.7459 18.2354 42.6068C18.1266 42.5933 18.0177 42.5797 17.9056 42.5658C15.109 42.2295 12.3653 42.1786 9.56621 42.5307C9.13773 42.5841 8.70931 42.636 8.27971 42.6797C8.13364 42.6952 8.13364 42.6952 7.98463 42.7109C7.73505 42.7077 7.73505 42.7077 7.43216 42.5058C7.44359 42.2826 7.44359 42.2826 7.53312 42.001C7.74026 41.819 7.92695 41.6795 8.15784 41.534C8.22455 41.4911 8.29126 41.4481 8.35999 41.4039C10.7099 39.9313 14.261 38.1146 17.1247 38.2653C17.153 38.1801 17.1812 38.0948 17.2103 38.007C17.2877 37.776 17.3663 37.5454 17.4462 37.3152C18.1524 35.2582 18.3685 33.2595 18.4373 31.0968C18.3842 31.1156 18.331 31.1344 18.2763 31.1537C16.9325 31.6246 15.5915 32.0201 14.1968 32.3084C14.1201 32.3251 14.0434 32.3418 13.9644 32.3589C12.7754 32.6102 11.5897 32.6423 10.3791 32.6492C10.3044 32.65 10.2297 32.6508 10.1528 32.6516C8.59683 32.6644 6.68145 32.5503 5.4318 31.5196C5.32247 31.4103 5.32247 31.4103 5.21094 31.2988C5.21883 31.1193 5.21883 31.1193 5.3119 30.8949C5.53914 30.7555 5.75215 30.6448 5.99341 30.5352C6.1414 30.4643 6.28929 30.3931 6.4371 30.3218C6.51645 30.284 6.59579 30.2462 6.67754 30.2072C9.09499 29.0455 11.1804 27.6138 13.0455 25.6826C13.2881 25.4428 13.2881 25.4428 13.559 25.2346C13.7884 25.0428 13.887 24.9097 13.9948 24.6351C13.8899 24.6631 13.785 24.6911 13.677 24.7199C12.9102 24.9209 12.1655 25.1146 11.3698 25.1399C11.2612 25.1438 11.2612 25.1438 11.1504 25.1478C9.74238 25.1925 8.51871 25.1772 7.33119 24.3322C7.32606 24.1106 7.32606 24.1106 7.43216 23.8274C7.70783 23.6232 8.01332 23.4831 8.32191 23.3352C8.49894 23.246 8.67589 23.1566 8.85276 23.067C8.93882 23.024 9.02488 22.9811 9.11355 22.9368C10.7128 22.1329 12.1095 21.0322 13.3891 19.7888C13.4721 19.7089 13.4721 19.7089 13.5568 19.6273C14.5572 18.6629 14.5572 18.6629 15.4083 17.5676C15.4083 17.5343 15.4083 17.5009 15.4083 17.4666C15.2594 17.5104 15.2594 17.5104 15.1074 17.555C13.7391 17.9309 12.0555 18.2204 10.7281 17.5747C10.5621 17.4666 10.5621 17.4666 10.3601 17.2647C10.3706 17.0665 10.3706 17.0665 10.4611 16.8608C10.6508 16.723 10.6508 16.723 10.9 16.599C11.0375 16.5282 11.0375 16.5282 11.1778 16.4561C11.2766 16.4064 11.3753 16.3567 11.477 16.3055C13.5312 15.2294 15.158 13.8076 16.5947 11.9956C16.6424 11.9356 16.6901 11.8756 16.7392 11.8137C16.9941 11.4886 17.2238 11.1637 17.4276 10.803C17.3606 10.8309 17.2936 10.8589 17.2245 10.8878C17.0908 10.9426 17.0908 10.9426 16.9544 10.9986C16.8226 11.0531 16.8226 11.0531 16.6882 11.1086C16.113 11.3177 15.5661 11.3293 14.9603 11.333C14.8762 11.3351 14.792 11.3372 14.7053 11.3393C14.1873 11.3426 13.8422 11.2849 13.3891 11.0049C13.3891 10.8716 13.3891 10.7383 13.3891 10.601C13.5859 10.4204 13.5859 10.4204 13.8623 10.235C13.9642 10.1641 14.0661 10.0932 14.1711 10.0201C14.2796 9.94526 14.388 9.87042 14.4997 9.79332C16.9874 8.01456 18.7665 5.63521 20.1537 2.92773Z" fill="white"/>
</svg>
